<?xml version="1.0" standalone="no"?><!DOCTYPE svg PUBLIC "-//W3C//DTD SVG 1.1//EN" "http://www.w3.org/Graphics/SVG/1.1/DTD/svg11.dtd"><svg xmlns:xlink="http://www.w3.org/1999/xlink" version="1.1" class="highcharts-root" style="font-family:&quot;Lucida Grande&quot;, &quot;Lucida Sans Unicode&quot;, Arial, Helvetica, sans-serif;font-size:12px;" xmlns="http://www.w3.org/2000/svg" width="600" height="400" viewBox="0 0 600 400"><desc>Created with Highcharts 6.0.3</desc><defs><clipPath id="highcharts-lrujvhi-6"><rect x="0" y="0" width="580" height="325" fill="none"></rect></clipPath></defs><rect fill="#F5F5DC" class="highcharts-background" x="0" y="0" width="600" height="400" rx="0" ry="0"></rect><rect fill="#F5F5DC" class="highcharts-plot-background" x="10" y="60" width="580" height="325"></rect><rect fill="none" class="highcharts-plot-border" x="10" y="60" width="580" height="325"></rect><g class="highcharts-series-group"><g class="highcharts-series highcharts-series-0 highcharts-pie-series " transform="translate(10,60) scale(1 1)"><path fill="#7cb5ec" d="M 289.9701618756587 22.500003038613215 A 146.5 146.5 0 1 1 151.33812397147028 216.27720524997918 L 290 169 A 0 0 0 1 0 290 169 Z" transform="translate(0,0)" stroke="#ffffff" stroke-width="1" stroke-linejoin="round" class="highcharts-point highcharts-color-0"></path><path fill="#434348" d="M 151.2909161050321 216.1385197584603 A 146.5 146.5 0 0 1 184.56203198231825 67.28920951884054 L 290 169 A 0 0 0 0 0 290 169 Z" transform="translate(0,0)" stroke="#ffffff" stroke-width="1" stroke-linejoin="round" class="highcharts-point highcharts-color-1"></path><path fill="#90ed7d" d="M 184.66379547482723 67.18382242378686 A 146.5 146.5 0 0 1 284.67019080686714 22.59698386315671 L 290 169 A 0 0 0 0 0 290 169 Z" transform="translate(0,0)" stroke="#ffffff" stroke-width="1" stroke-linejoin="round" class="highcharts-point highcharts-color-2"></path><path fill="#f7a35c" d="M 284.8165964635079 22.591727256353863 A 146.5 146.5 0 0 1 287.89208711341564 22.51516562025074 L 290 169 A 0 0 0 0 0 290 169 Z" transform="translate(0,0)" stroke="#ffffff" stroke-width="1" stroke-linejoin="round" class="highcharts-point highcharts-color-3"></path><path fill="#8085e9" d="M 288.03857297733765 22.513130950126566 A 146.5 146.5 0 0 1 289.7965144390725 22.50014131874906 L 290 169 A 0 0 0 0 0 290 169 Z" transform="translate(0,0)" stroke="#ffffff" stroke-width="1" stroke-linejoin="round" class="highcharts-point highcharts-color-4"></path></g><g class="highcharts-markers highcharts-series-0 highcharts-pie-series " transform="translate(10,60) scale(1 1)"></g></g><text x="300" text-anchor="middle" class="highcharts-title" style="color:#333333;font-size:18px;fill:#333333;" y="24"><tspan>Number of rhinos</tspan></text><text x="300" text-anchor="middle" class="highcharts-subtitle" style="color:#666666;fill:#666666;" y="45"><tspan>Source: https://rhinos.org/state-of-the-rhino/</tspan></text><g class="highcharts-data-labels highcharts-series-0 highcharts-pie-series " visibility="visible" transform="translate(10,60) scale(1 1)"><path fill="none" class="highcharts-data-label-connector highcharts-color-0" stroke="#7cb5ec" stroke-width="1" d="M 422.2334012438271 259.6258010001959 C 417.2334012438271 259.6258010001959 412.35544336866434 256.13216006728106 410.7294574102768 254.96761308964278 L 409.1034714518892 253.8030661120045"></path><path fill="none" class="highcharts-data-label-connector highcharts-color-1" stroke="#434348" stroke-width="1" d="M 132.28326045760218 134.29696704180424 C 137.28326045760218 134.29696704180424 143.13821532823724 135.60826542997788 145.08986695178226 136.04536489270242 L 147.04151857532727 136.48246435542697"></path><path fill="none" class="highcharts-data-label-connector highcharts-color-2" stroke="#90ed7d" stroke-width="1" d="M 174.17581491389166 58 C 179.17581491389166 58 228.806230457869 31.002463406704777 229.61943669763153 32.82967319532 L 230.43264293739406 34.65688298393522"></path><path fill="none" class="highcharts-data-label-connector highcharts-color-3" stroke="#f7a35c" stroke-width="1" d="M 203.32993204361833 35 C 208.32993204361833 35 286.3709682147849 18.043760088516457 286.4191945508011 20.043178559100955 L 286.46742088681725 22.042597029685453"></path><path fill="none" class="highcharts-data-label-connector highcharts-color-4" stroke="#8085e9" stroke-width="1" d="M 283.9707138051666 12 C 288.9707138051666 12 289.0101752567292 18.003255028629923 289.02332907391553 20.003211772435506 L 289.03648289110185 22.00316851624109"></path><g class="highcharts-label highcharts-data-label highcharts-data-label-color-0 " style="cursor:pointer;" transform="translate(427,250)"><text x="5" style="font-size:11px;font-weight:bold;color:black;fill:black;" y="16"><tspan style="font-weight: bold;" x="5" y="16" class="highcharts-text-outline" fill="#FFFFFF" stroke="#FFFFFF" stroke-width="2px" stroke-linejoin="round">White</tspan><tspan dx="0" class="highcharts-text-outline" fill="#FFFFFF" stroke="#FFFFFF" stroke-width="2px" stroke-linejoin="round" style="">: 69.8 %</tspan><tspan style="font-weight:bold" x="5" y="16">White</tspan><tspan dx="0">: 69.8 %</tspan></text></g><g class="highcharts-label highcharts-data-label highcharts-data-label-color-1 " style="cursor:pointer;" transform="translate(46,124)"><text x="5" style="font-size:11px;font-weight:bold;color:black;fill:black;" y="16"><tspan style="font-weight: bold;" x="5" y="16" class="highcharts-text-outline" fill="#FFFFFF" stroke="#FFFFFF" stroke-width="2px" stroke-linejoin="round">Black</tspan><tspan dx="0" class="highcharts-text-outline" fill="#FFFFFF" stroke="#FFFFFF" stroke-width="2px" stroke-linejoin="round" style="">: 17.4 %</tspan><tspan style="font-weight:bold" x="5" y="16">Black</tspan><tspan dx="0">: 17.4 %</tspan></text></g><g class="highcharts-label highcharts-data-label highcharts-data-label-color-2 " style="cursor:pointer;" transform="translate(84,48)"><text x="5" style="font-size:11px;font-weight:bold;color:black;fill:black;" y="16"><tspan style="font-weight: bold;" x="5" y="16" class="highcharts-text-outline" fill="#FFFFFF" stroke="#FFFFFF" stroke-width="2px" stroke-linejoin="round">Indian</tspan><tspan dx="0" class="highcharts-text-outline" fill="#FFFFFF" stroke="#FFFFFF" stroke-width="2px" stroke-linejoin="round" style="">: 12.2 %</tspan><tspan style="font-weight:bold" x="5" y="16">Indian</tspan><tspan dx="0">: 12.2 %</tspan></text></g><g class="highcharts-label highcharts-data-label highcharts-data-label-color-3 " style="cursor:pointer;" transform="translate(99,25)"><text x="5" style="font-size:11px;font-weight:bold;color:black;fill:black;" y="16"><tspan style="font-weight: bold;" x="5" y="16" class="highcharts-text-outline" fill="#FFFFFF" stroke="#FFFFFF" stroke-width="2px" stroke-linejoin="round">Sumatran</tspan><tspan dx="0" class="highcharts-text-outline" fill="#FFFFFF" stroke="#FFFFFF" stroke-width="2px" stroke-linejoin="round" style="">: 0.3 %</tspan><tspan style="font-weight:bold" x="5" y="16">Sumatran</tspan><tspan dx="0">: 0.3 %</tspan></text></g><g class="highcharts-label highcharts-data-label highcharts-data-label-color-4 " style="cursor:pointer;" transform="translate(202,2)"><text x="5" style="font-size:11px;font-weight:bold;color:black;fill:black;" y="16"><tspan style="font-weight: bold;" x="5" y="16" class="highcharts-text-outline" fill="#FFFFFF" stroke="#FFFFFF" stroke-width="2px" stroke-linejoin="round">Javan</tspan><tspan dx="0" class="highcharts-text-outline" fill="#FFFFFF" stroke="#FFFFFF" stroke-width="2px" stroke-linejoin="round" style="">: 0.2 %</tspan><tspan style="font-weight:bold" x="5" y="16">Javan</tspan><tspan dx="0">: 0.2 %</tspan></text></g></g><g class="highcharts-legend"><rect fill="none" class="highcharts-legend-box" rx="0" ry="0" x="0" y="0" width="8" height="8" visibility="hidden"></rect><g><g></g></g></g><text x="590" class="highcharts-credits" text-anchor="end" style="cursor:pointer;color:#999999;font-size:9px;fill:#999999;" y="395">Highcharts.com</text></svg>