<?xml version="1.0" encoding="UTF-8" standalone="no"?>
<!-- Created with Inkscape (http://www.inkscape.org/) -->

<svg
   xmlns:dc="http://purl.org/dc/elements/1.1/"
   xmlns:cc="http://creativecommons.org/ns#"
   xmlns:rdf="http://www.w3.org/1999/02/22-rdf-syntax-ns#"
   xmlns:svg="http://www.w3.org/2000/svg"
   xmlns="http://www.w3.org/2000/svg"
   xmlns:xlink="http://www.w3.org/1999/xlink"
   xmlns:sodipodi="http://sodipodi.sourceforge.net/DTD/sodipodi-0.dtd"
   xmlns:inkscape="http://www.inkscape.org/namespaces/inkscape"
   width="210mm"
   height="297mm"
   viewBox="0 0 744.09448819 1052.3622047"
   id="svg2"
   version="1.1"
   inkscape:version="0.91 r13725"
   sodipodi:docname="Logo.svg"
   inkscape:export-filename="F:\Zauberherrscher\Documents\SZS\2 - Accessible EPUB\AccessibleEPUB\Graphics\Logo-icon.png"
   inkscape:export-xdpi="120"
   inkscape:export-ydpi="120">
  <defs
     id="defs4">
    <clipPath
       clipPathUnits="userSpaceOnUse"
       id="clipPath4285">
      <path
         inkscape:connector-curvature="0"
         id="path4287"
         d="M 517.56927,336.13293 948.60996,494.97959 770.16018,878.66954 339.11949,719.82288 Z"
         style="opacity:1;fill:#f2f2f2;fill-opacity:0.84565914;stroke:none;stroke-width:4.71517372;stroke-linecap:round;stroke-linejoin:round;stroke-miterlimit:4;stroke-dasharray:none;stroke-opacity:1" />
    </clipPath>
  </defs>
  <sodipodi:namedview
     id="base"
     pagecolor="#ffffff"
     bordercolor="#666666"
     borderopacity="1.0"
     inkscape:pageopacity="0.0"
     inkscape:pageshadow="2"
     inkscape:zoom="0.98994949"
     inkscape:cx="133.139"
     inkscape:cy="497.40535"
     inkscape:document-units="px"
     inkscape:current-layer="layer4"
     showgrid="false"
     inkscape:window-width="1920"
     inkscape:window-height="1137"
     inkscape:window-x="1272"
     inkscape:window-y="-8"
     inkscape:window-maximized="1" />
  <metadata
     id="metadata7">
    <rdf:RDF>
      <cc:Work
         rdf:about="">
        <dc:format>image/svg+xml</dc:format>
        <dc:type
           rdf:resource="http://purl.org/dc/dcmitype/StillImage" />
        <dc:title />
      </cc:Work>
    </rdf:RDF>
  </metadata>
  <g
     inkscape:groupmode="layer"
     id="layer6"
     inkscape:label="Textablage"
     style="display:none">
    <text
       xml:space="preserve"
       style="font-style:normal;font-variant:normal;font-weight:normal;font-stretch:normal;font-size:144.29573059px;line-height:125%;font-family:'After Disaster';-inkscape-font-specification:'After Disaster';letter-spacing:0px;word-spacing:0px;fill:#000000;fill-opacity:1;stroke:none;stroke-width:1px;stroke-linecap:butt;stroke-linejoin:miter;stroke-opacity:1"
       x="149.57298"
       y="488.61102"
       id="text4133"
       sodipodi:linespacing="125%"><tspan
         sodipodi:role="line"
         id="tspan4135"
         x="149.57298"
         y="488.61102">A</tspan></text>
    <text
       xml:space="preserve"
       style="font-style:normal;font-weight:normal;font-size:40px;line-height:125%;font-family:sans-serif;letter-spacing:0px;word-spacing:0px;fill:#000000;fill-opacity:1;stroke:none;stroke-width:1px;stroke-linecap:butt;stroke-linejoin:miter;stroke-opacity:1"
       x="148.49242"
       y="519.00165"
       id="text4137"
       sodipodi:linespacing="125%"><tspan
         sodipodi:role="line"
         id="tspan4139"
         x="148.49242"
         y="519.00165">epub</tspan></text>
    <text
       xml:space="preserve"
       style="font-style:normal;font-weight:normal;font-size:40px;line-height:125%;font-family:sans-serif;letter-spacing:0px;word-spacing:0px;fill:#000000;fill-opacity:1;stroke:none;stroke-width:1px;stroke-linecap:butt;stroke-linejoin:miter;stroke-opacity:1"
       x="121.42858"
       y="610.21936"
       id="text4143"
       sodipodi:linespacing="125%"><tspan
         sodipodi:role="line"
         id="tspan4145"
         x="121.42858"
         y="610.21936"
         style="font-style:normal;font-variant:normal;font-weight:normal;font-stretch:normal;font-family:Quantum;-inkscape-font-specification:Quantum">A</tspan></text>
    <text
       sodipodi:linespacing="125%"
       id="text4144"
       y="466.75571"
       x="-70.347168"
       style="font-style:normal;font-weight:normal;font-size:372.79797363px;line-height:125%;font-family:sans-serif;letter-spacing:0px;word-spacing:0px;fill:#000000;fill-opacity:1;stroke:none;stroke-width:1px;stroke-linecap:butt;stroke-linejoin:miter;stroke-opacity:1"
       xml:space="preserve"><tspan
         style="font-style:normal;font-variant:normal;font-weight:500;font-stretch:normal;font-size:40px;font-family:Zantroke;-inkscape-font-specification:'Zantroke Medium'"
         y="466.75571"
         x="-70.347168"
         id="tspan4146"
         sodipodi:role="line">Zantroke</tspan></text>
    <text
       xml:space="preserve"
       style="font-style:normal;font-weight:normal;font-size:40px;line-height:125%;font-family:sans-serif;letter-spacing:0px;word-spacing:0px;fill:#000000;fill-opacity:1;stroke:none;stroke-width:1px;stroke-linecap:butt;stroke-linejoin:miter;stroke-opacity:1"
       x="10.714286"
       y="548.79077"
       id="text4148"
       sodipodi:linespacing="125%"><tspan
         sodipodi:role="line"
         id="tspan4150"
         x="10.714286"
         y="548.79077"
         style="font-size:12.5px">- the future</tspan><tspan
         sodipodi:role="line"
         x="10.714286"
         y="564.41577"
         style="font-size:12.5px"
         id="tspan4152">- the three modes</tspan><tspan
         sodipodi:role="line"
         x="10.714286"
         y="580.04077"
         style="font-size:12.5px"
         id="tspan4154">- braille dots</tspan><tspan
         sodipodi:role="line"
         x="10.714286"
         y="595.66577"
         style="font-size:12.5px"
         id="tspan4156">- ...?</tspan></text>
    <text
       transform="scale(0.94347643,1.0599099)"
       xml:space="preserve"
       style="font-style:normal;font-weight:normal;font-size:291.95608521px;line-height:125%;font-family:sans-serif;letter-spacing:0px;word-spacing:0px;display:inline;fill:#000000;fill-opacity:1;stroke:none;stroke-width:1px;stroke-linecap:butt;stroke-linejoin:miter;stroke-opacity:1"
       x="338.04776"
       y="568.73108"
       id="text4222"
       sodipodi:linespacing="125%"><tspan
         sodipodi:role="line"
         id="tspan4224"
         x="338.04776"
         y="568.73108"
         style="font-style:normal;font-variant:normal;font-weight:normal;font-stretch:normal;font-family:Quantum;-inkscape-font-specification:Quantum">A</tspan></text>
    <text
       xml:space="preserve"
       style="font-style:normal;font-weight:normal;font-size:80.32647705px;line-height:125%;font-family:sans-serif;letter-spacing:0px;word-spacing:0px;display:inline;fill:#000000;fill-opacity:1;stroke:none;stroke-width:1px;stroke-linecap:butt;stroke-linejoin:miter;stroke-opacity:1"
       x="331.10712"
       y="664.37756"
       id="text4226"
       sodipodi:linespacing="125%"
       transform="scale(0.9999949,1.0000051)"><tspan
         sodipodi:role="line"
         id="tspan4228"
         x="331.10712"
         y="664.37756"
         style="font-style:normal;font-variant:normal;font-weight:500;font-stretch:normal;font-family:Zantroke;-inkscape-font-specification:'Zantroke Medium'">epub</tspan></text>
    <rect
       style="display:inline;opacity:0.7770004;fill:#eaeaea;fill-opacity:1;stroke:none;stroke-width:4.71517372;stroke-linecap:round;stroke-linejoin:round;stroke-miterlimit:4;stroke-dasharray:none;stroke-opacity:1"
       id="rect4248"
       width="440.15015"
       height="440.15015"
       x="659.48077"
       y="112.57175"
       transform="matrix(0.9239501,0.38251302,-0.38251302,0.9239501,0,0)" />
    <rect
       style="display:inline;opacity:1;fill:#f2f2f2;fill-opacity:0.84565914;stroke:none;stroke-width:4.71517372;stroke-linecap:round;stroke-linejoin:round;stroke-miterlimit:4;stroke-dasharray:none;stroke-opacity:1"
       id="rect4250"
       width="440.15015"
       height="440.15015"
       x="587.4563"
       y="142.38966"
       transform="matrix(0.9239501,0.38251302,-0.38251302,0.9239501,0,0)" />
    <text
       transform="scale(0.94347643,1.0599099)"
       xml:space="preserve"
       style="font-style:normal;font-weight:normal;font-size:291.95608521px;line-height:125%;font-family:sans-serif;letter-spacing:0px;word-spacing:0px;display:inline;fill:#000000;fill-opacity:1;stroke:none;stroke-width:1px;stroke-linecap:butt;stroke-linejoin:miter;stroke-opacity:1"
       x="338.04776"
       y="568.73108"
       id="text4267"
       sodipodi:linespacing="125%"><tspan
         sodipodi:role="line"
         id="tspan4269"
         x="338.04776"
         y="568.73108"
         style="font-style:normal;font-variant:normal;font-weight:normal;font-stretch:normal;font-family:Quantum;-inkscape-font-specification:Quantum">A</tspan></text>
    <text
       xml:space="preserve"
       style="font-style:normal;font-weight:normal;font-size:80.32647705px;line-height:125%;font-family:sans-serif;letter-spacing:0px;word-spacing:0px;display:inline;fill:#000000;fill-opacity:1;stroke:none;stroke-width:1px;stroke-linecap:butt;stroke-linejoin:miter;stroke-opacity:1"
       x="331.10712"
       y="664.37756"
       id="text4271"
       sodipodi:linespacing="125%"
       transform="scale(0.9999949,1.0000051)"><tspan
         sodipodi:role="line"
         id="tspan4273"
         x="331.10712"
         y="664.37756"
         style="font-style:normal;font-variant:normal;font-weight:500;font-stretch:normal;font-family:Zantroke;-inkscape-font-specification:'Zantroke Medium'">epub</tspan></text>
    <use
       style="display:inline"
       x="0"
       y="0"
       inkscape:tiled-clone-of="#circle4375"
       xlink:href="#circle4375"
       transform="translate(11.25,11.25)"
       id="use4421"
       width="100%"
       height="100%" />
    <use
       style="display:inline"
       height="100%"
       width="100%"
       id="use4439"
       transform="translate(11.25,22.5)"
       xlink:href="#circle4375"
       inkscape:tiled-clone-of="#circle4375"
       y="0"
       x="0" />
    <use
       style="display:inline"
       x="0"
       y="0"
       inkscape:tiled-clone-of="#circle4375"
       xlink:href="#circle4375"
       transform="translate(11.25,45)"
       id="use4441"
       width="100%"
       height="100%" />
  </g>
  <g
     inkscape:label="Ebene 1"
     inkscape:groupmode="layer"
     id="layer1"
     style="display:inline">
    <rect
       style="opacity:1;fill:none;fill-opacity:1;stroke:#000000;stroke-width:2.954;stroke-linecap:round;stroke-linejoin:round;stroke-miterlimit:4;stroke-dasharray:none;stroke-opacity:1"
       id="rect4141"
       width="330.71429"
       height="330.71429"
       x="284.28571"
       y="373.07648"
       inkscape:export-xdpi="120"
       inkscape:export-ydpi="120" />
    <g
       style="font-style:normal;font-weight:normal;font-size:292.32522583px;line-height:125%;font-family:sans-serif;letter-spacing:0px;word-spacing:0px;fill:#000000;fill-opacity:1;stroke:none;stroke-width:1px;stroke-linecap:butt;stroke-linejoin:miter;stroke-opacity:1"
       id="text4140" />
    <path
       style="display:inline;opacity:1;fill:#000000;fill-opacity:1;stroke:none;stroke-width:4.71517372;stroke-linecap:round;stroke-linejoin:round;stroke-miterlimit:4;stroke-dasharray:none;stroke-opacity:1"
       d="m 415.44141,386.5 c 0,4.6772 -0.29199,31.86316 -13.1543,61.97266 l -21.63281,50.28125 c -18.70881,-1.75395 -33.32616,-2.92383 -33.32618,-2.92383 l 0,41.50976 16.66407,-0.29296 -9.64649,22.80273 c -2.04623,4.96955 -3.80064,7.30664 -9.0625,7.30664 -2.92325,0 -6.7238,-0.58461 -12.57031,-1.75391 l 0.58399,37.71094 40.34179,-0.58398 12.64649,0.1914 14.82812,-35.82031 c -4.82262,0.38722 -9.88043,0.84178 -11.98242,0.8418 l 13.44726,-31.57227 c 5.01025,-0.12525 6.45888,-0.0891 11.33594,-0.1875 l 13.59571,-32.83984 c -3.26848,-0.26593 -6.61028,-0.55267 -10.02344,-0.88086 l 21.04883,-48.52734 4.71289,11.39062 30.23047,-73.01758 L 415.44141,386.5 Z"
       id="path4303"
       inkscape:connector-curvature="0" />
    <path
       style="font-style:normal;font-variant:normal;font-weight:500;font-stretch:normal;font-size:medium;line-height:125%;font-family:Zantroke;-inkscape-font-specification:'Zantroke Medium';letter-spacing:0px;word-spacing:0px;fill:#000000;fill-opacity:1;stroke:none;stroke-width:1px;stroke-linecap:butt;stroke-linejoin:miter;stroke-opacity:1"
       d="m 359.21875,615.38086 c -17.18977,0 -26.50586,8.6763 -26.50586,24.90234 0,16.22603 9.55849,24.90039 27.31055,24.90039 0.13772,0 0.26948,-0.01 0.40625,-0.0117 l 4.09961,-9.9004 c -0.9163,0.17114 -1.87908,0.27344 -2.90039,0.27344 -7.87196,0 -12.28953,-4.82029 -12.77149,-13.65625 l 21.00391,0.50391 8.23633,-19.89844 c -4.24439,-4.65259 -10.91275,-7.11328 -18.87891,-7.11328 z m 0,8.83594 c 4.41794,0 8.43555,1.04526 8.43555,7.87304 0,0.5623 2.2e-4,1.12497 -0.0801,1.76758 l -18.1543,0 c 1.28522,-6.10484 4.65796,-9.64062 9.79883,-9.64062 z"
       id="path4343"
       inkscape:connector-curvature="0" />
  </g>
  <g
     inkscape:groupmode="layer"
     id="layer4"
     inkscape:label="Ebene 2"
     style="display:inline">
    <path
       style="font-style:normal;font-variant:normal;font-weight:normal;font-stretch:normal;font-size:medium;line-height:125%;font-family:Quantum;-inkscape-font-specification:Quantum;letter-spacing:0px;word-spacing:0px;fill:#000000;fill-opacity:1;stroke:none;stroke-width:1px;stroke-linecap:butt;stroke-linejoin:miter;stroke-opacity:1"
       d="m 472.63867,390.33984 -45.57422,41.7793 58.4043,119.31641 28.20898,-68.13477 -41.03906,-92.96094 z"
       id="path4362"
       inkscape:connector-curvature="0" />
    <path
       style="font-style:normal;font-variant:normal;font-weight:normal;font-stretch:normal;font-size:medium;line-height:125%;font-family:Quantum;-inkscape-font-specification:Quantum;letter-spacing:0px;word-spacing:0px;fill:#000000;fill-opacity:1;stroke:none;stroke-width:1px;stroke-linecap:butt;stroke-linejoin:miter;stroke-opacity:1"
       d="M 487.24609 615.69531 L 487.24609 640.49219 C 487.24609 643.87376 485.63415 647.05136 482.7832 649.4082 C 482.03947 650.02303 481.17237 650.63803 480.30469 651.15039 L 479.06445 651.76562 L 473.36328 652.89258 L 473.23828 653.09766 L 472.12305 653.09766 C 468.03256 653.09766 464.19079 651.76505 461.33984 649.4082 C 458.4889 647.05136 456.87695 643.87376 456.87695 640.49219 L 456.87695 639.16016 L 456.62891 633.42188 L 456.62891 621.09961 L 444.49023 650.41797 C 446.69616 654.636 450.29489 658.32633 455.01758 660.98828 C 459.97575 663.85749 465.80125 665.39453 471.875 665.39453 C 475.96549 665.39453 479.93177 664.67587 483.65039 663.34375 L 485.26172 662.72852 L 489.84961 660.67969 L 490.7168 660.16797 C 494.18752 657.91359 497.03821 654.9412 499.02148 651.66211 C 501.12871 648.17807 502.24414 644.48962 502.24414 640.5957 L 502.24414 615.79688 L 487.24609 615.69531 z "
       id="path4520" />
    <path
       inkscape:connector-curvature="0"
       id="path4522"
       style="font-style:normal;font-variant:normal;font-weight:normal;font-stretch:normal;font-size:medium;line-height:125%;font-family:Quantum;-inkscape-font-specification:Quantum;letter-spacing:0px;word-spacing:0px;fill:#000000;fill-opacity:1;stroke:none;stroke-width:1px;stroke-linecap:butt;stroke-linejoin:miter;stroke-opacity:1"
       d="m 529.38844,648.38332 0,-1.4346 16.11404,0 c 2.47909,0 4.58631,1.74202 4.58631,3.79145 0,2.04943 -2.10722,3.79145 -4.58631,3.79145 l -16.11404,0 0,-0.51236 z m -14.87451,-6.66065 0,23.46599 34.33531,0 1.48746,0 c 7.5612,-0.51236 13.88286,-4.91863 15.74217,-10.96445 0.37187,-1.12719 0.49582,-2.35685 0.49582,-3.58651 0,-3.79145 -1.85931,-7.48043 -5.08212,-10.24716 3.22281,-2.76673 5.08212,-6.4557 5.08212,-10.24715 l 0,0.10247 c 0,-1.22966 -0.12395,-2.45932 -0.49582,-3.5865 -1.98326,-6.55819 -9.04865,-11.06693 -17.22963,-11.06693 l -34.33531,0 0,20.49431 z m 14.87451,-15.06331 16.11404,0 c 2.47909,0 4.58631,1.74201 4.58631,3.79144 0,2.04943 -2.10722,3.79145 -4.58631,3.79145 l -12.14751,0 -3.96653,-3.27909 z"
       sodipodi:nodetypes="ccsssccccccccsccccsccccsssccc" />
    <path
       inkscape:connector-curvature="0"
       id="path4560"
       style="font-style:normal;font-variant:normal;font-weight:500;font-stretch:normal;font-size:medium;line-height:125%;font-family:Zantroke;-inkscape-font-specification:'Zantroke Medium';letter-spacing:0px;word-spacing:0px;fill:#000000;fill-opacity:1;stroke:none;stroke-width:1px;stroke-linecap:butt;stroke-linejoin:miter;stroke-opacity:1"
       d="m 401.33425,615.38155 -16.0652,0.80327 -0.16066,10.76381 2.08848,-0.48197 c 2.08847,-0.40164 3.05239,-0.56229 4.49826,-0.56229 l 0,48.11581 c -1.44587,0 -4.01631,-0.0803 -6.10479,-0.48196 l -1.92782,-0.32131 0.16065,10.52282 15.90456,-0.24097 16.06522,0.24097 0.16065,-10.52282 -1.92782,0.32131 c -2.08848,0.40163 -4.81957,0.48196 -6.26544,0.48196 l 0,-9.96053 11.24565,0.3213 c 13.49478,0 22.4913,-9.39824 22.4913,-24.09806 0,-15.90473 -6.18511,-24.49971 -17.59141,-24.49971 l -19.35858,4.25733 -3.21305,-4.65896 z m 6.42609,11.96871 9.63913,-1.68687 c 5.46217,0 8.43424,4.41798 8.43424,14.6195 0,9.63922 -6.82772,15.02112 -15.66358,15.02112 l -2.40979,-0.0803 0,-27.87343 z" />
  </g>
  <g
     inkscape:groupmode="layer"
     id="layer5"
     inkscape:label="Ebene 3"
     style="display:inline">
    <circle
       r="4.4194174"
       cy="636.57141"
       cx="522.47449"
       id="circle4368"
       style="opacity:1;fill:#ffffff;fill-opacity:1;stroke:none;stroke-width:2.954;stroke-linecap:round;stroke-linejoin:round;stroke-miterlimit:4;stroke-dasharray:none;stroke-opacity:1" />
    <circle
       style="opacity:1;fill:#000000;fill-opacity:1;stroke:none;stroke-width:2.954;stroke-linecap:round;stroke-linejoin:round;stroke-miterlimit:4;stroke-dasharray:none;stroke-opacity:1"
       id="path4364"
       cx="543.92859"
       cy="556.95319"
       r="11.25" />
    <circle
       style="opacity:1;fill:#ffffff;fill-opacity:1;stroke:none;stroke-width:2.954;stroke-linecap:round;stroke-linejoin:round;stroke-miterlimit:4;stroke-dasharray:none;stroke-opacity:1"
       id="path4366"
       cx="522.22192"
       cy="623.60962"
       r="4.4194174" />
    <circle
       inkscape:tile-y0="524.50507"
       inkscape:tile-x0="498.92859"
       style="opacity:1;fill:#ffffff;fill-opacity:1;stroke:none;stroke-width:2.954;stroke-linecap:round;stroke-linejoin:round;stroke-miterlimit:4;stroke-dasharray:none;stroke-opacity:1"
       id="use4417"
       cx="510.17859"
       cy="590.70319"
       r="11.25" />
    <circle
       r="11.25"
       cy="523.20319"
       cx="510.17859"
       id="circle4375"
       style="opacity:1;fill:#000000;fill-opacity:1;stroke:none;stroke-width:2.954;stroke-linecap:round;stroke-linejoin:round;stroke-miterlimit:4;stroke-dasharray:none;stroke-opacity:1"
       inkscape:tile-cx="510.17859"
       inkscape:tile-cy="535.75507"
       inkscape:tile-w="22.5"
       inkscape:tile-h="22.5"
       inkscape:tile-x0="498.92859"
       inkscape:tile-y0="524.50507" />
    <use
       x="0"
       y="0"
       inkscape:tiled-clone-of="#circle4375"
       xlink:href="#circle4375"
       transform="translate(0,33.75)"
       id="use4415"
       width="100%"
       height="100%" />
    <circle
       inkscape:tile-y0="524.50507"
       inkscape:tile-x0="498.92859"
       style="opacity:1;fill:#ffffff;fill-opacity:1;stroke:none;stroke-width:2.954;stroke-linecap:round;stroke-linejoin:round;stroke-miterlimit:4;stroke-dasharray:none;stroke-opacity:1"
       id="use4413"
       cx="510.17859"
       cy="523.20319"
       r="11.25" />
    <circle
       inkscape:tile-y0="524.50507"
       inkscape:tile-x0="498.92859"
       style="opacity:1;fill:#ffffff;fill-opacity:1;stroke:none;stroke-width:2.954;stroke-linecap:round;stroke-linejoin:round;stroke-miterlimit:4;stroke-dasharray:none;stroke-opacity:1"
       id="use4419"
       cx="543.92859"
       cy="523.20319"
       r="11.25" />
    <use
       x="0"
       y="0"
       inkscape:tiled-clone-of="#circle4375"
       xlink:href="#circle4375"
       transform="translate(33.75,67.5)"
       id="use4423"
       width="100%"
       height="100%" />
  </g>
  <g
     inkscape:groupmode="layer"
     id="layer7"
     inkscape:label="Versteckt"
     style="display:none">
    <path
       inkscape:connector-curvature="0"
       id="path4349"
       style="display:inline;font-style:normal;font-variant:normal;font-weight:500;font-stretch:normal;font-size:medium;line-height:125%;font-family:Zantroke;-inkscape-font-specification:'Zantroke Medium';letter-spacing:0px;word-spacing:0px;fill:#000000;fill-opacity:1;stroke:none;stroke-width:1px;stroke-linecap:butt;stroke-linejoin:miter;stroke-opacity:1"
       d="m 533.64007,603.17187 -10.44239,0.24098 -14.45868,-0.24098 -0.16066,10.52282 1.92783,-0.32131 c 2.08848,-0.40163 4.81956,-0.48196 6.26542,-0.48196 l 0,38.23559 -0.40162,13.25394 27.71249,0.40164 c 13.49478,0 22.4913,-9.79988 22.4913,-24.4997 0,-14.69982 -8.99652,-24.49971 -22.4913,-24.49971 l -11.24565,0.32131 0,-3.21307 c 0,-3.21308 0.80326,-7.55073 0.80326,-9.71955 z m -0.80326,21.76858 4.0163,-0.0803 c 8.83587,0 13.65543,5.22124 13.65543,14.86047 0,9.8802 -4.81956,15.18178 -13.65543,15.18178 l -4.0163,-0.0803 0,-29.8816 z" />
    <path
       inkscape:connector-curvature="0"
       id="path4345"
       style="display:inline;font-style:normal;font-variant:normal;font-weight:500;font-stretch:normal;font-size:medium;line-height:125%;font-family:Zantroke;-inkscape-font-specification:'Zantroke Medium';letter-spacing:0px;word-spacing:0px;fill:#000000;fill-opacity:1;stroke:none;stroke-width:1px;stroke-linecap:butt;stroke-linejoin:miter;stroke-opacity:1"
       d="m 401.33425,615.38155 -16.0652,0.80327 -0.16066,10.76381 2.08848,-0.48197 c 2.08847,-0.40164 3.05239,-0.56229 4.49826,-0.56229 l 0,48.11581 c -1.44587,0 -4.01631,-0.0803 -6.10479,-0.48196 l -1.92782,-0.32131 0.16065,10.52282 15.90456,-0.24097 16.06522,0.24097 0.16065,-10.52282 -1.92782,0.32131 c -2.08848,0.40163 -4.81957,0.48196 -6.26544,0.48196 l 0,-9.96053 11.24565,0.3213 c 13.49478,0 22.4913,-9.39824 22.4913,-24.09806 0,-15.90473 -6.18511,-24.49971 -17.59141,-24.49971 l -19.35858,4.25733 -3.21305,-4.65896 z m 6.42609,11.96871 9.63913,-1.68687 c 5.46217,0 8.43424,4.41798 8.43424,14.6195 0,9.63922 -6.82772,15.02112 -15.66358,15.02112 l -2.40979,-0.0803 0,-27.87343 z" />
    <path
       inkscape:connector-curvature="0"
       id="path4347"
       style="display:inline;font-style:normal;font-variant:normal;font-weight:500;font-stretch:normal;font-size:medium;line-height:125%;font-family:Zantroke;-inkscape-font-specification:'Zantroke Medium';letter-spacing:0px;word-spacing:0px;fill:#000000;fill-opacity:1;stroke:none;stroke-width:1px;stroke-linecap:butt;stroke-linejoin:miter;stroke-opacity:1"
       d="m 502.56393,616.02416 -8.83588,0.24098 -14.45868,-0.24098 -0.16066,10.36217 1.92783,-0.24098 c 2.08848,-0.24098 3.21304,-0.40163 4.65891,-0.40163 l 0,26.18656 -8.83587,3.29341 c -6.42608,0 -8.83587,-4.09668 -8.83587,-15.18179 l 0,-14.29818 c 0,-3.13274 0.80327,-6.34582 0.80327,-9.71956 l -8.83588,0.24098 -16.0652,-0.24098 -0.16065,10.52283 1.92782,-0.32131 c 2.08848,-0.40164 4.81956,-0.48196 6.26543,-0.48196 l 0,19.68008 c 0,14.37851 4.73924,19.68009 17.67173,19.68009 l 18.07337,-7.14908 4.41793,7.14908 17.67174,-0.80326 0.16065,-10.44251 -1.92782,0.32132 c -2.08848,0.40163 -4.81957,0.48196 -6.26544,0.48196 l 0,-28.91768 c 0,-3.13274 0.80327,-6.34582 0.80327,-9.71956 z" />
  </g>
  <g
     inkscape:groupmode="layer"
     id="layer3"
     inkscape:label="Masken"
     style="display:none">
    <path
       style="opacity:1;fill:#f2f2f2;fill-opacity:0.84565914;stroke:none;stroke-width:4.71517372;stroke-linecap:round;stroke-linejoin:round;stroke-miterlimit:4;stroke-dasharray:none;stroke-opacity:1"
       d="m 587.4563,142.38966 440.1501,0 0,440.15015 -440.1501,0 z"
       id="rect4162"
       inkscape:connector-curvature="0"
       transform="matrix(0.9239501,0.38251302,-0.38251302,0.9239501,0,0)" />
    <path
       style="opacity:0.7770004;fill:#eaeaea;fill-opacity:1;stroke:none;stroke-width:4.71517372;stroke-linecap:round;stroke-linejoin:round;stroke-miterlimit:4;stroke-dasharray:none;stroke-opacity:1"
       d="m 659.48077,112.57175 440.15013,0 0,440.15014 -440.15013,0 z"
       id="rect4164"
       transform="matrix(0.9239501,0.38251302,-0.38251302,0.9239501,0,0)"
       inkscape:connector-curvature="0" />
  </g>
  <g
     inkscape:groupmode="layer"
     id="layer2"
     inkscape:label="Hilfslinien"
     sodipodi:insensitive="true"
     style="display:none">
    <path
       style="fill:none;fill-rule:evenodd;stroke:#000000;stroke-width:1.22474492px;stroke-linecap:butt;stroke-linejoin:miter;stroke-opacity:1"
       d="m 333.21277,172.84234 0,643.92857"
       id="path4166"
       inkscape:connector-curvature="0" />
    <path
       inkscape:connector-curvature="0"
       id="path4168"
       d="m 411.16553,172.84234 0,643.92857"
       style="fill:none;fill-rule:evenodd;stroke:#000000;stroke-width:1.22474492px;stroke-linecap:butt;stroke-linejoin:miter;stroke-opacity:1" />
    <path
       style="fill:none;fill-rule:evenodd;stroke:#000000;stroke-width:1.22474492px;stroke-linecap:butt;stroke-linejoin:miter;stroke-opacity:1"
       d="m 489.11829,172.84234 0,643.92857"
       id="path4170"
       inkscape:connector-curvature="0" />
    <path
       inkscape:connector-curvature="0"
       id="path4172"
       d="m 567.07105,172.84234 0,643.92857"
       style="fill:none;fill-rule:evenodd;stroke:#000000;stroke-width:1.22474492px;stroke-linecap:butt;stroke-linejoin:miter;stroke-opacity:1" />
    <path
       style="display:inline;fill:none;fill-rule:evenodd;stroke:#000000;stroke-width:1px;stroke-linecap:butt;stroke-linejoin:miter;stroke-opacity:1"
       d="m 327.16315,615.09243 253.29575,0"
       id="path4543"
       inkscape:connector-curvature="0" />
  </g>
</svg>
