<?xml version="1.0" encoding="UTF-8" ?>
<svg xmlns="http://www.w3.org/2000/svg" version="1.1" >
<path d="M 5.6399998664856 5.48890018463135 C 4.94666624069214 5.48890018463135 4.28666639328003 5.94223356246948 3.65999984741211 6.84889984130859 C 3.53999996185303 7.02223348617554 3.42666673660278 7.20890045166016 3.3199999332428 7.40889978408813 C 2.93333339691162 8.1822338104248 2.60666656494141 9.28223419189453 2.33999991416931 10.7089004516602 C 2.25999975204468 11.1622333526611 2.21999979019165 11.5222330093384 2.22000002861023 11.7889003753662 C 2.21999979019165 12.6955661773682 2.47333335876465 13.2822332382202 2.98000001907349 13.5488996505737 C 3.12666630744934 13.6288995742798 3.29999971389771 13.6688995361328 3.5 13.6688995361328 C 4.246666431427 13.6688995361328 4.99999952316284 13.1955661773682 5.75999975204468 12.2488994598389 C 5.94666624069214 12.0355663299561 6.07333278656006 11.8155670166016 6.1399998664856 11.5888996124268 L 6.1399998664856 11.5689001083374 C 6.15333271026611 11.5422334671021 6.15999937057495 11.5222339630127 6.15999984741211 11.5088996887207 L 7.15999984741211 7.58890008926392 C 7.19999980926514 7.38890027999878 7.21999979019165 7.27556705474854 7.21999979019165 7.24889993667603 C 7.21999979019165 6.96889972686768 7.09999942779541 6.62890005111694 6.85999965667725 6.22889995574951 C 6.56666660308838 5.73556709289551 6.15999984741211 5.48890018463135 5.6399998664856 5.48890018463135 Z M 10.0599994659424 0.00889968872070313 C 10.2333326339722 0.00889968872070313 10.3199996948242 0.0822334289550781 10.3199996948242 0.228899970650673 L 7.44000005722046 11.7889003753662 C 7.35999965667725 12.1222333908081 7.31999969482422 12.4422330856323 7.31999969482422 12.7488994598389 C 7.31999969482422 13.3622331619263 7.51999950408936 13.6688995361328 7.91999959945679 13.6688995361328 C 8.42666625976563 13.6688995361328 8.85333251953125 13.1355667114258 9.19999980926514 12.0689001083374 C 9.26666641235352 11.8422336578369 9.34666633605957 11.5488996505737 9.4399995803833 11.1888999938965 C 9.54666519165039 10.962233543396 9.63999938964844 10.8422336578369 9.71999931335449 10.8288993835449 C 9.8799991607666 10.8289003372192 9.96000003814697 10.8955669403076 9.96000003814697 11.0289001464844 C 9.96000003814697 11.2288999557495 9.84000015258789 11.6955661773682 9.59999942779541 12.4288997650146 C 9.51999855041504 12.6555662155151 9.43999862670898 12.8488998413086 9.35999965667725 13.0088996887207 C 8.98666572570801 13.7422332763672 8.493332862854 14.1089000701904 7.87999963760376 14.1089000701904 C 7.1333327293396 14.1089000701904 6.59333276748657 13.7888994216919 6.25999975204468 13.1489000320435 C 6.16666603088379 12.9889001846313 6.09999942779541 12.8088998794556 6.05999994277954 12.6089000701904 C 5.21999931335449 13.6089000701904 4.35333299636841 14.1089000701904 3.46000003814697 14.1089000701904 C 2.46000003814697 14.1089000701904 1.71999979019165 13.6555662155151 1.24000000953674 12.7488994598389 C 0.946666598320007 12.2155666351318 0.799999892711639 11.6022338867188 0.799999892711639 10.908899307251 C 0.799999892711639 9.46890068054199 1.29999995231628 8.13556671142578 2.29999995231628 6.90889978408813 C 3.23333311080933 5.78889942169189 4.246666431427 5.17556667327881 5.33999967575073 5.0689001083374 C 5.43333339691162 5.05556678771973 5.52666664123535 5.04889965057373 5.61999988555908 5.04889965057373 C 6.43333292007446 5.04889965057373 7.04666614532471 5.47556686401367 7.46000003814697 6.32889986038208 L 8.65999984741211 1.58889961242676 L 8.72000026702881 1.18889999389648 C 8.71999931335449 1.04223346710205 8.62666606903076 0.94890022277832 8.4399995803833 0.908900260925293 C 8.27999973297119 0.868900299072266 8.03999900817871 0.84890079498291 7.71999979019165 0.848899722099304 C 7.42666625976563 0.84890079498291 7.26666641235352 0.768900871276855 7.23999977111816 0.60890007019043 C 7.23999977111816 0.382233619689941 7.33333301544189 0.25556755065918 7.51999998092651 0.228899970650673 C 8.7733325958252 0.0822334289550781 9.61999893188477 0.00889968872070313 10.0599994659424 0.00889968872070313 Z " fill = "black" />
<path d="M 16.429759979248 5.04889965057373 C 17.4830932617188 5.04889965057373 18.2097587585449 5.37556743621826 18.6097602844238 6.02890014648438 C 18.7430934906006 6.25556707382202 18.8097610473633 6.50223350524902 18.8097610473633 6.76889991760254 C 18.8097610473633 7.36890029907227 18.5830917358398 7.72890043258667 18.1297607421875 7.84889984130859 C 18.0497589111328 7.87556648254395 17.9697608947754 7.88889980316162 17.8897609710693 7.88889980316162 C 17.5164260864258 7.83556699752808 17.3097610473633 7.64223384857178 17.2697601318359 7.30889987945557 C 17.2697601318359 6.94890022277832 17.4497604370117 6.68223333358765 17.8097610473633 6.50890016555786 C 17.9430923461914 6.44223356246948 18.0830936431885 6.40890026092529 18.2297592163086 6.40889978408813 C 17.9497604370117 5.82223415374756 17.349760055542 5.5155668258667 16.429759979248 5.48890018463135 C 15.349760055542 5.48890018463135 14.6430931091309 5.89556694030762 14.309760093689 6.708899974823 C 14.2297601699829 6.90890026092529 14.1897602081299 7.10223388671875 14.1897602081299 7.28889989852905 C 14.1897602081299 7.80889987945557 14.5097599029541 8.16223335266113 15.1497602462769 8.34889984130859 L 15.1697597503662 8.36890029907227 C 15.2630939483643 8.39556694030762 15.44309425354 8.43556594848633 15.7097606658936 8.48889923095703 C 16.5364265441895 8.66223335266113 17.0897598266602 8.84889984130859 17.3697605133057 9.04890060424805 C 17.4897613525391 9.1289005279541 17.6030941009521 9.22223377227783 17.7097606658936 9.32889938354492 C 18.1230926513672 9.74223327636719 18.3297595977783 10.2288999557495 18.3297595977783 10.7889003753662 C 18.3297595977783 11.4822330474854 18.0697593688965 12.1422328948975 17.5497608184814 12.7688999176025 C 16.803092956543 13.6622333526611 15.7230930328369 14.1089000701904 14.309760093689 14.1089000701904 C 13.0697603225708 14.1089000701904 12.2097606658936 13.7622327804565 11.7297601699829 13.0689001083374 C 11.5430936813354 12.8022327423096 11.4497604370117 12.502233505249 11.4497604370117 12.1688995361328 C 11.4497604370117 11.5155668258667 11.7030935287476 11.0955667495728 12.2097606658936 10.908899307251 C 12.3297605514526 10.8689002990723 12.4497604370117 10.8488998413086 12.5697603225708 10.8488998413086 C 13.0097599029541 10.915566444397 13.2564268112183 11.1489000320435 13.309760093689 11.5488996505737 C 13.309760093689 11.962233543396 13.1297607421875 12.2688999176025 12.7697601318359 12.4688997268677 C 12.5564270019531 12.6022329330444 12.316427230835 12.6489000320435 12.0497608184814 12.6089000701904 C 12.356427192688 13.3155660629272 13.1164264678955 13.6688995361328 14.3297605514526 13.6688995361328 C 15.7030935287476 13.6688995361328 16.6030941009521 13.1688995361328 17.0297603607178 12.1688995361328 C 17.1364269256592 11.915566444397 17.1897602081299 11.6822338104248 17.1897602081299 11.4688997268677 C 17.1897602081299 10.8289003372192 16.7964267730713 10.3888998031616 16.0097599029541 10.1489000320435 L 15.9897603988647 10.1489000320435 C 15.7897605895996 10.0955667495728 15.4964265823364 10.0289001464844 15.1097602844238 9.94890022277832 C 13.9097604751587 9.69556713104248 13.2364273071289 9.16223335266113 13.0897598266602 8.34889984130859 C 13.0630931854248 8.22889995574951 13.0497608184814 8.10223388671875 13.0497608184814 7.96889972686768 C 13.0497608184814 7.30223321914673 13.303092956543 6.68223333358765 13.809760093689 6.10890007019043 C 14.4364261627197 5.40223407745361 15.309760093689 5.04889965057373 16.429759979248 5.04889965057373 Z " fill = "black" />
<path d="M 25.4247589111328 5.48890018463135 C 24.7314262390137 5.48890018463135 24.0714263916016 5.94223356246948 23.4447593688965 6.84889984130859 C 23.3247604370117 7.02223348617554 23.21142578125 7.20890045166016 23.1047592163086 7.40889978408813 C 22.7180938720703 8.1822338104248 22.3914260864258 9.28223419189453 22.1247596740723 10.7089004516602 C 22.0447597503662 11.1622333526611 22.0047588348389 11.5222330093384 22.0047588348389 11.7889003753662 C 22.0047588348389 12.6955661773682 22.258092880249 13.2822332382202 22.7647590637207 13.5488996505737 C 22.9114265441895 13.6288995742798 23.0847587585449 13.6688995361328 23.2847595214844 13.6688995361328 C 24.0314254760742 13.6688995361328 24.7847595214844 13.1955661773682 25.5447597503662 12.2488994598389 C 25.7314262390137 12.0355663299561 25.8580932617188 11.8155670166016 25.9247589111328 11.5888996124268 L 25.9247589111328 11.5689001083374 C 25.9380912780762 11.5422334671021 25.9447593688965 11.5222339630127 25.9447593688965 11.5088996887207 L 26.9447593688965 7.58890008926392 C 26.9847602844238 7.38890027999878 27.0047588348389 7.27556705474854 27.0047588348389 7.24889993667603 C 27.0047588348389 6.96889972686768 26.8847579956055 6.62890005111694 26.6447601318359 6.22889995574951 C 26.3514251708984 5.73556709289551 25.9447593688965 5.48890018463135 25.4247589111328 5.48890018463135 Z M 25.4047584533691 5.04889965057373 C 26.2180919647217 5.04889965057373 26.8314247131348 5.47556686401367 27.244758605957 6.32889986038208 C 27.3114261627197 5.87556743621826 27.5180931091309 5.59556674957275 27.8647594451904 5.48890018463135 C 27.9314250946045 5.462233543396 28.0047588348389 5.44890022277832 28.0847587585449 5.44890022277832 C 28.4314270019531 5.44890022277832 28.6247596740723 5.6289005279541 28.6647605895996 5.98890018463135 C 28.664758682251 6.06890058517456 28.618091583252 6.29556703567505 28.5247592926025 6.66890001296997 L 27.804759979248 9.46889972686768 C 27.6047592163086 10.3088998794556 27.4580917358398 10.9089002609253 27.3647594451904 11.2688999176025 C 27.1914253234863 11.962233543396 27.1047592163086 12.45556640625 27.1047592163086 12.7488994598389 C 27.1047592163086 13.3622331619263 27.304759979248 13.6688995361328 27.7047595977783 13.6688995361328 C 28.21142578125 13.6688995361328 28.6380920410156 13.1355667114258 28.9847602844238 12.0689001083374 C 29.0514259338379 11.8422336578369 29.1314258575439 11.5488996505737 29.2247581481934 11.1888999938965 C 29.3314247131348 10.962233543396 29.4247589111328 10.8422336578369 29.5047588348389 10.8288993835449 C 29.664758682251 10.8289003372192 29.744758605957 10.8955669403076 29.744758605957 11.0289001464844 C 29.744758605957 11.2288999557495 29.6247596740723 11.6955661773682 29.3847579956055 12.4288997650146 C 29.3047580718994 12.6555662155151 29.2247581481934 12.8488998413086 29.1447601318359 13.0088996887207 C 28.7714252471924 13.7422332763672 28.2780914306641 14.1089000701904 27.664758682251 14.1089000701904 C 26.9180927276611 14.1089000701904 26.3780918121338 13.7888994216919 26.0447597503662 13.1489000320435 C 25.9514255523682 12.9889001846313 25.8847579956055 12.8088998794556 25.8447589874268 12.6089000701904 C 25.0047588348389 13.6089000701904 24.1380920410156 14.1089000701904 23.244758605957 14.1089000701904 C 22.244758605957 14.1089000701904 21.5047588348389 13.6555662155151 21.0247592926025 12.7488994598389 C 20.7314262390137 12.2155666351318 20.5847587585449 11.6022338867188 20.5847587585449 10.908899307251 C 20.5847587585449 9.46890068054199 21.0847587585449 8.13556671142578 22.0847587585449 6.90889978408813 C 23.0180931091309 5.78889942169189 24.0314254760742 5.17556667327881 25.1247596740723 5.0689001083374 C 25.2180938720703 5.05556678771973 25.3114261627197 5.04889965057373 25.4047584533691 5.04889965057373 Z " fill = "black" />
<path d="M 35.9965591430664 5.48890018463135 C 35.3032264709473 5.48890018463135 34.6432266235352 5.94223356246948 34.0165596008301 6.84889984130859 C 33.8965606689453 7.02223348617554 33.7832260131836 7.20890045166016 33.6765594482422 7.40889978408813 C 33.2898941040039 8.1822338104248 32.9632263183594 9.28223419189453 32.6965599060059 10.7089004516602 C 32.6165580749512 11.1622333526611 32.5765609741211 11.5222330093384 32.5765609741211 11.7889003753662 C 32.5765609741211 12.6955661773682 32.8298950195313 13.2822332382202 33.3365592956543 13.5488996505737 C 33.483226776123 13.6288995742798 33.6565589904785 13.6688995361328 33.856559753418 13.6688995361328 C 34.6032257080078 13.6688995361328 35.356559753418 13.1955661773682 36.1165580749512 12.2488994598389 C 36.3032264709473 12.0355663299561 36.4298934936523 11.8155670166016 36.4965591430664 11.5888996124268 L 36.4965591430664 11.5689001083374 C 36.5098915100098 11.5422334671021 36.5165596008301 11.5222339630127 36.5165596008301 11.5088996887207 L 37.5165596008301 7.58890008926392 C 37.5565605163574 7.38890027999878 37.5765609741211 7.27556705474854 37.5765609741211 7.24889993667603 C 37.5765609741211 6.96889972686768 37.4565582275391 6.62890005111694 37.2165603637695 6.22889995574951 C 36.923225402832 5.73556709289551 36.5165596008301 5.48890018463135 35.9965591430664 5.48890018463135 Z M 40.4165573120117 0.00889968872070313 C 40.5898933410645 0.00889968872070313 40.6765594482422 0.0822334289550781 40.6765594482422 0.228899970650673 L 37.796558380127 11.7889003753662 C 37.7165603637695 12.1222333908081 37.6765594482422 12.4422330856323 37.6765594482422 12.7488994598389 C 37.6765594482422 13.3622331619263 37.8765602111816 13.6688995361328 38.2765579223633 13.6688995361328 C 38.7832260131836 13.6688995361328 39.2098922729492 13.1355667114258 39.5565605163574 12.0689001083374 C 39.6232261657715 11.8422336578369 39.7032241821289 11.5488996505737 39.796558380127 11.1888999938965 C 39.9032249450684 10.962233543396 39.9965591430664 10.8422336578369 40.0765609741211 10.8288993835449 C 40.2365570068359 10.8289003372192 40.3165588378906 10.8955669403076 40.3165588378906 11.0289001464844 C 40.3165588378906 11.2288999557495 40.1965599060059 11.6955661773682 39.9565582275391 12.4288997650146 C 39.8765563964844 12.6555662155151 39.796558380127 12.8488998413086 39.7165603637695 13.0088996887207 C 39.3432235717773 13.7422332763672 38.8498916625977 14.1089000701904 38.2365608215332 14.1089000701904 C 37.4898910522461 14.1089000701904 36.949893951416 13.7888994216919 36.6165580749512 13.1489000320435 C 36.5232238769531 12.9889001846313 36.4565582275391 12.8088998794556 36.416561126709 12.6089000701904 C 35.5765609741211 13.6089000701904 34.7098922729492 14.1089000701904 33.8165588378906 14.1089000701904 C 32.8165588378906 14.1089000701904 32.0765609741211 13.6555662155151 31.5965595245361 12.7488994598389 C 31.3032264709473 12.2155666351318 31.1565589904785 11.6022338867188 31.1565589904785 10.908899307251 C 31.1565589904785 9.46890068054199 31.6565589904785 8.13556671142578 32.6565589904785 6.90889978408813 C 33.5898933410645 5.78889942169189 34.6032257080078 5.17556667327881 35.6965599060059 5.0689001083374 C 35.7898941040039 5.05556678771973 35.8832244873047 5.04889965057373 35.9765586853027 5.04889965057373 C 36.7898941040039 5.04889965057373 37.4032249450684 5.47556686401367 37.8165588378906 6.32889986038208 L 39.0165596008301 1.58889961242676 L 39.0765609741211 1.18889999389648 C 39.0765609741211 1.04223346710205 38.983226776123 0.94890022277832 38.796558380127 0.908900260925293 C 38.6365585327148 0.868900299072266 38.3965606689453 0.84890079498291 38.0765609741211 0.848899722099304 C 37.7832260131836 0.84890079498291 37.6232261657715 0.768900871276855 37.5965576171875 0.60890007019043 C 37.5965576171875 0.382233619689941 37.6898918151855 0.25556755065918 37.8765602111816 0.228899970650673 C 39.1298904418945 0.0822334289550781 39.9765586853027 0.00889968872070313 40.4165573120117 0.00889968872070313 Z " fill = "black" />
<path d="M 46.786319732666 5.04889965057373 C 47.8396530151367 5.04889965057373 48.5663185119629 5.37556743621826 48.9663200378418 6.02890014648438 C 49.0996513366699 6.25556707382202 49.1663208007813 6.50223350524902 49.1663208007813 6.76889991760254 C 49.1663208007813 7.36890029907227 48.9396514892578 7.72890043258667 48.4863204956055 7.84889984130859 C 48.4063186645508 7.87556648254395 48.3263168334961 7.88889980316162 48.2463188171387 7.88889980316162 C 47.8729858398438 7.83556699752808 47.6663208007813 7.64223384857178 47.6263198852539 7.30889987945557 C 47.6263198852539 6.94890022277832 47.8063201904297 6.68223333358765 48.1663208007813 6.50890016555786 C 48.2996520996094 6.44223356246948 48.4396514892578 6.40890026092529 48.5863189697266 6.40889978408813 C 48.3063201904297 5.82223415374756 47.7063179016113 5.5155668258667 46.786319732666 5.48890018463135 C 45.7063179016113 5.48890018463135 44.9996528625488 5.89556694030762 44.6663208007813 6.708899974823 C 44.5863189697266 6.90890026092529 44.5463180541992 7.10223388671875 44.5463180541992 7.28889989852905 C 44.5463180541992 7.80889987945557 44.8663177490234 8.16223335266113 45.5063171386719 8.34889984130859 L 45.5263175964355 8.36890029907227 C 45.6196517944336 8.39556694030762 45.7996520996094 8.43556594848633 46.0663185119629 8.48889923095703 C 46.8929862976074 8.66223335266113 47.4463195800781 8.84889984130859 47.726318359375 9.04890060424805 C 47.846321105957 9.1289005279541 47.9596519470215 9.22223377227783 48.0663185119629 9.32889938354492 C 48.4796524047852 9.74223327636719 48.6863174438477 10.2288999557495 48.6863174438477 10.7889003753662 C 48.6863174438477 11.4822330474854 48.4263191223145 12.1422328948975 47.9063186645508 12.7688999176025 C 47.1596527099609 13.6622333526611 46.0796508789063 14.1089000701904 44.6663208007813 14.1089000701904 C 43.4263191223145 14.1089000701904 42.5663185119629 13.7622327804565 42.0863189697266 13.0689001083374 C 41.8996505737305 12.8022327423096 41.8063201904297 12.502233505249 41.8063201904297 12.1688995361328 C 41.8063201904297 11.5155668258667 42.0596542358398 11.0955667495728 42.5663185119629 10.908899307251 C 42.6863174438477 10.8689002990723 42.8063201904297 10.8488998413086 42.9263191223145 10.8488998413086 C 43.3663177490234 10.915566444397 43.6129875183105 11.1489000320435 43.6663208007813 11.5488996505737 C 43.6663208007813 11.962233543396 43.4863204956055 12.2688999176025 43.1263198852539 12.4688997268677 C 42.9129867553711 12.6022329330444 42.6729850769043 12.6489000320435 42.4063186645508 12.6089000701904 C 42.7129859924316 13.3155660629272 43.4729843139648 13.6688995361328 44.6863174438477 13.6688995361328 C 46.0596542358398 13.6688995361328 46.9596519470215 13.1688995361328 47.3863182067871 12.1688995361328 C 47.4929847717285 11.915566444397 47.5463180541992 11.6822338104248 47.5463180541992 11.4688997268677 C 47.5463180541992 10.8289003372192 47.1529846191406 10.3888998031616 46.3663177490234 10.1489000320435 L 46.346321105957 10.1489000320435 C 46.1463203430176 10.0955667495728 45.8529853820801 10.0289001464844 45.4663200378418 9.94890022277832 C 44.2663192749023 9.69556713104248 43.5929870605469 9.16223335266113 43.4463195800781 8.34889984130859 C 43.4196510314941 8.22889995574951 43.4063186645508 8.10223388671875 43.4063186645508 7.96889972686768 C 43.4063186645508 7.30223321914673 43.6596527099609 6.68223333358765 44.1663208007813 6.10890007019043 C 44.7929840087891 5.40223407745361 45.6663208007813 5.04889965057373 46.786319732666 5.04889965057373 Z " fill = "black" />

</svg>

