<?xml version="1.0" encoding="UTF-8" ?>
<svg xmlns="http://www.w3.org/2000/svg" version="1.1" >
<path d="M 10.8347101211548 -0.211099624633789 C 11.5280427932739 -0.211098670959473 12.0347099304199 0.0155677795410156 12.3547096252441 0.468899756669998 C 12.5013761520386 0.668900489807129 12.5747098922729 0.902234077453613 12.5747098922729 1.16890048980713 C 12.5747098922729 1.70223331451416 12.3480434417725 2.0689001083374 11.8947095870972 2.26889991760254 C 11.7613754272461 2.33556652069092 11.6213760375977 2.36890029907227 11.4747095108032 2.36890029907227 C 11.0880422592163 2.36890029907227 10.8480424880981 2.20223331451416 10.7547101974487 1.86890041828156 C 10.7413759231567 1.80223369598389 10.7347087860107 1.73556804656982 10.7347097396851 1.66890037059784 C 10.7347087860107 1.25556659698486 10.9213762283325 0.94890022277832 11.2947101593018 0.748900532722473 C 11.4413757324219 0.655567169189453 11.614709854126 0.60223388671875 11.8147096633911 0.588900566101074 C 11.5613765716553 0.34890079498291 11.2347097396851 0.228900909423828 10.8347101211548 0.228900045156479 C 10.4213762283325 0.228900909423828 10.10804271698 0.455567359924316 9.89470958709717 0.908900260925293 C 9.80137634277344 1.09556674957275 9.64137649536133 1.78890037536621 9.41471004486084 2.98890018463135 L 8.99470996856689 5.26889991760254 L 10.654709815979 5.26889991760254 C 10.9880428314209 5.26889991760254 11.1680431365967 5.34223365783691 11.194709777832 5.48890018463135 C 11.194709777832 5.72889995574951 11.0880432128906 5.86223316192627 10.8747100830078 5.88889980316162 L 10.8547096252441 5.88889980316162 L 10.5947093963623 5.88889980316162 L 8.87471008300781 5.88889980316162 L 7.67470979690552 12.2288999557495 C 7.55470943450928 13.0555667877197 7.31470966339111 14.002233505249 6.95471000671387 15.0689001083374 C 6.82137632369995 15.45556640625 6.68804264068604 15.7822332382202 6.55470991134644 16.048900604248 C 6.08804321289063 17.0355663299561 5.50804281234741 17.6488990783691 4.81471014022827 17.8889007568359 C 4.64137649536133 17.95556640625 4.46804332733154 17.988899230957 4.29471015930176 17.988899230957 C 3.62804317474365 17.988899230957 3.13470983505249 17.7622337341309 2.81471014022827 17.3088989257813 C 2.66804313659668 17.1089000701904 2.59470987319946 16.8755664825439 2.59470987319946 16.6089000701904 C 2.59470987319946 16.0755653381348 2.82137680053711 15.7088994979858 3.27471017837524 15.5088996887207 C 3.408043384552 15.4422330856323 3.5480432510376 15.408899307251 3.69470977783203 15.408899307251 C 4.08137655258179 15.408899307251 4.32137680053711 15.5755662918091 4.41471004486084 15.908899307251 C 4.42804336547852 15.9755668640137 4.43471002578735 16.0422325134277 4.43471002578735 16.1089000701904 C 4.43471002578735 16.5622329711914 4.23470973968506 16.8822326660156 3.83471012115479 17.0688991546631 C 3.68804311752319 17.1355667114258 3.52137660980225 17.1755657196045 3.33471012115479 17.1888999938965 C 3.58804321289063 17.4288997650146 3.908043384552 17.548900604248 4.29471015930176 17.548900604248 C 4.88137674331665 17.548900604248 5.34137630462646 16.8955669403076 5.67470979690552 15.5888996124268 C 5.7413763999939 15.2822332382202 5.82137632369995 14.8822326660156 5.91471004486084 14.3888998031616 L 6.03470993041992 13.7888994216919 L 7.53470993041992 5.88889980316162 L 6.21470975875854 5.88889980316162 C 5.88137626647949 5.88889980316162 5.70137643814087 5.83556652069092 5.67470979690552 5.72889995574951 L 5.654709815979 5.72889995574951 L 5.654709815979 5.64890003204346 C 5.654709815979 5.42223358154297 5.76804304122925 5.29556655883789 5.99470996856689 5.26889991760254 L 6.25470972061157 5.26889991760254 L 7.63470983505249 5.26889991760254 C 7.95470952987671 3.60223293304443 8.17470932006836 2.55556678771973 8.29471015930176 2.1289005279541 C 8.69470977783203 0.795567512512207 9.40137672424316 0.0289011001586914 10.4147100448608 -0.171099632978439 C 10.5613765716553 -0.197765350341797 10.7013759613037 -0.211098670959473 10.8347101211548 -0.211099624633789 Z " fill = "black" />
<rect x="0" y="22.01907" width="12.86114" height="0.79998" />
<path d="M 4.33999967575073 27.5380821228027 L 4.61999988555908 27.5380821228027 L 14.4200000762939 27.5380821228027 C 14.7399997711182 27.5380821228027 14.9133319854736 27.5847473144531 14.9399995803833 27.6780815124512 L 14.960000038147 27.6780815124512 C 14.986665725708 27.7580814361572 14.986665725708 27.891414642334 14.960000038147 28.0780811309814 L 14.5599994659424 31.5380821228027 C 14.4666662216187 31.844747543335 14.3733329772949 32.0114135742188 14.2799997329712 32.0380821228027 C 14.1199998855591 32.0380821228027 14.039999961853 31.958080291748 14.039999961853 31.7980804443359 C 14.039999961853 31.7314147949219 14.0533332824707 31.6114158630371 14.0799999237061 31.4380798339844 C 14.1199989318848 31.0780811309814 14.1399984359741 30.7180824279785 14.1399993896484 30.358081817627 C 14.1399984359741 29.4647483825684 13.9133319854736 28.8714141845703 13.460000038147 28.5780811309814 L 13.4399995803833 28.5580806732178 C 13.0133323669434 28.2914142608643 12.2733316421509 28.1580810546875 11.2199993133545 28.1580810546875 L 8.57999992370605 28.1580810546875 C 8.08666610717773 28.1580810546875 7.79333257675171 28.2314147949219 7.69999980926514 28.3780822753906 L 7.67999982833862 28.3780822753906 L 7.67999982833862 28.3980808258057 C 7.63999938964844 28.4514141082764 7.60666608810425 28.5314140319824 7.57999992370605 28.6380805969238 L 7.57999992370605 28.6580810546875 L 7.55999994277954 28.6780815124512 C 7.54666614532471 28.7314147949219 7.52666616439819 28.8180809020996 7.5 28.9380798339844 L 6.21999979019165 34.0180816650391 L 8.03999996185303 34.0180816650391 C 9.01333332061768 34.0180816650391 9.66666603088379 33.8380813598633 10 33.4780807495117 L 10.0199995040894 33.458080291748 C 10.2466659545898 33.2047500610352 10.446665763855 32.7514152526855 10.6199998855591 32.0980796813965 C 10.6866655349731 31.844747543335 10.7866659164429 31.7047462463379 10.9200000762939 31.6780815124512 C 11.0666656494141 31.6780815124512 11.1466655731201 31.7514152526855 11.1599998474121 31.8980808258057 C 11.1599998474121 31.9647483825684 11.1399993896484 32.0714149475098 11.0999994277954 32.2180786132813 L 10 36.5580825805664 C 9.86666679382324 36.8247489929199 9.76666641235352 36.9647483825684 9.69999980926514 36.9780807495117 C 9.53999996185303 36.9780807495117 9.46000003814697 36.898078918457 9.46000003814697 36.7380790710449 C 9.46000003814697 36.6847457885742 9.47999954223633 36.6114120483398 9.51999950408936 36.5180816650391 C 9.61333274841309 36.1180801391602 9.65999984741211 35.7914123535156 9.65999984741211 35.5380821228027 C 9.65999984741211 35.1514129638672 9.51333332061768 34.8980827331543 9.22000026702881 34.7780799865723 C 8.96666622161865 34.6847457885742 8.55999946594238 34.6380805969238 8 34.6380805969238 L 6.05999994277954 34.6380805969238 L 4.81999969482422 39.6180801391602 C 4.76666641235352 39.8180809020996 4.73999977111816 39.9714126586914 4.73999977111816 40.0780792236328 C 4.73999977111816 40.2647476196289 4.82666635513306 40.3780822753906 5 40.4180793762207 C 5.09333324432373 40.4447479248047 5.21999979019165 40.4647483825684 5.38000011444092 40.4780807495117 C 5.71333312988281 40.5047454833984 6.05999946594238 40.5180816650391 6.42000007629395 40.5180816650391 C 6.75333309173584 40.5180816650391 6.94000005722046 40.5247459411621 6.98000001907349 40.5380821228027 L 7.07999992370605 40.6780815124512 C 7.09333324432373 40.7047462463379 7.09999990463257 40.7314147949219 7.09999990463257 40.7580795288086 C 7.09999990463257 41.0114135742188 6.96000003814697 41.1380805969238 6.67999982833862 41.1380805969238 L 3.72000002861023 41.0780792236328 L 3.69999980926514 41.0780792236328 L 1.07999992370605 41.1380805969238 L 1.06000006198883 41.1380805969238 C 0.859999895095825 41.1380805969238 0.759999930858612 41.0580787658691 0.759999990463257 40.898078918457 C 0.759999930858612 40.6714134216309 0.866666555404663 40.5447463989258 1.07999992370605 40.5180816650391 L 1.3199999332428 40.5180816650391 C 2.18666648864746 40.5180816650391 2.70666646957397 40.424747467041 2.87999987602234 40.2380790710449 C 2.95999979972839 40.1447486877441 3.03999996185303 39.958080291748 3.11999988555908 39.6780815124512 C 3.1199996471405 39.6647491455078 3.12666630744934 39.6314125061035 3.1399998664856 39.5780792236328 L 5.77999973297119 28.9980812072754 C 5.84666633605957 28.7580814361572 5.87999963760376 28.5980796813965 5.87999963760376 28.5180816650391 C 5.87999963760376 28.2914142608643 5.57333278656006 28.1714134216309 4.96000003814697 28.1580810546875 L 4.94000005722046 28.1580810546875 L 4.57999992370605 28.1580810546875 C 4.23333311080933 28.1580810546875 4.04666662216187 28.0847473144531 4.01999998092651 27.9380798339844 C 4.01999998092651 27.6980819702148 4.12666654586792 27.5647487640381 4.33999967575073 27.5380821228027 Z " fill = "black" />

</svg>

