<?xml version="1.0" encoding="UTF-8" ?>
<svg xmlns="http://www.w3.org/2000/svg" version="1.1" >
<path d="M 5.6399998664856 5.48890018463135 C 4.94666624069214 5.48890018463135 4.28666639328003 5.94223356246948 3.65999984741211 6.84889984130859 C 3.53999996185303 7.02223348617554 3.42666673660278 7.20890045166016 3.3199999332428 7.40889978408813 C 2.93333339691162 8.1822338104248 2.60666656494141 9.28223419189453 2.33999991416931 10.7089004516602 C 2.25999975204468 11.1622333526611 2.21999979019165 11.5222330093384 2.22000002861023 11.7889003753662 C 2.21999979019165 12.6955661773682 2.47333335876465 13.2822332382202 2.98000001907349 13.5488996505737 C 3.12666630744934 13.6288995742798 3.29999971389771 13.6688995361328 3.5 13.6688995361328 C 4.246666431427 13.6688995361328 4.99999952316284 13.1955661773682 5.75999975204468 12.2488994598389 C 5.94666624069214 12.0355663299561 6.07333278656006 11.8155670166016 6.1399998664856 11.5888996124268 L 6.1399998664856 11.5689001083374 C 6.15333271026611 11.5422334671021 6.15999937057495 11.5222339630127 6.15999984741211 11.5088996887207 L 7.15999984741211 7.58890008926392 C 7.19999980926514 7.38890027999878 7.21999979019165 7.27556705474854 7.21999979019165 7.24889993667603 C 7.21999979019165 6.96889972686768 7.09999942779541 6.62890005111694 6.85999965667725 6.22889995574951 C 6.56666660308838 5.73556709289551 6.15999984741211 5.48890018463135 5.6399998664856 5.48890018463135 Z M 5.61999988555908 5.04889965057373 C 6.43333292007446 5.04889965057373 7.04666614532471 5.47556686401367 7.46000003814697 6.32889986038208 C 7.52666616439819 5.87556743621826 7.73333263397217 5.59556674957275 8.07999992370605 5.48890018463135 C 8.14666557312012 5.462233543396 8.21999931335449 5.44890022277832 8.30000019073486 5.44890022277832 C 8.64666652679443 5.44890022277832 8.84000015258789 5.6289005279541 8.88000011444092 5.98890018463135 C 8.8799991607666 6.06890058517456 8.83333301544189 6.29556703567505 8.73999977111816 6.66890001296997 L 8.01999950408936 9.46889972686768 C 7.81999921798706 10.3088998794556 7.67333269119263 10.9089002609253 7.57999992370605 11.2688999176025 C 7.40666627883911 11.962233543396 7.31999969482422 12.45556640625 7.31999969482422 12.7488994598389 C 7.31999969482422 13.3622331619263 7.51999950408936 13.6688995361328 7.91999959945679 13.6688995361328 C 8.42666625976563 13.6688995361328 8.85333251953125 13.1355667114258 9.19999980926514 12.0689001083374 C 9.26666641235352 11.8422336578369 9.34666633605957 11.5488996505737 9.4399995803833 11.1888999938965 C 9.54666519165039 10.962233543396 9.63999938964844 10.8422336578369 9.71999931335449 10.8288993835449 C 9.8799991607666 10.8289003372192 9.96000003814697 10.8955669403076 9.96000003814697 11.0289001464844 C 9.96000003814697 11.2288999557495 9.84000015258789 11.6955661773682 9.59999942779541 12.4288997650146 C 9.51999855041504 12.6555662155151 9.43999862670898 12.8488998413086 9.35999965667725 13.0088996887207 C 8.98666572570801 13.7422332763672 8.493332862854 14.1089000701904 7.87999963760376 14.1089000701904 C 7.1333327293396 14.1089000701904 6.59333276748657 13.7888994216919 6.25999975204468 13.1489000320435 C 6.16666603088379 12.9889001846313 6.09999942779541 12.8088998794556 6.05999994277954 12.6089000701904 C 5.21999931335449 13.6089000701904 4.35333299636841 14.1089000701904 3.46000003814697 14.1089000701904 C 2.46000003814697 14.1089000701904 1.71999979019165 13.6555662155151 1.24000000953674 12.7488994598389 C 0.946666598320007 12.2155666351318 0.799999892711639 11.6022338867188 0.799999952316284 10.908899307251 C 0.799999892711639 9.46890068054199 1.29999995231628 8.13556671142578 2.29999995231628 6.90889978408813 C 3.23333311080933 5.78889942169189 4.246666431427 5.17556667327881 5.33999967575073 5.0689001083374 C 5.43333339691162 5.05556678771973 5.52666664123535 5.04889965057373 5.61999988555908 5.04889965057373 Z " fill = "black" />
<path d="M 16.5918006896973 5.04889965057373 C 17.645133972168 5.04889965057373 18.3717994689941 5.37556743621826 18.771800994873 6.02890014648438 C 18.9051322937012 6.25556707382202 18.9717998504639 6.50223350524902 18.9717998504639 6.76889991760254 C 18.9717998504639 7.36890029907227 18.7451324462891 7.72890043258667 18.2917995452881 7.84889984130859 C 18.211799621582 7.87556648254395 18.131799697876 7.88889980316162 18.0517997741699 7.88889980316162 C 17.678466796875 7.83556699752808 17.4717998504639 7.64223384857178 17.4318008422852 7.30889987945557 C 17.4318008422852 6.94890022277832 17.6117992401123 6.68223333358765 17.9717998504639 6.50890016555786 C 18.1051330566406 6.44223356246948 18.2451324462891 6.40890026092529 18.3917999267578 6.40889978408813 C 18.1117992401123 5.82223415374756 17.5117988586426 5.5155668258667 16.5918006896973 5.48890018463135 C 15.5117998123169 5.48890018463135 14.8051338195801 5.89556694030762 14.4717998504639 6.708899974823 C 14.3917999267578 6.90890026092529 14.3517999649048 7.10223388671875 14.3517999649048 7.28889989852905 C 14.3517999649048 7.80889987945557 14.671799659729 8.16223335266113 15.3118000030518 8.34889984130859 L 15.3318004608154 8.36890029907227 C 15.4251337051392 8.39556694030762 15.6051330566406 8.43556594848633 15.8717994689941 8.48889923095703 C 16.6984672546387 8.66223335266113 17.2518005371094 8.84889984130859 17.5317993164063 9.04890060424805 C 17.6518001556396 9.1289005279541 17.7651329040527 9.22223377227783 17.8717994689941 9.32889938354492 C 18.2851333618164 9.74223327636719 18.4917984008789 10.2288999557495 18.4918003082275 10.7889003753662 C 18.4917984008789 11.4822330474854 18.2318000793457 12.1422328948975 17.711799621582 12.7688999176025 C 16.9651336669922 13.6622333526611 15.8851327896118 14.1089000701904 14.4717998504639 14.1089000701904 C 13.2318000793457 14.1089000701904 12.3718004226685 13.7622327804565 11.8917999267578 13.0689001083374 C 11.7051334381104 12.8022327423096 11.6118001937866 12.502233505249 11.6118001937866 12.1688995361328 C 11.6118001937866 11.5155668258667 11.8651332855225 11.0955667495728 12.3718004226685 10.908899307251 C 12.4918003082275 10.8689002990723 12.6118001937866 10.8488998413086 12.7318000793457 10.8488998413086 C 13.1718006134033 10.915566444397 13.4184665679932 11.1489000320435 13.4717998504639 11.5488996505737 C 13.4717998504639 11.962233543396 13.2917995452881 12.2688999176025 12.9317998886108 12.4688997268677 C 12.718466758728 12.6022329330444 12.4784669876099 12.6489000320435 12.2118005752563 12.6089000701904 C 12.5184669494629 13.3155660629272 13.2784671783447 13.6688995361328 14.4918003082275 13.6688995361328 C 15.8651332855225 13.6688995361328 16.7651329040527 13.1688995361328 17.1917991638184 12.1688995361328 C 17.2984657287598 11.915566444397 17.3517990112305 11.6822338104248 17.3517990112305 11.4688997268677 C 17.3517990112305 10.8289003372192 16.9584655761719 10.3888998031616 16.1718006134033 10.1489000320435 L 16.1518001556396 10.1489000320435 C 15.9517993927002 10.0955667495728 15.6584663391113 10.0289001464844 15.2718000411987 9.94890022277832 C 14.0718002319336 9.69556713104248 13.3984661102295 9.16223335266113 13.2518005371094 8.34889984130859 C 13.225133895874 8.22889995574951 13.211799621582 8.10223388671875 13.211799621582 7.96889972686768 C 13.211799621582 7.30223321914673 13.4651336669922 6.68223333358765 13.9717998504639 6.10890007019043 C 14.5984668731689 5.40223407745361 15.4717998504639 5.04889965057373 16.5918006896973 5.04889965057373 Z " fill = "black" />
<path d="M 29.2467994689941 -0.211099624633789 C 29.9401321411133 -0.211098670959473 30.4468002319336 0.0155677795410156 30.7667999267578 0.468899756669998 C 30.9134674072266 0.668900489807129 30.9868011474609 0.902234077453613 30.9868011474609 1.16890048980713 C 30.9868011474609 1.70223331451416 30.7601337432861 2.0689001083374 30.3068008422852 2.26889991760254 C 30.1734657287598 2.33556652069092 30.0334663391113 2.36890029907227 29.8867988586426 2.36890029907227 C 29.5001335144043 2.36890029907227 29.2601318359375 2.20223331451416 29.1668014526367 1.86890041828156 C 29.1534652709961 1.80223369598389 29.1467990875244 1.73556804656982 29.146800994873 1.66890037059784 C 29.1467990875244 1.25556659698486 29.3334655761719 0.94890022277832 29.7068004608154 0.748900532722473 C 29.8534660339355 0.655567169189453 30.0268001556396 0.60223388671875 30.2267990112305 0.588900566101074 C 29.9734668731689 0.34890079498291 29.646800994873 0.228900909423828 29.2467994689941 0.228900045156479 C 28.8334655761719 0.228900909423828 28.520133972168 0.455567359924316 28.3068008422852 0.908900260925293 C 28.2134666442871 1.09556674957275 28.053466796875 1.78890037536621 27.8267993927002 2.98890018463135 L 27.4067993164063 5.26889991760254 L 29.0667991638184 5.26889991760254 C 29.4001331329346 5.26889991760254 29.5801334381104 5.34223365783691 29.6068000793457 5.48890018463135 C 29.6068000793457 5.72889995574951 29.5001335144043 5.86223316192627 29.2868003845215 5.88889980316162 L 29.2667999267578 5.88889980316162 L 29.006799697876 5.88889980316162 L 27.2868003845215 5.88889980316162 L 26.086799621582 12.2288999557495 C 25.9668006896973 13.0555667877197 25.7267990112305 14.002233505249 25.3668003082275 15.0689001083374 C 25.2334671020508 15.45556640625 25.1001319885254 15.7822332382202 24.9668006896973 16.048900604248 C 24.5001335144043 17.0355663299561 23.9201335906982 17.6488990783691 23.2268009185791 17.8889007568359 C 23.053466796875 17.95556640625 22.8801326751709 17.988899230957 22.7068004608154 17.988899230957 C 22.0401344299316 17.988899230957 21.5468006134033 17.7622337341309 21.2268009185791 17.3088989257813 C 21.0801334381104 17.1089000701904 21.006799697876 16.8755664825439 21.006799697876 16.6089000701904 C 21.006799697876 16.0755653381348 21.2334671020508 15.7088994979858 21.6868000030518 15.5088996887207 C 21.8201332092285 15.4422330856323 21.960132598877 15.408899307251 22.1068000793457 15.408899307251 C 22.4934673309326 15.408899307251 22.7334671020508 15.5755662918091 22.8267993927002 15.908899307251 C 22.8401336669922 15.9755668640137 22.8467998504639 16.0422325134277 22.8467998504639 16.1089000701904 C 22.8467998504639 16.5622329711914 22.646800994873 16.8822326660156 22.2467994689941 17.0688991546631 C 22.100133895874 17.1355667114258 21.9334659576416 17.1755657196045 21.7467994689941 17.1888999938965 C 22.0001335144043 17.4288997650146 22.3201332092285 17.548900604248 22.7068004608154 17.548900604248 C 23.2934665679932 17.548900604248 23.7534675598145 16.8955669403076 24.086799621582 15.5888996124268 C 24.1534671783447 15.2822332382202 24.2334671020508 14.8822326660156 24.3268013000488 14.3888998031616 L 24.4468002319336 13.7888994216919 L 25.9468002319336 5.88889980316162 L 24.6268005371094 5.88889980316162 C 24.2934665679932 5.88889980316162 24.1134662628174 5.83556652069092 24.086799621582 5.72889995574951 L 24.0667991638184 5.72889995574951 L 24.0667991638184 5.64890003204346 C 24.0667991638184 5.42223358154297 24.1801338195801 5.29556655883789 24.4067993164063 5.26889991760254 L 24.6667995452881 5.26889991760254 L 26.0468006134033 5.26889991760254 C 26.3668003082275 3.60223293304443 26.586799621582 2.55556678771973 26.7068004608154 2.1289005279541 C 27.1068000793457 0.795567512512207 27.8134670257568 0.0289011001586914 28.8268013000488 -0.171099632978439 C 28.9734668731689 -0.197765350341797 29.1134662628174 -0.211098670959473 29.2467994689941 -0.211099624633789 Z " fill = "black" />

</svg>

