<?xml version="1.0" encoding="UTF-8" ?>
<svg xmlns="http://www.w3.org/2000/svg" version="1.1" >
<path d="M 4.42000007629395 24.9568939208984 C 5.4466667175293 24.9568939208984 6.16666650772095 25.4635620117188 6.57999992370605 26.4768943786621 C 7.00666618347168 25.6502285003662 7.57333278656006 25.1568946838379 8.27999973297119 24.9968948364258 C 8.41333293914795 24.9702281951904 8.54666614532471 24.9568939208984 8.67999935150146 24.9568939208984 C 9.46666622161865 24.9568939208984 10.0199995040894 25.1768951416016 10.3400001525879 25.6168937683105 C 10.4733333587646 25.8035621643066 10.5399990081787 26.0235614776611 10.539999961853 26.2768936157227 C 10.5399990081787 26.8235607147217 10.2933330535889 27.1902275085449 9.80000019073486 27.3768939971924 C 9.68000030517578 27.4168949127197 9.56666660308838 27.4368953704834 9.46000003814697 27.4368934631348 C 9.04666614532471 27.4368953704834 8.79999923706055 27.2568950653076 8.72000026702881 26.8968944549561 C 8.70666694641113 26.8435611724854 8.69999980926514 26.7902278900146 8.69999980926514 26.7368946075439 C 8.69999980926514 26.3368949890137 8.89333343505859 26.0235614776611 9.27999973297119 25.7968940734863 C 9.39999961853027 25.7302284240723 9.52666664123535 25.6835613250732 9.65999984741211 25.6568946838379 C 9.3799991607666 25.4835624694824 9.04666614532471 25.3968944549561 8.65999984741211 25.3968944549561 C 7.75333309173584 25.3968944549561 7.11333274841309 26.1035614013672 6.73999977111816 27.5168952941895 C 6.71333312988281 27.5968952178955 6.69333267211914 27.6768951416016 6.67999982833862 27.756893157959 L 6 30.4968948364258 C 5.77333307266235 31.4035606384277 5.65999984741211 31.9902267456055 5.65999984741211 32.256893157959 C 5.65999984741211 32.9502258300781 5.90666627883911 33.3702278137207 6.39999961853027 33.5168952941895 C 6.50666618347168 33.5568923950195 6.62666606903076 33.5768928527832 6.75999975204468 33.5768928527832 C 7.42666625976563 33.5768928527832 8.03333282470703 33.2435607910156 8.57999992370605 32.5768928527832 C 8.9399995803833 32.1502265930176 9.21999931335449 31.6102275848389 9.42000007629395 30.9568939208984 C 9.45999908447266 30.8102283477783 9.54666519165039 30.7368946075439 9.67999935150146 30.7368946075439 C 9.84000015258789 30.7368946075439 9.92000007629395 30.803560256958 9.92000007629395 30.9368934631348 C 9.92000007629395 31.270227432251 9.71333312988281 31.7502269744873 9.30000019073486 32.376895904541 C 8.57999992370605 33.4702262878418 7.72000026702881 34.0168952941895 6.71999979019165 34.0168952941895 C 5.81333255767822 34.0168952941895 5.15333271026611 33.6368942260742 4.73999977111816 32.876895904541 C 4.65999984741211 32.756893157959 4.59999942779541 32.6302261352539 4.55999994277954 32.4968948364258 C 4.23999977111816 33.1368942260742 3.79999971389771 33.5835609436035 3.24000000953674 33.8368949890137 C 2.98666667938232 33.9568939208984 2.72666645050049 34.0168952941895 2.46000003814697 34.0168952941895 C 1.6599999666214 34.0168952941895 1.09999990463257 33.783561706543 0.779999911785126 33.31689453125 C 0.646666646003723 33.1435623168945 0.579999923706055 32.9368934631348 0.579999983310699 32.6968955993652 C 0.579999923706055 32.2035598754883 0.793333292007446 31.8568935394287 1.21999990940094 31.6568946838379 C 1.36666655540466 31.5768947601318 1.51999998092651 31.5368938446045 1.67999994754791 31.5368938446045 C 2.07999992370605 31.5368938446045 2.31999969482422 31.7035598754883 2.39999985694885 32.0368957519531 C 2.41333293914795 32.1035614013672 2.41999959945679 32.1702270507813 2.41999983787537 32.2368927001953 C 2.41999959945679 32.6902275085449 2.1933331489563 33.0235595703125 1.74000000953674 33.2368927001953 C 1.6599999666214 33.2768936157227 1.57333326339722 33.3035621643066 1.48000001907349 33.31689453125 C 1.75999987125397 33.4902267456055 2.09333324432373 33.5768928527832 2.48000001907349 33.5768928527832 C 3.18666648864746 33.5768928527832 3.746666431427 33.1035614013672 4.15999984741211 32.1568946838379 C 4.23999977111816 31.9568939208984 4.31333303451538 31.7368946075439 4.38000011444092 31.4968948364258 C 5.09999990463257 28.7768936157227 5.46000003814697 27.1902275085449 5.46000003814697 26.7368946075439 C 5.37999963760376 25.9102268218994 5.01999950408936 25.4635620117188 4.38000011444092 25.3968944549561 C 3.68666648864746 25.3968944549561 3.0533332824707 25.7502288818359 2.48000001907349 26.4568939208984 L 2.48000001907349 26.4768943786621 C 2.48000001907349 26.4902267456055 2.47333335876465 26.4968948364258 2.46000003814697 26.4968948364258 C 2.25999975204468 26.7635612487793 2.07999992370605 27.0702285766602 1.91999983787537 27.4168949127197 C 1.85333323478699 27.5768947601318 1.79333329200745 27.7368946075439 1.74000000953674 27.8968944549561 L 1.69999992847443 28.0168952941895 C 1.67333316802979 28.1635608673096 1.58666658401489 28.2368946075439 1.43999993801117 28.2368946075439 C 1.27999985218048 28.2368946075439 1.19999980926514 28.1702270507813 1.19999992847443 28.0368938446045 C 1.19999980926514 27.7035617828369 1.41333317756653 27.223560333252 1.83999991416931 26.5968933105469 C 2.55999994277954 25.5035610198975 3.41999983787537 24.9568939208984 4.42000007629395 24.9568939208984 Z " fill = "black" />
<path d="M 18.7861309051514 30.3368949890137 L 30.726131439209 30.3368949890137 C 31.1527976989746 30.3368949890137 31.3794651031494 30.4702281951904 31.4061317443848 30.7368946075439 C 31.4061317443848 31.0035610198975 31.1861305236816 31.1368942260742 30.7461318969727 31.1368942260742 L 18.7661323547363 31.1368942260742 C 18.3394641876221 31.1368942260742 18.1194648742676 31.0035610198975 18.1061325073242 30.7368946075439 C 18.1061325073242 30.4702281951904 18.3327980041504 30.3368949890137 18.7861309051514 30.3368949890137 Z M 18.7661323547363 26.4568939208984 L 30.7461318969727 26.4568939208984 C 31.1727981567383 26.4568939208984 31.3927974700928 26.5902271270752 31.4061317443848 26.8568935394287 C 31.4061317443848 27.1235618591309 31.17946434021 27.256893157959 30.726131439209 27.256893157959 L 18.7861309051514 27.256893157959 C 18.3594646453857 27.256893157959 18.1327972412109 27.1235618591309 18.1061325073242 26.8568935394287 C 18.1061325073242 26.5902271270752 18.3261318206787 26.4568939208984 18.7661323547363 26.4568939208984 Z " fill = "black" />
<path d="M 40.4173240661621 14.866735458374 L 51.3173217773438 14.866735458374 C 51.7439880371094 14.866735458374 51.9639892578125 15.0000686645508 51.9773254394531 15.2667350769043 C 51.9773254394531 15.5334014892578 51.75732421875 15.6667356491089 51.3173217773438 15.6667346954346 L 40.4173240661621 15.6667346954346 C 39.9906578063965 15.6667356491089 39.7706565856934 15.5334014892578 39.75732421875 15.2667350769043 C 39.75732421875 15.0000686645508 39.9773254394531 14.866735458374 40.4173240661621 14.866735458374 Z " fill = "black" />
<path d="M 59.2529411315918 11.866735458374 C 58.4529418945313 11.866735458374 57.6529426574707 12.4000692367554 56.8529434204102 13.4667358398438 C 56.7462768554688 13.6000690460205 56.6462745666504 13.833402633667 56.5529441833496 14.1667346954346 L 56.1129417419434 16.0067348480225 C 55.8996086120605 16.8467350006104 55.7929420471191 17.5200691223145 55.7929420471191 18.0267353057861 C 55.7929420471191 19.1734008789063 56.1396102905273 19.833402633667 56.8329429626465 20.0067348480225 C 56.9262771606445 20.0334014892578 57.0262756347656 20.0467357635498 57.132942199707 20.0467357635498 C 57.8396072387695 20.0467357635498 58.4996109008789 19.5800685882568 59.1129417419434 18.6467342376709 C 59.2462768554688 18.4467353820801 59.3729438781738 18.226734161377 59.4929428100586 17.9867343902588 C 59.8529434204102 17.2267360687256 60.1529426574707 16.2000694274902 60.3929443359375 14.9067354202271 C 60.4729423522949 14.4400691986084 60.5129432678223 14.0534019470215 60.5129432678223 13.7467346191406 C 60.5129432678223 12.6800689697266 60.1862754821777 12.0667352676392 59.5329437255859 11.9067354202271 L 59.5129432678223 11.8867349624634 C 59.4329414367676 11.8734016418457 59.3462753295898 11.866735458374 59.2529411315918 11.866735458374 Z M 58.1729431152344 6.38673496246338 C 58.3462753295898 6.38673496246338 58.4329414367676 6.46006870269775 58.4329414367676 6.60673522949219 L 56.9529418945313 12.6267356872559 C 57.7262763977051 11.826735496521 58.506275177002 11.4267349243164 59.2929420471191 11.4267349243164 C 60.2929420471191 11.4267349243164 61.039608001709 11.8867359161377 61.5329437255859 12.8067350387573 C 61.8129425048828 13.3400688171387 61.9529418945313 13.9467353820801 61.9529418945313 14.6267356872559 C 61.9529418945313 16.0400695800781 61.4596099853516 17.3600692749023 60.4729423522949 18.5867347717285 C 59.5529403686523 19.7200679779053 58.539608001709 20.3467350006104 57.4329414367676 20.4667358398438 C 57.3262748718262 20.4800682067871 57.2262763977051 20.4867343902588 57.132942199707 20.4867343902588 C 56.1729431152344 20.4867343902588 55.4596099853516 20.0400676727295 54.9929428100586 19.1467342376709 C 54.7262763977051 18.6400680541992 54.5929412841797 18.0400695800781 54.5929412841797 17.3467350006104 C 54.5929412841797 16.8934020996094 54.6996078491211 16.2200679779053 54.9129409790039 15.3267345428467 L 56.5529441833496 8.80673503875732 C 56.7396087646484 8.02006912231445 56.8329429626465 7.6067361831665 56.8329429626465 7.56673526763916 C 56.8329429626465 7.42006874084473 56.7396087646484 7.326735496521 56.5529441833496 7.28673553466797 C 56.3929443359375 7.24673557281494 56.1529426574707 7.22673606872559 55.8329429626465 7.22673511505127 C 55.539608001709 7.22673606872559 55.3796081542969 7.14673614501953 55.3529434204102 6.98673534393311 C 55.3529434204102 6.76006889343262 55.4796104431152 6.62673568725586 55.7329406738281 6.58673572540283 L 58.1729431152344 6.38673496246338 Z " fill = "black" />
<path d="M 74.4607391357422 6.94673538208008 C 74.7274017333984 6.94673538208008 74.8607406616211 7.18673610687256 74.8607406616211 7.66673564910889 L 74.8607406616211 13.2067356109619 L 80.4407424926758 13.2067356109619 C 80.8674087524414 13.2067356109619 81.08740234375 13.3400688171387 81.1007385253906 13.6067352294922 C 81.1007385253906 13.87340259552 80.8807373046875 14.0067358016968 80.4407424926758 14.0067348480225 L 74.8607406616211 14.0067348480225 L 74.8607406616211 19.4667358398438 L 80.4407424926758 19.4667358398438 C 80.8674087524414 19.4667358398438 81.08740234375 19.6000690460205 81.1007385253906 19.866735458374 C 81.1007385253906 20.1334018707275 80.8807373046875 20.2667350769043 80.4407424926758 20.2667350769043 L 68.4607391357422 20.2667350769043 C 68.0340728759766 20.2667350769043 67.8140716552734 20.1334018707275 67.8007431030273 19.866735458374 C 67.8007431030273 19.6000690460205 68.0207366943359 19.4667358398438 68.4607391357422 19.4667358398438 L 74.0607376098633 19.4667358398438 L 74.0607376098633 14.0067348480225 L 68.4607391357422 14.0067348480225 C 68.0340728759766 14.0067358016968 67.8140716552734 13.87340259552 67.8007431030273 13.6067352294922 C 67.8007431030273 13.3400688171387 68.0207366943359 13.2067356109619 68.4607391357422 13.2067356109619 L 74.0607376098633 13.2067356109619 L 74.0607376098633 7.58673572540283 C 74.0607376098633 7.18673610687256 74.1940765380859 6.97340202331543 74.4607391357422 6.94673538208008 Z " fill = "black" />
<path d="M 106.680816650391 0.799960017204285 C 106.907485961914 0.799960076808929 107.040817260742 0.933293402194977 107.08081817627 1.19995999336243 C 107.080810546875 1.26662659645081 107.034149169922 1.38662672042847 106.940818786621 1.55996000766754 L 96.0008163452148 24.399959564209 C 95.8808135986328 24.6266250610352 95.7674865722656 24.7532920837402 95.6608123779297 24.7799606323242 L 95.6408157348633 24.7799606323242 L 95.6208190917969 24.7799606323242 C 95.5408172607422 24.7932929992676 95.3874816894531 24.7999591827393 95.1608123779297 24.7999591827393 L 90.6008148193359 14.1799602508545 L 89.1808166503906 15.2599601745605 L 88.8808135986328 14.9399604797363 L 91.6608200073242 12.7999601364136 L 95.9208145141602 22.7199592590332 L 106.240814208984 1.19995999336243 C 106.347480773926 0.959960043430328 106.494148254395 0.826626718044281 106.680816650391 0.799960017204285 Z " fill = "black" />
<rect x="106.68088" y="0.79998" width="69.7548635555555" height="0.79998" />
<path d="M 112.280876159668 11.866735458374 C 111.480880737305 11.866735458374 110.680877685547 12.4000692367554 109.880874633789 13.4667358398438 C 109.774208068848 13.6000690460205 109.674209594727 13.833402633667 109.580879211426 14.1667346954346 L 109.14087677002 16.0067348480225 C 108.927543640137 16.8467350006104 108.820877075195 17.5200691223145 108.820877075195 18.0267353057861 C 108.820877075195 19.1734008789063 109.167541503906 19.833402633667 109.860877990723 20.0067348480225 C 109.954208374023 20.0334014892578 110.054214477539 20.0467357635498 110.16088104248 20.0467357635498 C 110.867546081543 20.0467357635498 111.527542114258 19.5800685882568 112.14087677002 18.6467342376709 C 112.274208068848 18.4467353820801 112.40087890625 18.226734161377 112.520874023438 17.9867343902588 C 112.880874633789 17.2267360687256 113.180877685547 16.2000694274902 113.420875549316 14.9067354202271 C 113.500877380371 14.4400691986084 113.540878295898 14.0534019470215 113.540878295898 13.7467346191406 C 113.540878295898 12.6800689697266 113.214210510254 12.0667352676392 112.560874938965 11.9067354202271 L 112.540878295898 11.8867349624634 C 112.460876464844 11.8734016418457 112.374214172363 11.866735458374 112.280876159668 11.866735458374 Z M 111.200874328613 6.38673496246338 C 111.374206542969 6.38673496246338 111.460876464844 6.46006870269775 111.460876464844 6.60673522949219 L 109.980880737305 12.6267356872559 C 110.754211425781 11.826735496521 111.534210205078 11.4267349243164 112.320877075195 11.4267349243164 C 113.320877075195 11.4267349243164 114.067543029785 11.8867359161377 114.560874938965 12.8067350387573 C 114.840881347656 13.3400688171387 114.980880737305 13.9467353820801 114.980880737305 14.6267356872559 C 114.980880737305 16.0400695800781 114.48754119873 17.3600692749023 113.500877380371 18.5867347717285 C 112.580879211426 19.7200679779053 111.567543029785 20.3467350006104 110.460876464844 20.4667358398438 C 110.354209899902 20.4800682067871 110.254211425781 20.4867343902588 110.16088104248 20.4867343902588 C 109.200874328613 20.4867343902588 108.48754119873 20.0400676727295 108.020874023438 19.1467342376709 C 107.754211425781 18.6400680541992 107.620880126953 18.0400695800781 107.620880126953 17.3467350006104 C 107.620880126953 16.8934020996094 107.727546691895 16.2200679779053 107.940879821777 15.3267345428467 L 109.580879211426 8.80673503875732 C 109.767547607422 8.02006912231445 109.860877990723 7.6067361831665 109.860877990723 7.56673526763916 C 109.860877990723 7.42006874084473 109.767547607422 7.326735496521 109.580879211426 7.28673553466797 C 109.420875549316 7.24673557281494 109.180877685547 7.22673606872559 108.860877990723 7.22673511505127 C 108.567543029785 7.22673606872559 108.40754699707 7.14673614501953 108.380874633789 6.98673534393311 C 108.380874633789 6.76006889343262 108.507545471191 6.62673568725586 108.760879516602 6.58673572540283 L 111.200874328613 6.38673496246338 Z " fill = "black" />
<path d="M 118.582221984863 5.16495513916016 C 119.60888671875 5.16495513916016 120.406890869141 5.51028919219971 120.976219177246 6.20095539093018 C 121.302886962891 6.60228872299194 121.489555358887 7.07828855514526 121.536224365234 7.62895536422729 C 121.545555114746 7.71295547485352 121.550224304199 7.79695558547974 121.550224304199 7.8809552192688 C 121.550224304199 8.56228923797607 121.293556213379 9.21095561981201 120.780220031738 9.82695579528809 C 120.509552001953 10.1442890167236 120.089553833008 10.5642890930176 119.520217895508 11.0869550704956 L 118.666221618652 11.8429555892944 L 118.526222229004 11.9689559936523 L 117.042221069336 13.4109554290771 L 119.562225341797 13.4109554290771 C 120.38355255127 13.4109554290771 120.826889038086 13.3736219406128 120.892219543457 13.2989559173584 C 120.985557556152 13.1682891845703 121.088218688965 12.7529554367065 121.200218200684 12.0529556274414 L 121.550224304199 12.0529556274414 L 121.158218383789 14.4889554977417 L 115.964218139648 14.4889554977417 C 115.964218139648 14.2556219100952 115.992218017578 14.1062889099121 116.048217773438 14.0409555435181 L 116.118217468262 13.9709558486938 L 118.806221008301 10.9749555587769 C 119.786224365234 9.87362194061279 120.276222229004 8.84228897094727 120.276222229004 7.8809552192688 C 120.276222229004 7.05028915405273 120.024223327637 6.42028903961182 119.520217895508 5.9909553527832 L 119.506217956543 5.97695541381836 L 119.492218017578 5.97695541381836 C 119.193557739258 5.72495555877686 118.829551696777 5.59895515441895 118.40022277832 5.59895515441895 C 117.728218078613 5.59895515441895 117.191551208496 5.8882884979248 116.790222167969 6.46695518493652 C 116.67822265625 6.63495540618896 116.584884643555 6.82162189483643 116.510223388672 7.02695512771606 C 116.538223266602 7.01762199401855 116.59888458252 7.01295566558838 116.692222595215 7.01295518875122 C 117.065551757813 7.01295566558838 117.303558349609 7.18095588684082 117.406219482422 7.51695537567139 L 117.406219482422 7.53095531463623 C 117.42488861084 7.59628868103027 117.434219360352 7.66628885269165 117.434219360352 7.7409553527832 C 117.434219360352 8.11428833007813 117.256889343262 8.3522891998291 116.902221679688 8.45495510101318 C 116.82755279541 8.47362232208252 116.762222290039 8.48295593261719 116.70622253418 8.48295593261719 C 116.360885620117 8.48295593261719 116.132217407227 8.33828926086426 116.020217895508 8.0489559173584 C 115.982887268066 7.9462890625 115.964218139648 7.82962226867676 115.964218139648 7.69895505905151 C 115.964218139648 6.9802885055542 116.239555358887 6.36428928375244 116.790222167969 5.85095500946045 C 117.284889221191 5.39362239837646 117.882217407227 5.16495513916016 118.582221984863 5.16495513916016 Z " fill = "black" />
<path d="M 129.528701782227 14.866735458374 L 140.428695678711 14.866735458374 C 140.855361938477 14.866735458374 141.07536315918 15.0000686645508 141.08869934082 15.2667350769043 C 141.08869934082 15.5334014892578 140.868698120117 15.6667356491089 140.428695678711 15.6667346954346 L 129.528701782227 15.6667346954346 C 129.102035522461 15.6667356491089 128.882034301758 15.5334014892578 128.868698120117 15.2667350769043 C 128.868698120117 15.0000686645508 129.08869934082 14.866735458374 129.528701782227 14.866735458374 Z " fill = "black" />
<path d="M 153.208786010742 8.88673496246338 L 148.32878112793 16.3467350006104 L 153.208786010742 16.3467350006104 L 153.208786010742 8.88673496246338 Z M 154.308792114258 6.72673511505127 C 154.495452880859 6.72673606872559 154.602111816406 6.80006980895996 154.628784179688 6.94673538208008 L 154.628784179688 7.24673557281494 L 154.628784179688 16.3467350006104 L 156.628784179688 16.3467350006104 L 156.628784179688 16.9667358398438 L 154.628784179688 16.9667358398438 L 154.628784179688 18.7067356109619 C 154.628784179688 19.1200675964355 154.708786010742 19.3734016418457 154.868789672852 19.4667358398438 C 155.055450439453 19.5867347717285 155.482116699219 19.6467342376709 156.148788452148 19.6467342376709 L 156.568786621094 19.6467342376709 L 156.568786621094 20.2667350769043 C 156.022125244141 20.226734161377 155.115447998047 20.2067356109619 153.848785400391 20.2067356109619 C 152.595458984375 20.2067356109619 151.695449829102 20.226734161377 151.148788452148 20.2667350769043 L 151.148788452148 19.6467342376709 L 151.568786621094 19.6467342376709 C 152.395446777344 19.6467342376709 152.875457763672 19.5334014892578 153.0087890625 19.3067359924316 C 153.062118530273 19.2134017944336 153.088790893555 19.0134010314941 153.088790893555 18.7067356109619 L 153.088790893555 16.9667358398438 L 147.768783569336 16.9667358398438 L 147.768783569336 16.3467350006104 L 153.908782958984 6.96673583984375 C 154.01545715332 6.80673599243164 154.148788452148 6.72673606872559 154.308792114258 6.72673511505127 Z " fill = "black" />
<path d="M 162.848815917969 11.866735458374 C 162.155487060547 11.866735458374 161.495483398438 12.320068359375 160.86882019043 13.2267351150513 C 160.748809814453 13.4000682830811 160.635482788086 13.5867357254028 160.528823852539 13.786735534668 C 160.142150878906 14.5600690841675 159.815490722656 15.6600685119629 159.548812866211 17.0867347717285 C 159.468811035156 17.5400695800781 159.428817749023 17.9000682830811 159.428817749023 18.1667346954346 C 159.428817749023 19.0734024047852 159.682144165039 19.6600685119629 160.188812255859 19.9267349243164 C 160.335479736328 20.0067348480225 160.508819580078 20.0467357635498 160.70881652832 20.0467357635498 C 161.455490112305 20.0467357635498 162.20881652832 19.5734024047852 162.968811035156 18.6267356872559 C 163.155487060547 18.413402557373 163.282150268555 18.1934013366699 163.348815917969 17.9667358398438 L 163.348815917969 17.9467353820801 C 163.362152099609 17.9200687408447 163.36882019043 17.9000682830811 163.36882019043 17.8867359161377 L 164.36882019043 13.9667358398438 C 164.408813476563 13.7667350769043 164.428817749023 13.6534023284912 164.428817749023 13.6267356872559 C 164.428817749023 13.3467350006104 164.308822631836 13.0067348480225 164.068817138672 12.6067352294922 C 163.775482177734 12.1134023666382 163.36882019043 11.866735458374 162.848815917969 11.866735458374 Z M 162.828811645508 11.4267349243164 C 163.642150878906 11.4267349243164 164.255477905273 11.8534021377563 164.668823242188 12.7067356109619 C 164.735488891602 12.2534027099609 164.942153930664 11.9734020233154 165.288818359375 11.866735458374 C 165.355484008789 11.8400688171387 165.428817749023 11.826735496521 165.508819580078 11.826735496521 C 165.855484008789 11.826735496521 166.048812866211 12.0067358016968 166.088821411133 12.366735458374 C 166.088821411133 12.4467353820801 166.042144775391 12.6734027862549 165.948822021484 13.0467357635498 L 165.228820800781 15.8467350006104 C 165.02880859375 16.6867351531982 164.88215637207 17.286735534668 164.788818359375 17.6467361450195 C 164.615478515625 18.3400688171387 164.52880859375 18.833402633667 164.52880859375 19.1267356872559 C 164.52880859375 19.7400684356689 164.728820800781 20.0467357635498 165.128814697266 20.0467357635498 C 165.635482788086 20.0467357635498 166.062149047852 19.5134010314941 166.408813476563 18.4467353820801 C 166.475479125977 18.2200679779053 166.555480957031 17.9267349243164 166.648818969727 17.5667343139648 C 166.755477905273 17.3400688171387 166.848815917969 17.2200679779053 166.928817749023 17.2067356109619 C 167.088821411133 17.2067356109619 167.168823242188 17.273401260376 167.168823242188 17.4067344665527 C 167.168823242188 17.6067352294922 167.048812866211 18.0734024047852 166.808822631836 18.8067359924316 C 166.728820800781 19.0334014892578 166.648818969727 19.226734161377 166.568817138672 19.3867359161377 C 166.19548034668 20.1200675964355 165.7021484375 20.4867343902588 165.088821411133 20.4867343902588 C 164.342147827148 20.4867343902588 163.802154541016 20.1667346954346 163.468811035156 19.5267353057861 C 163.37548828125 19.366735458374 163.308822631836 19.1867351531982 163.268814086914 18.9867343902588 C 162.428817749023 19.9867343902588 161.562149047852 20.4867343902588 160.668823242188 20.4867343902588 C 159.668823242188 20.4867343902588 158.928817749023 20.0334014892578 158.448822021484 19.1267356872559 C 158.155487060547 18.5934028625488 158.008819580078 17.9800682067871 158.008819580078 17.286735534668 C 158.008819580078 15.8467350006104 158.508819580078 14.5134019851685 159.508819580078 13.286735534668 C 160.442153930664 12.1667346954346 161.455490112305 11.5534019470215 162.548812866211 11.4467353820801 C 162.642150878906 11.4334020614624 162.735488891602 11.4267349243164 162.828811645508 11.4267349243164 Z " fill = "black" />
<path d="M 173.96061706543 11.4267349243164 C 174.987289428711 11.4267349243164 175.700622558594 11.7400684356689 176.100616455078 12.366735458374 C 176.247283935547 12.6067352294922 176.320617675781 12.866735458374 176.320617675781 13.1467351913452 C 176.320617675781 13.7334022521973 176.087295532227 14.1334018707275 175.620620727539 14.3467350006104 C 175.487289428711 14.4000682830811 175.347290039063 14.4267349243164 175.200622558594 14.4267349243164 C 174.800628662109 14.4267349243164 174.560623168945 14.2534027099609 174.480621337891 13.9067354202271 C 174.46728515625 13.8534021377563 174.46061706543 13.7934017181396 174.46061706543 13.7267351150513 C 174.46061706543 13.4334020614624 174.580627441406 13.1734018325806 174.820617675781 12.9467353820801 C 175.007293701172 12.7600688934326 175.300628662109 12.6667356491089 175.700622558594 12.6667346954346 C 175.327285766602 12.1867351531982 174.753952026367 11.9200687408447 173.980621337891 11.866735458374 C 173.113952636719 11.866735458374 172.327285766602 12.3067359924316 171.620620727539 13.1867351531982 C 171.447296142578 13.4000682830811 171.293960571289 13.6267356872559 171.160629272461 13.866735458374 C 170.627288818359 14.8400688171387 170.280624389648 15.9867353439331 170.120620727539 17.3067359924316 C 170.093963623047 17.5200691223145 170.080627441406 17.7067356109619 170.080627441406 17.866735458374 C 170.080627441406 18.9600677490234 170.453964233398 19.6467342376709 171.200622558594 19.9267349243164 C 171.387298583984 20.0067348480225 171.613952636719 20.0467357635498 171.880630493164 20.0467357635498 C 173.080627441406 20.0467357635498 174.160629272461 19.6467342376709 175.120620727539 18.8467350006104 C 175.400619506836 18.6200675964355 175.653961181641 18.3600692749023 175.880630493164 18.0667343139648 C 175.97395324707 17.9334030151367 176.060623168945 17.866735458374 176.140625 17.866735458374 C 176.260620117188 17.866735458374 176.340621948242 17.9534015655518 176.380630493164 18.1267356872559 C 176.380630493164 18.273401260376 176.153961181641 18.5600681304932 175.700622558594 18.9867343902588 C 174.593963623047 19.9867343902588 173.30729675293 20.4867343902588 171.840621948242 20.4867343902588 C 170.573959350586 20.4867343902588 169.653961181641 19.9800682067871 169.080627441406 18.9667358398438 C 168.760620117188 18.4200687408447 168.600631713867 17.8000679016113 168.600631713867 17.1067352294922 C 168.600631713867 15.7467355728149 169.120620727539 14.4867353439331 170.160629272461 13.3267345428467 C 171.187286376953 12.1800689697266 172.333953857422 11.5534019470215 173.600616455078 11.4467353820801 C 173.720626831055 11.4334020614624 173.840621948242 11.4267349243164 173.96061706543 11.4267349243164 Z " fill = "black" />
<rect x="38.0973244444444" y="28.3969055" width="138.338419111111" height="0.79998" />
<path d="M 101.720611572266 34.195915222168 C 103.187278747559 34.195915222168 104.327278137207 34.6892471313477 105.140609741211 35.6759147644043 C 105.607276916504 36.2492485046387 105.873947143555 36.9292488098145 105.940612792969 37.7159156799316 C 105.953948974609 37.8359146118164 105.96061706543 37.9559173583984 105.96061706543 38.0759162902832 C 105.96061706543 39.0492477416992 105.593948364258 39.9759140014648 104.860610961914 40.8559150695801 C 104.473945617676 41.3092498779297 103.873947143555 41.9092483520508 103.060615539551 42.6559143066406 L 101.840614318848 43.7359161376953 L 101.640609741211 43.9159164428711 L 99.5206146240234 45.9759140014648 L 103.120613098145 45.9759140014648 C 104.2939453125 45.9759140014648 104.927276611328 45.9225807189941 105.020614624023 45.8159141540527 C 105.153945922852 45.6292495727539 105.30061340332 45.0359153747559 105.46061706543 44.0359153747559 L 105.96061706543 44.0359153747559 L 105.400611877441 47.5159149169922 L 97.9806137084961 47.5159149169922 C 97.9806137084961 47.1825828552246 98.0206146240234 46.9692497253418 98.1006164550781 46.8759155273438 L 98.2006149291992 46.7759132385254 L 102.04061126709 42.4959144592285 C 103.440612792969 40.9225807189941 104.140609741211 39.4492492675781 104.140609741211 38.0759162902832 C 104.140609741211 36.8892517089844 103.780616760254 35.9892501831055 103.060615539551 35.3759155273438 L 103.04061126709 35.3559150695801 L 103.020614624023 35.3559150695801 C 102.593948364258 34.9959144592285 102.073944091797 34.8159141540527 101.46061706543 34.8159141540527 C 100.500610351563 34.8159141540527 99.7339477539063 35.229248046875 99.1606140136719 36.0559158325195 C 99.0006103515625 36.2959136962891 98.8672790527344 36.5625839233398 98.760612487793 36.8559150695801 C 98.8006134033203 36.8425827026367 98.8872833251953 36.8359146118164 99.0206146240234 36.8359146118164 C 99.5539474487305 36.8359146118164 99.8939437866211 37.0759162902832 100.04061126709 37.5559158325195 L 100.04061126709 37.5759162902832 C 100.067283630371 37.6692504882813 100.080612182617 37.7692489624023 100.080612182617 37.8759155273438 C 100.080612182617 38.4092483520508 99.827278137207 38.7492485046387 99.3206100463867 38.8959159851074 C 99.2139434814453 38.9225807189941 99.1206130981445 38.9359130859375 99.0406112670898 38.9359130859375 C 98.5472793579102 38.9359130859375 98.2206115722656 38.729248046875 98.0606155395508 38.3159141540527 C 98.0072784423828 38.1692504882813 97.9806137084961 38.0025825500488 97.9806137084961 37.8159141540527 C 97.9806137084961 36.789249420166 98.3739471435547 35.9092483520508 99.1606140136719 35.1759147644043 C 99.8672790527344 34.5225830078125 100.720611572266 34.195915222168 101.720611572266 34.195915222168 Z " fill = "black" />
<path d="M 112.620651245117 39.1159133911133 C 111.927314758301 39.1159133911133 111.267318725586 39.5692481994629 110.640655517578 40.4759140014648 C 110.520652770996 40.6492500305176 110.407318115234 40.8359146118164 110.300651550293 41.0359153747559 C 109.913986206055 41.8092498779297 109.58731842041 42.9092483520508 109.320648193359 44.3359146118164 C 109.240653991699 44.789249420166 109.200653076172 45.1492500305176 109.200653076172 45.4159164428711 C 109.200653076172 46.322582244873 109.453987121582 46.9092483520508 109.960655212402 47.1759147644043 C 110.107315063477 47.255916595459 110.280654907227 47.2959136962891 110.480651855469 47.2959136962891 C 111.227317810059 47.2959136962891 111.980651855469 46.822582244873 112.740653991699 45.8759155273438 C 112.927314758301 45.6625823974609 113.053985595703 45.4425811767578 113.120651245117 45.2159156799316 L 113.120651245117 45.195915222168 C 113.133987426758 45.1692504882813 113.140647888184 45.1492500305176 113.140655517578 45.135913848877 L 114.140655517578 41.2159156799316 C 114.180648803711 41.0159149169922 114.200653076172 40.9025802612305 114.200653076172 40.8759155273438 C 114.200653076172 40.5959167480469 114.08065032959 40.255916595459 113.84065246582 39.8559150695801 C 113.547317504883 39.3625831604004 113.140655517578 39.1159133911133 112.620651245117 39.1159133911133 Z M 112.600654602051 38.6759147644043 C 113.413986206055 38.6759147644043 114.027320861816 39.1025810241699 114.440650939941 39.9559135437012 C 114.507316589355 39.5025825500488 114.713981628418 39.2225799560547 115.060653686523 39.1159133911133 C 115.127319335938 39.0892486572266 115.200653076172 39.0759162902832 115.280654907227 39.0759162902832 C 115.627319335938 39.0759162902832 115.820648193359 39.255916595459 115.860649108887 39.6159133911133 C 115.860649108887 39.695915222168 115.813987731934 39.9225807189941 115.720649719238 40.2959136962891 L 115.000648498535 43.0959167480469 C 114.800651550293 43.9359169006348 114.653984069824 44.5359153747559 114.560653686523 44.8959159851074 C 114.387321472168 45.5892486572266 114.300651550293 46.0825805664063 114.300651550293 46.3759155273438 C 114.300651550293 46.9892501831055 114.500648498535 47.2959136962891 114.900650024414 47.2959136962891 C 115.407318115234 47.2959136962891 115.833984375 46.762580871582 116.180648803711 45.695915222168 C 116.247314453125 45.4692497253418 116.32731628418 45.1759147644043 116.420654296875 44.8159141540527 C 116.527313232422 44.5892486572266 116.620651245117 44.4692497253418 116.700653076172 44.4559135437012 C 116.860649108887 44.4559135437012 116.940650939941 44.5225830078125 116.940650939941 44.6559143066406 C 116.940650939941 44.8559150695801 116.820648193359 45.322582244873 116.58065032959 46.0559158325195 C 116.500648498535 46.2825813293457 116.420654296875 46.4759140014648 116.34065246582 46.635913848877 C 115.967315673828 47.3692474365234 115.473983764648 47.7359161376953 114.860649108887 47.7359161376953 C 114.113983154297 47.7359161376953 113.57398223877 47.4159164428711 113.240653991699 46.7759132385254 C 113.147315979004 46.6159133911133 113.08065032959 46.4359130859375 113.040649414063 46.2359161376953 C 112.200653076172 47.2359161376953 111.333984375 47.7359161376953 110.440650939941 47.7359161376953 C 109.440650939941 47.7359161376953 108.700653076172 47.2825813293457 108.220649719238 46.3759155273438 C 107.927314758301 45.8425827026367 107.780654907227 45.229248046875 107.780654907227 44.5359153747559 C 107.780654907227 43.0959167480469 108.280654907227 41.762580871582 109.280654907227 40.5359153747559 C 110.213981628418 39.4159164428711 111.227317810059 38.8025817871094 112.320648193359 38.695915222168 C 112.413986206055 38.6825828552246 112.507316589355 38.6759147644043 112.600654602051 38.6759147644043 Z " fill = "black" />

</svg>

