<?xml version="1.0" encoding="UTF-8" ?>
<svg xmlns="http://www.w3.org/2000/svg" version="1.1" >
<path d="M 29.6635208129883 -0.211099624633789 C 30.3568534851074 -0.211098670959473 30.8635196685791 0.0155677795410156 31.1835193634033 0.468899756669998 C 31.3301849365234 0.668900489807129 31.4035186767578 0.902234077453613 31.4035186767578 1.16890048980713 C 31.4035186767578 1.70223331451416 31.1768531799316 2.0689001083374 30.723518371582 2.26889991760254 C 30.5901851654053 2.33556652069092 30.4501857757568 2.36890029907227 30.3035202026367 2.36890029907227 C 29.9168510437012 2.36890029907227 29.6768531799316 2.20223331451416 29.5835189819336 1.86890041828156 C 29.5701866149902 1.80223369598389 29.5635185241699 1.73556804656982 29.5635185241699 1.66890037059784 C 29.5635185241699 1.25556659698486 29.750186920166 0.94890022277832 30.1235198974609 0.748900532722473 C 30.2701854705811 0.655567169189453 30.4435195922852 0.60223388671875 30.6435203552246 0.588900566101074 C 30.3901863098145 0.34890079498291 30.0635185241699 0.228900909423828 29.6635208129883 0.228900045156479 C 29.250186920166 0.228900909423828 28.9368515014648 0.455567359924316 28.723518371582 0.908900260925293 C 28.6301860809326 1.09556674957275 28.4701862335205 1.78890037536621 28.2435188293457 2.98890018463135 L 27.8235206604004 5.26889991760254 L 29.4835205078125 5.26889991760254 C 29.8168525695801 5.26889991760254 29.9968528747559 5.34223365783691 30.0235195159912 5.48890018463135 C 30.0235195159912 5.72889995574951 29.9168529510498 5.86223316192627 29.703519821167 5.88889980316162 L 29.6835193634033 5.88889980316162 L 29.4235191345215 5.88889980316162 L 27.703519821167 5.88889980316162 L 26.5035190582275 12.2288999557495 C 26.3835182189941 13.0555667877197 26.1435203552246 14.002233505249 25.783519744873 15.0689001083374 C 25.6501865386963 15.45556640625 25.5168533325195 15.7822332382202 25.3835201263428 16.048900604248 C 24.9168529510498 17.0355663299561 24.3368530273438 17.6488990783691 23.6435203552246 17.8889007568359 C 23.4701862335205 17.95556640625 23.2968521118164 17.988899230957 23.1235198974609 17.988899230957 C 22.4568519592285 17.988899230957 21.9635200500488 17.7622337341309 21.6435203552246 17.3088989257813 C 21.4968528747559 17.1089000701904 21.4235191345215 16.8755664825439 21.4235191345215 16.6089000701904 C 21.4235191345215 16.0755653381348 21.6501865386963 15.7088994979858 22.1035194396973 15.5088996887207 C 22.236852645874 15.4422330856323 22.3768520355225 15.408899307251 22.5235195159912 15.408899307251 C 22.9101867675781 15.408899307251 23.1501865386963 15.5755662918091 23.2435188293457 15.908899307251 C 23.2568531036377 15.9755668640137 23.2635192871094 16.0422325134277 23.2635192871094 16.1089000701904 C 23.2635192871094 16.5622329711914 23.0635185241699 16.8822326660156 22.6635189056396 17.0688991546631 C 22.5168533325195 17.1355667114258 22.3501853942871 17.1755657196045 22.1635189056396 17.1888999938965 C 22.4168529510498 17.4288997650146 22.736852645874 17.548900604248 23.1235198974609 17.548900604248 C 23.7101860046387 17.548900604248 24.1701850891113 16.8955669403076 24.5035190582275 15.5888996124268 C 24.5701866149902 15.2822332382202 24.6501865386963 14.8822326660156 24.7435188293457 14.3888998031616 L 24.8635196685791 13.7888994216919 L 26.3635196685791 5.88889980316162 L 25.0435199737549 5.88889980316162 C 24.7101860046387 5.88889980316162 24.5301856994629 5.83556652069092 24.5035190582275 5.72889995574951 L 24.4835205078125 5.72889995574951 L 24.4835205078125 5.64890003204346 C 24.4835205078125 5.42223358154297 24.5968532562256 5.29556655883789 24.8235206604004 5.26889991760254 L 25.0835189819336 5.26889991760254 L 26.4635200500488 5.26889991760254 C 26.783519744873 3.60223293304443 27.0035190582275 2.55556678771973 27.1235198974609 2.1289005279541 C 27.5235195159912 0.795567512512207 28.2301864624023 0.0289011001586914 29.2435188293457 -0.171099632978439 C 29.3901863098145 -0.197765350341797 29.5301856994629 -0.211098670959473 29.6635208129883 -0.211099624633789 Z " fill = "black" />
<path d="M 35.795238494873 5.48890018463135 C 35.1019058227539 5.48890018463135 34.4419059753418 5.94223356246948 33.8152389526367 6.84889984130859 C 33.695240020752 7.02223348617554 33.5819053649902 7.20890045166016 33.4752388000488 7.40889978408813 C 33.0885734558105 8.1822338104248 32.761905670166 9.28223419189453 32.4952392578125 10.7089004516602 C 32.4152374267578 11.1622333526611 32.3752403259277 11.5222330093384 32.3752403259277 11.7889003753662 C 32.3752403259277 12.6955661773682 32.6285705566406 13.2822332382202 33.1352386474609 13.5488996505737 C 33.2819061279297 13.6288995742798 33.4552383422852 13.6688995361328 33.6552391052246 13.6688995361328 C 34.4019050598145 13.6688995361328 35.1552391052246 13.1955661773682 35.9152374267578 12.2488994598389 C 36.1019058227539 12.0355663299561 36.228572845459 11.8155670166016 36.295238494873 11.5888996124268 L 36.295238494873 11.5689001083374 C 36.3085708618164 11.5422334671021 36.3152389526367 11.5222339630127 36.3152389526367 11.5088996887207 L 37.3152389526367 7.58890008926392 C 37.3552398681641 7.38890027999878 37.3752403259277 7.27556705474854 37.3752403259277 7.24889993667603 C 37.3752403259277 6.96889972686768 37.2552375793457 6.62890005111694 37.0152397155762 6.22889995574951 C 36.7219047546387 5.73556709289551 36.3152389526367 5.48890018463135 35.795238494873 5.48890018463135 Z M 35.7752380371094 5.04889965057373 C 36.5885734558105 5.04889965057373 37.201904296875 5.47556686401367 37.6152381896973 6.32889986038208 C 37.6819038391113 5.87556743621826 37.8885726928711 5.59556674957275 38.235237121582 5.48890018463135 C 38.3019027709961 5.462233543396 38.3752365112305 5.44890022277832 38.4552383422852 5.44890022277832 C 38.8019065856934 5.44890022277832 38.9952392578125 5.6289005279541 39.0352401733398 5.98890018463135 C 39.0352401733398 6.06890058517456 38.9885711669922 6.29556703567505 38.8952407836914 6.66890001296997 L 38.1752395629883 9.46889972686768 C 37.9752388000488 10.3088998794556 37.8285713195801 10.9089002609253 37.735237121582 11.2688999176025 C 37.5619049072266 11.962233543396 37.4752388000488 12.45556640625 37.4752388000488 12.7488994598389 C 37.4752388000488 13.3622331619263 37.6752395629883 13.6688995361328 38.0752372741699 13.6688995361328 C 38.5819053649902 13.6688995361328 39.0085716247559 13.1355667114258 39.3552398681641 12.0689001083374 C 39.4219055175781 11.8422336578369 39.5019073486328 11.5488996505737 39.5952377319336 11.1888999938965 C 39.701904296875 10.962233543396 39.795238494873 10.8422336578369 39.8752365112305 10.8288993835449 C 40.0352401733398 10.8289003372192 40.1152381896973 10.8955669403076 40.1152381896973 11.0289001464844 C 40.1152381896973 11.2288999557495 39.9952392578125 11.6955661773682 39.7552375793457 12.4288997650146 C 39.6752395629883 12.6555662155151 39.5952377319336 12.8488998413086 39.5152397155762 13.0088996887207 C 39.1419067382813 13.7422332763672 38.6485710144043 14.1089000701904 38.0352401733398 14.1089000701904 C 37.2885704040527 14.1089000701904 36.7485733032227 13.7888994216919 36.4152374267578 13.1489000320435 C 36.321907043457 12.9889001846313 36.2552375793457 12.8088998794556 36.2152404785156 12.6089000701904 C 35.3752365112305 13.6089000701904 34.5085716247559 14.1089000701904 33.6152381896973 14.1089000701904 C 32.6152381896973 14.1089000701904 31.8752384185791 13.6555662155151 31.3952388763428 12.7488994598389 C 31.1019058227539 12.2155666351318 30.9552383422852 11.6022338867188 30.9552383422852 10.908899307251 C 30.9552383422852 9.46890068054199 31.4552383422852 8.13556671142578 32.4552383422852 6.90889978408813 C 33.3885726928711 5.78889942169189 34.4019050598145 5.17556667327881 35.4952392578125 5.0689001083374 C 35.5885734558105 5.05556678771973 35.6819076538086 5.04889965057373 35.7752380371094 5.04889965057373 Z " fill = "black" />
<path d="M 46.7470397949219 5.04889965057373 C 47.8003730773926 5.04889965057373 48.5270385742188 5.37556743621826 48.9270401000977 6.02890014648438 C 49.0603713989258 6.25556707382202 49.1270370483398 6.50223350524902 49.1270370483398 6.76889991760254 C 49.1270370483398 7.36890029907227 48.9003715515137 7.72890043258667 48.4470405578613 7.84889984130859 C 48.3670387268066 7.87556648254395 48.2870407104492 7.88889980316162 48.2070388793945 7.88889980316162 C 47.8337059020996 7.83556699752808 47.6270370483398 7.64223384857178 47.5870399475098 7.30889987945557 C 47.5870399475098 6.94890022277832 47.7670402526855 6.68223333358765 48.1270370483398 6.50890016555786 C 48.2603721618652 6.44223356246948 48.4003715515137 6.40890026092529 48.5470390319824 6.40889978408813 C 48.2670402526855 5.82223415374756 47.6670379638672 5.5155668258667 46.7470397949219 5.48890018463135 C 45.6670379638672 5.48890018463135 44.9603729248047 5.89556694030762 44.6270408630371 6.708899974823 C 44.5470390319824 6.90890026092529 44.5070381164551 7.10223388671875 44.5070381164551 7.28889989852905 C 44.5070381164551 7.80889987945557 44.8270378112793 8.16223335266113 45.467041015625 8.34889984130859 L 45.4870376586914 8.36890029907227 C 45.5803718566895 8.39556694030762 45.7603721618652 8.43556594848633 46.0270385742188 8.48889923095703 C 46.8537063598633 8.66223335266113 47.407039642334 8.84889984130859 47.6870384216309 9.04890060424805 C 47.8070373535156 9.1289005279541 47.9203720092773 9.22223377227783 48.0270385742188 9.32889938354492 C 48.440372467041 9.74223327636719 48.6470375061035 10.2288999557495 48.6470375061035 10.7889003753662 C 48.6470375061035 11.4822330474854 48.3870391845703 12.1422328948975 47.8670387268066 12.7688999176025 C 47.1203727722168 13.6622333526611 46.0403709411621 14.1089000701904 44.6270408630371 14.1089000701904 C 43.3870391845703 14.1089000701904 42.5270385742188 13.7622327804565 42.0470390319824 13.0689001083374 C 41.8603744506836 12.8022327423096 41.7670402526855 12.502233505249 41.7670402526855 12.1688995361328 C 41.7670402526855 11.5155668258667 42.0203742980957 11.0955667495728 42.5270385742188 10.908899307251 C 42.6470375061035 10.8689002990723 42.7670402526855 10.8488998413086 42.8870391845703 10.8488998413086 C 43.3270378112793 10.915566444397 43.5737075805664 11.1489000320435 43.6270408630371 11.5488996505737 C 43.6270408630371 11.962233543396 43.4470405578613 12.2688999176025 43.0870399475098 12.4688997268677 C 42.873706817627 12.6022329330444 42.6337051391602 12.6489000320435 42.3670387268066 12.6089000701904 C 42.6737060546875 13.3155660629272 43.4337043762207 13.6688995361328 44.6470375061035 13.6688995361328 C 46.0203704833984 13.6688995361328 46.9203720092773 13.1688995361328 47.347038269043 12.1688995361328 C 47.4537048339844 11.915566444397 47.5070381164551 11.6822338104248 47.5070381164551 11.4688997268677 C 47.5070381164551 10.8289003372192 47.1137046813965 10.3888998031616 46.3270378112793 10.1489000320435 L 46.3070373535156 10.1489000320435 C 46.1070404052734 10.0955667495728 45.8137054443359 10.0289001464844 45.4270401000977 9.94890022277832 C 44.2270393371582 9.69556713104248 43.5537071228027 9.16223335266113 43.407039642334 8.34889984130859 C 43.38037109375 8.22889995574951 43.3670387268066 8.10223388671875 43.3670387268066 7.96889972686768 C 43.3670387268066 7.30223321914673 43.6203727722168 6.68223333358765 44.1270408630371 6.10890007019043 C 44.7537040710449 5.40223407745361 45.6270370483398 5.04889965057373 46.7470397949219 5.04889965057373 Z " fill = "black" />
<path d="M 59.4020385742188 -0.211099624633789 C 60.0953712463379 -0.211098670959473 60.6020393371582 0.0155677795410156 60.9220390319824 0.468899756669998 C 61.0687065124512 0.668900489807129 61.1420402526855 0.902234077453613 61.1420402526855 1.16890048980713 C 61.1420402526855 1.70223331451416 60.9153747558594 2.0689001083374 60.4620399475098 2.26889991760254 C 60.3287048339844 2.33556652069092 60.1887054443359 2.36890029907227 60.0420379638672 2.36890029907227 C 59.6553726196289 2.36890029907227 59.4153709411621 2.20223331451416 59.3220405578613 1.86890041828156 C 59.3087043762207 1.80223369598389 59.3020401000977 1.73556804656982 59.3020401000977 1.66890037059784 C 59.3020401000977 1.25556659698486 59.4887046813965 0.94890022277832 59.8620376586914 0.748900532722473 C 60.0087051391602 0.655567169189453 60.1820373535156 0.60223388671875 60.3820381164551 0.588900566101074 C 60.1287078857422 0.34890079498291 59.8020401000977 0.228900909423828 59.4020385742188 0.228900045156479 C 58.9887046813965 0.228900909423828 58.6753730773926 0.455567359924316 58.4620399475098 0.908900260925293 C 58.3687057495117 1.09556674957275 58.2087059020996 1.78890037536621 57.9820404052734 2.98890018463135 L 57.5620384216309 5.26889991760254 L 59.222038269043 5.26889991760254 C 59.5553741455078 5.26889991760254 59.7353744506836 5.34223365783691 59.7620391845703 5.48890018463135 C 59.7620391845703 5.72889995574951 59.6553726196289 5.86223316192627 59.4420394897461 5.88889980316162 L 59.4220390319824 5.88889980316162 L 59.1620407104492 5.88889980316162 L 57.4420394897461 5.88889980316162 L 56.2420387268066 12.2288999557495 C 56.1220397949219 13.0555667877197 55.8820381164551 14.002233505249 55.5220413208008 15.0689001083374 C 55.3887062072754 15.45556640625 55.25537109375 15.7822332382202 55.1220397949219 16.048900604248 C 54.6553726196289 17.0355663299561 54.0753707885742 17.6488990783691 53.3820381164551 17.8889007568359 C 53.2087059020996 17.95556640625 53.0353736877441 17.988899230957 52.8620376586914 17.988899230957 C 52.1953735351563 17.988899230957 51.7020378112793 17.7622337341309 51.3820381164551 17.3088989257813 C 51.2353744506836 17.1089000701904 51.1620407104492 16.8755664825439 51.1620407104492 16.6089000701904 C 51.1620407104492 16.0755653381348 51.3887062072754 15.7088994979858 51.842041015625 15.5088996887207 C 51.9753723144531 15.4422330856323 52.1153717041016 15.408899307251 52.2620391845703 15.408899307251 C 52.6487045288086 15.408899307251 52.8887062072754 15.5755662918091 52.9820404052734 15.908899307251 C 52.9953727722168 15.9755668640137 53.0020408630371 16.0422325134277 53.0020408630371 16.1089000701904 C 53.0020408630371 16.5622329711914 52.8020401000977 16.8822326660156 52.4020385742188 17.0688991546631 C 52.25537109375 17.1355667114258 52.0887069702148 17.1755657196045 51.9020385742188 17.1888999938965 C 52.1553726196289 17.4288997650146 52.4753723144531 17.548900604248 52.8620376586914 17.548900604248 C 53.4487075805664 17.548900604248 53.9087066650391 16.8955669403076 54.2420387268066 15.5888996124268 C 54.3087043762207 15.2822332382202 54.3887062072754 14.8822326660156 54.4820404052734 14.3888998031616 L 54.6020393371582 13.7888994216919 L 56.1020393371582 5.88889980316162 L 54.782039642334 5.88889980316162 C 54.4487075805664 5.88889980316162 54.2687072753906 5.83556652069092 54.2420387268066 5.72889995574951 L 54.222038269043 5.72889995574951 L 54.222038269043 5.64890003204346 C 54.222038269043 5.42223358154297 54.3353729248047 5.29556655883789 54.5620384216309 5.26889991760254 L 54.8220405578613 5.26889991760254 L 56.2020378112793 5.26889991760254 C 56.5220375061035 3.60223293304443 56.7420387268066 2.55556678771973 56.8620376586914 2.1289005279541 C 57.2620391845703 0.795567512512207 57.9687042236328 0.0289011001586914 58.9820404052734 -0.171099632978439 C 59.1287078857422 -0.197765350341797 59.2687072753906 -0.211098670959473 59.4020385742188 -0.211099624633789 Z " fill = "black" />
<path d="M 65.9137573242188 5.04889965057373 C 66.9670944213867 5.04889965057373 67.6937561035156 5.37556743621826 68.0937576293945 6.02890014648438 C 68.2270965576172 6.25556707382202 68.2937622070313 6.50223350524902 68.2937622070313 6.76889991760254 C 68.2937622070313 7.36890029907227 68.0670928955078 7.72890043258667 67.6137619018555 7.84889984130859 C 67.5337600708008 7.87556648254395 67.4537582397461 7.88889980316162 67.3737640380859 7.88889980316162 C 67.0004272460938 7.83556699752808 66.7937622070313 7.64223384857178 66.7537612915039 7.30889987945557 C 66.7537612915039 6.94890022277832 66.9337615966797 6.68223333358765 67.2937622070313 6.50890016555786 C 67.4270935058594 6.44223356246948 67.5670928955078 6.40890026092529 67.7137603759766 6.40889978408813 C 67.4337615966797 5.82223415374756 66.8337631225586 5.5155668258667 65.9137573242188 5.48890018463135 C 64.8337631225586 5.48890018463135 64.1270904541016 5.89556694030762 63.7937622070313 6.708899974823 C 63.7137603759766 6.90890026092529 63.6737594604492 7.10223388671875 63.6737594604492 7.28889989852905 C 63.6737594604492 7.80889987945557 63.9937591552734 8.16223335266113 64.6337585449219 8.34889984130859 L 64.6537628173828 8.36890029907227 C 64.7470932006836 8.39556694030762 64.9270935058594 8.43556594848633 65.1937637329102 8.48889923095703 C 66.0204238891602 8.66223335266113 66.5737609863281 8.84889984130859 66.853759765625 9.04890060424805 C 66.973762512207 9.1289005279541 67.0870971679688 9.22223377227783 67.1937637329102 9.32889938354492 C 67.6070938110352 9.74223327636719 67.8137588500977 10.2288999557495 67.8137588500977 10.7889003753662 C 67.8137588500977 11.4822330474854 67.5537567138672 12.1422328948975 67.0337600708008 12.7688999176025 C 66.2870941162109 13.6622333526611 65.2070922851563 14.1089000701904 63.7937622070313 14.1089000701904 C 62.5537605285645 14.1089000701904 61.6937599182129 13.7622327804565 61.2137603759766 13.0689001083374 C 61.0270919799805 12.8022327423096 60.9337615966797 12.502233505249 60.9337615966797 12.1688995361328 C 60.9337615966797 11.5155668258667 61.1870956420898 11.0955667495728 61.6937599182129 10.908899307251 C 61.8137588500977 10.8689002990723 61.9337615966797 10.8488998413086 62.0537605285645 10.8488998413086 C 62.4937591552734 10.915566444397 62.7404289245605 11.1489000320435 62.7937622070313 11.5488996505737 C 62.7937622070313 11.962233543396 62.6137619018555 12.2688999176025 62.2537612915039 12.4688997268677 C 62.0404281616211 12.6022329330444 61.8004264831543 12.6489000320435 61.5337600708008 12.6089000701904 C 61.8404273986816 13.3155660629272 62.6004257202148 13.6688995361328 63.8137588500977 13.6688995361328 C 65.1870956420898 13.6688995361328 66.0870971679688 13.1688995361328 66.5137634277344 12.1688995361328 C 66.6204299926758 11.915566444397 66.6737594604492 11.6822338104248 66.6737594604492 11.4688997268677 C 66.6737594604492 10.8289003372192 66.2804260253906 10.3888998031616 65.4937591552734 10.1489000320435 L 65.473762512207 10.1489000320435 C 65.2737579345703 10.0955667495728 64.9804229736328 10.0289001464844 64.5937576293945 9.94890022277832 C 63.3937606811523 9.69556713104248 62.7204284667969 9.16223335266113 62.5737609863281 8.34889984130859 C 62.5470924377441 8.22889995574951 62.5337600708008 8.10223388671875 62.5337600708008 7.96889972686768 C 62.5337600708008 7.30223321914673 62.7870941162109 6.68223333358765 63.2937622070313 6.10890007019043 C 63.9204254150391 5.40223407745361 64.7937622070313 5.04889965057373 65.9137573242188 5.04889965057373 Z " fill = "black" />
<path d="M 78.5687637329102 -0.211099624633789 C 79.262092590332 -0.211098670959473 79.7687606811523 0.0155677795410156 80.0887603759766 0.468899756669998 C 80.2354278564453 0.668900489807129 80.3087615966797 0.902234077453613 80.3087615966797 1.16890048980713 C 80.3087615966797 1.70223331451416 80.0820922851563 2.0689001083374 79.6287612915039 2.26889991760254 C 79.4954223632813 2.33556652069092 79.3554229736328 2.36890029907227 79.2087631225586 2.36890029907227 C 78.8220901489258 2.36890029907227 78.5820922851563 2.20223331451416 78.4887619018555 1.86890041828156 C 78.4754257202148 1.80223369598389 78.4687576293945 1.73556804656982 78.4687576293945 1.66890037059784 C 78.4687576293945 1.25556659698486 78.6554260253906 0.94890022277832 79.0287628173828 0.748900532722473 C 79.1754302978516 0.655567169189453 79.348762512207 0.60223388671875 79.5487594604492 0.588900566101074 C 79.2954254150391 0.34890079498291 78.9687576293945 0.228900909423828 78.5687637329102 0.228900045156479 C 78.1554260253906 0.228900909423828 77.8420944213867 0.455567359924316 77.6287612915039 0.908900260925293 C 77.5354309082031 1.09556674957275 77.3754272460938 1.78890037536621 77.1487579345703 2.98890018463135 L 76.728759765625 5.26889991760254 L 78.3887634277344 5.26889991760254 C 78.7220916748047 5.26889991760254 78.9020919799805 5.34223365783691 78.9287567138672 5.48890018463135 C 78.9287567138672 5.72889995574951 78.8220977783203 5.86223316192627 78.6087646484375 5.88889980316162 L 78.5887603759766 5.88889980316162 L 78.3287582397461 5.88889980316162 L 76.608757019043 5.88889980316162 L 75.4087600708008 12.2288999557495 C 75.2887573242188 13.0555667877197 75.0487594604492 14.002233505249 74.6887588500977 15.0689001083374 C 74.5554275512695 15.45556640625 74.4220962524414 15.7822332382202 74.2887573242188 16.048900604248 C 73.8220977783203 17.0355663299561 73.2420959472656 17.6488990783691 72.5487594604492 17.8889007568359 C 72.3754272460938 17.95556640625 72.2020950317383 17.988899230957 72.0287628173828 17.988899230957 C 71.3620910644531 17.988899230957 70.8687591552734 17.7622337341309 70.5487594604492 17.3088989257813 C 70.4020919799805 17.1089000701904 70.3287582397461 16.8755664825439 70.3287582397461 16.6089000701904 C 70.3287582397461 16.0755653381348 70.5554275512695 15.7088994979858 71.0087585449219 15.5088996887207 C 71.1420974731445 15.4422330856323 71.282096862793 15.408899307251 71.4287567138672 15.408899307251 C 71.8154296875 15.408899307251 72.0554275512695 15.5755662918091 72.1487579345703 15.908899307251 C 72.1620941162109 15.9755668640137 72.1687622070313 16.0422325134277 72.1687622070313 16.1089000701904 C 72.1687622070313 16.5622329711914 71.9687576293945 16.8822326660156 71.5687637329102 17.0688991546631 C 71.4220962524414 17.1355667114258 71.2554244995117 17.1755657196045 71.0687637329102 17.1888999938965 C 71.3220977783203 17.4288997650146 71.6420974731445 17.548900604248 72.0287628173828 17.548900604248 C 72.6154251098633 17.548900604248 73.0754241943359 16.8955669403076 73.4087600708008 15.5888996124268 C 73.4754257202148 15.2822332382202 73.5554275512695 14.8822326660156 73.6487579345703 14.3888998031616 L 73.7687606811523 13.7888994216919 L 75.2687606811523 5.88889980316162 L 73.9487609863281 5.88889980316162 C 73.6154251098633 5.88889980316162 73.4354248046875 5.83556652069092 73.4087600708008 5.72889995574951 L 73.3887634277344 5.72889995574951 L 73.3887634277344 5.64890003204346 C 73.3887634277344 5.42223358154297 73.5020904541016 5.29556655883789 73.728759765625 5.26889991760254 L 73.9887619018555 5.26889991760254 L 75.3687591552734 5.26889991760254 C 75.6887588500977 3.60223293304443 75.9087600708008 2.55556678771973 76.0287628173828 2.1289005279541 C 76.4287567138672 0.795567512512207 77.1354293823242 0.0289011001586914 78.1487579345703 -0.171099632978439 C 78.2954254150391 -0.197765350341797 78.4354248046875 -0.211098670959473 78.5687637329102 -0.211099624633789 Z " fill = "black" />
<rect x="0" y="22.01907" width="99.424" height="0.79998" />
<path d="M 9.30000019073486 27.0380821228027 C 9.993332862854 27.0380821228027 10.5 27.2647476196289 10.8199996948242 27.7180805206299 C 10.9666662216187 27.9180812835693 11.039999961853 28.1514148712158 11.039999961853 28.4180812835693 C 11.039999961853 28.9514141082764 10.8133335113525 29.3180809020996 10.3599996566772 29.5180816650391 C 10.2266654968262 29.5847473144531 10.0866661071777 29.6180801391602 9.9399995803833 29.6180801391602 C 9.55333232879639 29.6180801391602 9.31333255767822 29.4514141082764 9.22000026702881 29.1180801391602 C 9.20666599273682 29.0514144897461 9.19999885559082 28.984748840332 9.19999980926514 28.9180812835693 C 9.19999885559082 28.5047473907471 9.3866662979126 28.1980819702148 9.76000022888184 27.9980812072754 C 9.90666580200195 27.9047470092773 10.0799999237061 27.8514137268066 10.2799997329712 27.8380813598633 C 10.0266666412354 27.5980815887451 9.69999980926514 27.4780807495117 9.30000019073486 27.4780807495117 C 8.8866662979126 27.4780807495117 8.57333278656006 27.7047481536865 8.35999965667725 28.1580810546875 C 8.26666641235352 28.344747543335 8.10666656494141 29.0380821228027 7.87999963760376 30.2380809783936 L 7.46000003814697 32.5180816650391 L 9.11999988555908 32.5180816650391 C 9.45333290100098 32.5180816650391 9.63333320617676 32.5914154052734 9.65999984741211 32.7380828857422 C 9.65999984741211 32.9780807495117 9.5533332824707 33.1114120483398 9.34000015258789 33.1380805969238 L 9.31999969482422 33.1380805969238 L 9.05999946594238 33.1380805969238 L 7.33999967575073 33.1380805969238 L 6.1399998664856 39.4780807495117 C 6.01999950408936 40.3047485351563 5.77999973297119 41.2514152526855 5.42000007629395 42.3180809020996 C 5.28666639328003 42.7047462463379 5.15333271026611 43.0314140319824 5.01999998092651 43.2980804443359 C 4.5533332824707 44.2847480773926 3.97333288192749 44.898078918457 3.27999997138977 45.1380805969238 C 3.10666656494141 45.2047462463379 2.93333315849304 45.2380790710449 2.75999999046326 45.2380790710449 C 2.09333324432373 45.2380790710449 1.59999990463257 45.0114135742188 1.27999997138977 44.5580787658691 C 1.13333320617676 44.358081817627 1.05999994277954 44.1247482299805 1.05999994277954 43.858081817627 C 1.05999994277954 43.3247451782227 1.28666663169861 42.958080291748 1.74000012874603 42.7580795288086 C 1.8733332157135 42.6914138793945 2.0133330821991 42.6580810546875 2.15999984741211 42.6580810546875 C 2.54666662216187 42.6580810546875 2.78666663169861 42.8247451782227 2.87999987602234 43.1580810546875 C 2.89333319664001 43.2247467041016 2.89999985694885 43.2914123535156 2.89999985694885 43.358081817627 C 2.89999985694885 43.8114128112793 2.69999980926514 44.1314125061035 2.29999995231628 44.3180809020996 C 2.15333318710327 44.3847465515137 1.98666656017303 44.424747467041 1.79999983310699 44.4380798339844 C 2.0533332824707 44.6780815124512 2.3733332157135 44.7980804443359 2.75999999046326 44.7980804443359 C 3.34666657447815 44.7980804443359 3.80666637420654 44.1447486877441 4.1399998664856 42.8380813598633 C 4.20666646957397 42.5314140319824 4.28666639328003 42.1314125061035 4.38000011444092 41.6380805969238 L 4.5 41.0380821228027 L 6 33.1380805969238 L 4.67999982833862 33.1380805969238 C 4.34666633605957 33.1380805969238 4.16666650772095 33.0847473144531 4.1399998664856 32.9780807495117 L 4.11999988555908 32.9780807495117 L 4.11999988555908 32.898078918457 C 4.11999988555908 32.6714134216309 4.23333311080933 32.5447463989258 4.46000003814697 32.5180816650391 L 4.71999979019165 32.5180816650391 L 6.09999990463257 32.5180816650391 C 6.41999959945679 30.8514137268066 6.63999938964844 29.8047485351563 6.75999975204468 29.3780822753906 C 7.15999984741211 28.0447483062744 7.86666631698608 27.2780818939209 8.88000011444092 27.0780811309814 C 9.02666664123535 27.0514144897461 9.16666603088379 27.0380821228027 9.30000019073486 27.0380821228027 Z " fill = "black" />
<path d="M 15.4317207336426 32.7380828857422 C 14.7383861541748 32.7380828857422 14.0783863067627 33.1914138793945 13.4517202377319 34.0980796813965 C 13.3317203521729 34.2714157104492 13.2183876037598 34.458080291748 13.111720085144 34.6580810546875 C 12.7250537872314 35.4314155578613 12.3983869552612 36.5314140319824 12.1317205429077 37.958080291748 C 12.0517196655273 38.4114151000977 12.0117206573486 38.7714157104492 12.0117206573486 39.0380821228027 C 12.0117206573486 39.9447479248047 12.2650537490845 40.5314140319824 12.7717208862305 40.7980804443359 C 12.9183864593506 40.8780822753906 13.0917205810547 40.9180793762207 13.2917203903198 40.9180793762207 C 14.038387298584 40.9180793762207 14.7917194366455 40.4447479248047 15.5517196655273 39.4980812072754 C 15.7383861541748 39.2847480773926 15.8650531768799 39.0647468566895 15.9317207336426 38.8380813598633 L 15.9317207336426 38.8180809020996 C 15.9450531005859 38.7914123535156 15.9517192840576 38.7714157104492 15.9517202377319 38.7580795288086 L 16.9517211914063 34.8380813598633 C 16.991720199585 34.6380805969238 17.0117206573486 34.5247497558594 17.0117206573486 34.4980812072754 C 17.0117206573486 34.2180786132813 16.8917198181152 33.8780822753906 16.6517200469971 33.4780807495117 C 16.3583869934082 32.984748840332 15.9517202377319 32.7380828857422 15.4317207336426 32.7380828857422 Z M 15.4117202758789 32.2980804443359 C 16.2250537872314 32.2980804443359 16.8383865356445 32.7247467041016 17.2517204284668 33.5780792236328 C 17.3183860778809 33.1247482299805 17.525053024292 32.8447494506836 17.8717193603516 32.7380828857422 C 17.9383850097656 32.7114143371582 18.01171875 32.6980819702148 18.0917205810547 32.6980819702148 C 18.4383869171143 32.6980819702148 18.631721496582 32.8780822753906 18.6717205047607 33.2380828857422 C 18.6717185974121 33.3180809020996 18.6250534057617 33.5447463989258 18.5317192077637 33.9180793762207 L 17.8117198944092 36.7180786132813 C 17.6117191314697 37.5580825805664 17.4650535583496 38.1580810546875 17.3717193603516 38.5180816650391 C 17.1983871459961 39.2114143371582 17.1117210388184 39.7047462463379 17.1117210388184 39.9980812072754 C 17.1117210388184 40.6114120483398 17.3117198944092 40.9180793762207 17.7117195129395 40.9180793762207 C 18.2183876037598 40.9180793762207 18.6450538635254 40.3847465515137 18.991720199585 39.3180809020996 C 19.0583877563477 39.0914154052734 19.1383857727051 38.7980804443359 19.2317199707031 38.4380798339844 C 19.3383865356445 38.2114143371582 19.4317207336426 38.0914154052734 19.51171875 38.0780792236328 C 19.6717185974121 38.0780792236328 19.7517204284668 38.1447486877441 19.7517204284668 38.2780799865723 C 19.7517204284668 38.4780807495117 19.631721496582 38.9447479248047 19.3917198181152 39.6780815124512 C 19.3117179870605 39.9047470092773 19.2317199707031 40.0980796813965 19.1517200469971 40.2580795288086 C 18.7783851623535 40.9914131164551 18.2850532531738 41.358081817627 17.6717205047607 41.358081817627 C 16.9250526428223 41.358081817627 16.3850536346436 41.0380821228027 16.0517196655273 40.398078918457 C 15.9583864212036 40.2380790710449 15.8917198181152 40.0580825805664 15.8517208099365 39.858081817627 C 15.0117197036743 40.858081817627 14.1450538635254 41.358081817627 13.2517204284668 41.358081817627 C 12.2517204284668 41.358081817627 11.5117206573486 40.9047470092773 11.031720161438 39.9980812072754 C 10.7383871078491 39.4647483825684 10.5917205810547 38.8514137268066 10.5917205810547 38.1580810546875 C 10.5917205810547 36.7180824279785 11.0917205810547 35.3847465515137 12.0917205810547 34.1580810546875 C 13.025053024292 33.0380783081055 14.038387298584 32.424747467041 15.1317195892334 32.3180809020996 C 15.2250537872314 32.3047485351563 15.3183870315552 32.2980804443359 15.4117202758789 32.2980804443359 Z " fill = "black" />
<path d="M 26.3835201263428 32.2980804443359 C 27.4368515014648 32.2980804443359 28.1635189056396 32.6247482299805 28.5635185241699 33.2780799865723 C 28.6968536376953 33.5047492980957 28.7635192871094 33.7514152526855 28.7635192871094 34.0180816650391 C 28.7635192871094 34.6180801391602 28.5368518829346 34.9780807495117 28.0835189819336 35.0980796813965 C 28.0035190582275 35.1247482299805 27.9235191345215 35.1380805969238 27.8435192108154 35.1380805969238 C 27.4701862335205 35.0847473144531 27.2635192871094 34.891414642334 27.223518371582 34.5580825805664 C 27.223518371582 34.1980819702148 27.4035186767578 33.9314155578613 27.7635192871094 33.7580795288086 C 27.8968524932861 33.6914138793945 28.0368518829346 33.6580810546875 28.1835193634033 33.6580810546875 C 27.9035186767578 33.0714149475098 27.3035202026367 32.7647476196289 26.3835201263428 32.7380828857422 C 25.3035202026367 32.7380828857422 24.5968532562256 33.1447486877441 24.2635192871094 33.958080291748 C 24.1835193634033 34.1580810546875 24.1435203552246 34.3514137268066 24.1435203552246 34.5380821228027 C 24.1435203552246 35.0580825805664 24.4635200500488 35.4114151000977 25.1035194396973 35.5980796813965 L 25.1235198974609 35.6180801391602 C 25.216854095459 35.6447486877441 25.3968524932861 35.6847457885742 25.6635189056396 35.7380790710449 C 26.4901847839355 35.9114151000977 27.0435199737549 36.0980796813965 27.3235206604004 36.2980804443359 C 27.4435195922852 36.3780822753906 27.5568523406982 36.4714126586914 27.6635189056396 36.5780792236328 C 28.0768527984619 36.9914131164551 28.283519744873 37.4780807495117 28.283519744873 38.0380821228027 C 28.283519744873 38.7314147949219 28.0235195159912 39.391414642334 27.5035190582275 40.0180816650391 C 26.7568531036377 40.9114151000977 25.6768531799316 41.358081817627 24.2635192871094 41.358081817627 C 23.0235195159912 41.358081817627 22.1635189056396 41.0114135742188 21.6835193634033 40.3180809020996 C 21.4968528747559 40.0514144897461 21.4035186767578 39.7514152526855 21.4035186767578 39.4180793762207 C 21.4035186767578 38.7647476196289 21.656852722168 38.3447456359863 22.1635189056396 38.1580810546875 C 22.283519744873 38.1180801391602 22.4035186767578 38.0980796813965 22.5235195159912 38.0980796813965 C 22.9635200500488 38.1647491455078 23.2101860046387 38.398078918457 23.2635192871094 38.7980804443359 C 23.2635192871094 39.2114143371582 23.0835189819336 39.5180816650391 22.7235202789307 39.7180824279785 C 22.5101852416992 39.8514137268066 22.2701854705811 39.898078918457 22.0035190582275 39.858081817627 C 22.3101863861084 40.5647468566895 23.0701866149902 40.9180793762207 24.283519744873 40.9180793762207 C 25.656852722168 40.9180793762207 26.5568523406982 40.4180793762207 26.9835205078125 39.4180793762207 C 27.0901870727539 39.1647491455078 27.1435203552246 38.9314155578613 27.1435203552246 38.7180824279785 C 27.1435203552246 38.0780792236328 26.750186920166 37.6380805969238 25.9635200500488 37.398078918457 L 25.9435195922852 37.398078918457 C 25.7435188293457 37.3447494506836 25.4501857757568 37.2780799865723 25.0635185241699 37.1980819702148 C 23.8635196685791 36.9447479248047 23.190185546875 36.4114151000977 23.0435199737549 35.5980796813965 C 23.0168533325195 35.4780807495117 23.0035190582275 35.3514137268066 23.0035190582275 35.2180786132813 C 23.0035190582275 34.5514144897461 23.2568531036377 33.9314155578613 23.7635192871094 33.358081817627 C 24.3901863098145 32.6514129638672 25.2635192871094 32.2980804443359 26.3835201263428 32.2980804443359 Z " fill = "black" />
<path d="M 39.0385208129883 27.0380821228027 C 39.7318534851074 27.0380821228027 40.2385177612305 27.2647476196289 40.5585174560547 27.7180805206299 C 40.7051849365234 27.9180812835693 40.7785186767578 28.1514148712158 40.7785186767578 28.4180812835693 C 40.7785186767578 28.9514141082764 40.5518531799316 29.3180809020996 40.098518371582 29.5180816650391 C 39.9651870727539 29.5847473144531 39.8251876831055 29.6180801391602 39.6785202026367 29.6180801391602 C 39.2918510437012 29.6180801391602 39.0518531799316 29.4514141082764 38.9585189819336 29.1180801391602 C 38.9451866149902 29.0514144897461 38.9385185241699 28.984748840332 38.9385185241699 28.9180812835693 C 38.9385185241699 28.5047473907471 39.125186920166 28.1980819702148 39.4985198974609 27.9980812072754 C 39.6451873779297 27.9047470092773 39.8185195922852 27.8514137268066 40.0185203552246 27.8380813598633 C 39.7651863098145 27.5980815887451 39.4385185241699 27.4780807495117 39.0385208129883 27.4780807495117 C 38.625186920166 27.4780807495117 38.3118515014648 27.7047481536865 38.098518371582 28.1580810546875 C 38.0051879882813 28.344747543335 37.8451843261719 29.0380821228027 37.6185188293457 30.2380809783936 L 37.1985206604004 32.5180816650391 L 38.8585205078125 32.5180816650391 C 39.1918525695801 32.5180816650391 39.3718528747559 32.5914154052734 39.3985214233398 32.7380828857422 C 39.3985214233398 32.9780807495117 39.2918548583984 33.1114120483398 39.0785217285156 33.1380805969238 L 39.0585174560547 33.1380805969238 L 38.7985191345215 33.1380805969238 L 37.0785179138184 33.1380805969238 L 35.8785209655762 39.4780807495117 C 35.7585182189941 40.3047485351563 35.5185203552246 41.2514152526855 35.158519744873 42.3180809020996 C 35.0251846313477 42.7047462463379 34.8918533325195 43.0314140319824 34.7585182189941 43.2980804443359 C 34.2918548583984 44.2847480773926 33.7118530273438 44.898078918457 33.0185203552246 45.1380805969238 C 32.8451843261719 45.2047462463379 32.6718521118164 45.2380790710449 32.4985198974609 45.2380790710449 C 31.8318519592285 45.2380790710449 31.3385200500488 45.0114135742188 31.0185203552246 44.5580787658691 C 30.8718528747559 44.358081817627 30.7985191345215 44.1247482299805 30.7985191345215 43.858081817627 C 30.7985191345215 43.3247451782227 31.0251865386963 42.958080291748 31.4785194396973 42.7580795288086 C 31.611852645874 42.6914138793945 31.7518520355225 42.6580810546875 31.8985195159912 42.6580810546875 C 32.2851867675781 42.6580810546875 32.5251846313477 42.8247451782227 32.6185188293457 43.1580810546875 C 32.6318511962891 43.2247467041016 32.6385192871094 43.2914123535156 32.6385192871094 43.358081817627 C 32.6385192871094 43.8114128112793 32.4385185241699 44.1314125061035 32.0385208129883 44.3180809020996 C 31.8918533325195 44.3847465515137 31.7251853942871 44.424747467041 31.5385189056396 44.4380798339844 C 31.7918529510498 44.6780815124512 32.1118545532227 44.7980804443359 32.4985198974609 44.7980804443359 C 33.0851860046387 44.7980804443359 33.5451850891113 44.1447486877441 33.8785209655762 42.8380813598633 C 33.9451866149902 42.5314140319824 34.0251846313477 42.1314125061035 34.1185188293457 41.6380805969238 L 34.2385177612305 41.0380821228027 L 35.7385177612305 33.1380805969238 L 34.4185180664063 33.1380805969238 C 34.0851860046387 33.1380805969238 33.9051856994629 33.0847473144531 33.8785209655762 32.9780807495117 L 33.8585205078125 32.9780807495117 L 33.8585205078125 32.898078918457 C 33.8585205078125 32.6714134216309 33.971851348877 32.5447463989258 34.1985206604004 32.5180816650391 L 34.4585189819336 32.5180816650391 L 35.8385200500488 32.5180816650391 C 36.158519744873 30.8514137268066 36.3785171508789 29.8047485351563 36.4985198974609 29.3780822753906 C 36.8985214233398 28.0447483062744 37.6051864624023 27.2780818939209 38.6185188293457 27.0780811309814 C 38.7651863098145 27.0514144897461 38.9051856994629 27.0380821228027 39.0385208129883 27.0380821228027 Z " fill = "black" />
<path d="M 48.8302383422852 27.0380821228027 C 49.5235710144043 27.0380821228027 50.0302391052246 27.2647476196289 50.3502388000488 27.7180805206299 C 50.4969062805176 27.9180812835693 50.570240020752 28.1514148712158 50.570240020752 28.4180812835693 C 50.570240020752 28.9514141082764 50.3435745239258 29.3180809020996 49.8902397155762 29.5180816650391 C 49.7569046020508 29.5847473144531 49.6169052124023 29.6180801391602 49.4702377319336 29.6180801391602 C 49.0835723876953 29.6180801391602 48.8435707092285 29.4514141082764 48.7502403259277 29.1180801391602 C 48.7369041442871 29.0514144897461 48.7302398681641 28.984748840332 48.7302398681641 28.9180812835693 C 48.7302398681641 28.5047473907471 48.9169044494629 28.1980819702148 49.2902374267578 27.9980812072754 C 49.4369049072266 27.9047470092773 49.610237121582 27.8514137268066 49.8102378845215 27.8380813598633 C 49.5569076538086 27.5980815887451 49.2302398681641 27.4780807495117 48.8302383422852 27.4780807495117 C 48.4169044494629 27.4780807495117 48.103572845459 27.7047481536865 47.8902397155762 28.1580810546875 C 47.7969055175781 28.344747543335 47.636905670166 29.0380821228027 47.4102401733398 30.2380809783936 L 46.9902381896973 32.5180816650391 L 48.6502380371094 32.5180816650391 C 48.9835739135742 32.5180816650391 49.16357421875 32.5914154052734 49.1902389526367 32.7380828857422 C 49.1902389526367 32.9780807495117 49.0835723876953 33.1114120483398 48.8702392578125 33.1380805969238 L 48.8502388000488 33.1380805969238 L 48.5902404785156 33.1380805969238 L 46.8702392578125 33.1380805969238 L 45.670238494873 39.4780807495117 C 45.5502395629883 40.3047485351563 45.3102378845215 41.2514152526855 44.9502410888672 42.3180809020996 C 44.8169059753418 42.7047462463379 44.6835708618164 43.0314140319824 44.5502395629883 43.2980804443359 C 44.0835723876953 44.2847480773926 43.5035705566406 44.898078918457 42.8102378845215 45.1380805969238 C 42.636905670166 45.2047462463379 42.4635734558105 45.2380790710449 42.2902374267578 45.2380790710449 C 41.6235733032227 45.2380790710449 41.1302375793457 45.0114135742188 40.8102378845215 44.5580787658691 C 40.66357421875 44.358081817627 40.5902404785156 44.1247482299805 40.5902404785156 43.858081817627 C 40.5902404785156 43.3247451782227 40.8169059753418 42.958080291748 41.2702407836914 42.7580795288086 C 41.4035720825195 42.6914138793945 41.543571472168 42.6580810546875 41.6902389526367 42.6580810546875 C 42.076904296875 42.6580810546875 42.3169059753418 42.8247451782227 42.4102401733398 43.1580810546875 C 42.4235725402832 43.2247467041016 42.4302406311035 43.2914123535156 42.4302406311035 43.358081817627 C 42.4302406311035 43.8114128112793 42.2302398681641 44.1314125061035 41.8302383422852 44.3180809020996 C 41.6835708618164 44.3847465515137 41.5169067382813 44.424747467041 41.3302383422852 44.4380798339844 C 41.5835723876953 44.6780815124512 41.9035720825195 44.7980804443359 42.2902374267578 44.7980804443359 C 42.8769073486328 44.7980804443359 43.3369064331055 44.1447486877441 43.670238494873 42.8380813598633 C 43.7369041442871 42.5314140319824 43.8169059753418 42.1314125061035 43.9102401733398 41.6380805969238 L 44.0302391052246 41.0380821228027 L 45.5302391052246 33.1380805969238 L 44.2102394104004 33.1380805969238 C 43.8769073486328 33.1380805969238 43.696907043457 33.0847473144531 43.670238494873 32.9780807495117 L 43.6502380371094 32.9780807495117 L 43.6502380371094 32.898078918457 C 43.6502380371094 32.6714134216309 43.7635726928711 32.5447463989258 43.9902381896973 32.5180816650391 L 44.2502403259277 32.5180816650391 L 45.6302375793457 32.5180816650391 C 45.9502372741699 30.8514137268066 46.170238494873 29.8047485351563 46.2902374267578 29.3780822753906 C 46.6902389526367 28.0447483062744 47.3969039916992 27.2780818939209 48.4102401733398 27.0780811309814 C 48.5569076538086 27.0514144897461 48.696907043457 27.0380821228027 48.8302383422852 27.0380821228027 Z " fill = "black" />
<path d="M 54.9619598388672 32.7380828857422 C 54.268627166748 32.7380828857422 53.6086273193359 33.1914138793945 52.9819602966309 34.0980796813965 C 52.8619613647461 34.2714157104492 52.7486267089844 34.458080291748 52.641960144043 34.6580810546875 C 52.2552947998047 35.4314155578613 51.9286270141602 36.5314140319824 51.6619606018066 37.958080291748 C 51.581958770752 38.4114151000977 51.5419616699219 38.7714157104492 51.5419616699219 39.0380821228027 C 51.5419616699219 39.9447479248047 51.795295715332 40.5314140319824 52.3019599914551 40.7980804443359 C 52.4486274719238 40.8780822753906 52.6219596862793 40.9180793762207 52.8219604492188 40.9180793762207 C 53.5686264038086 40.9180793762207 54.3219604492188 40.4447479248047 55.081958770752 39.4980812072754 C 55.268627166748 39.2847480773926 55.3952941894531 39.0647468566895 55.4619598388672 38.8380813598633 L 55.4619598388672 38.8180809020996 C 55.4752922058105 38.7914123535156 55.4819602966309 38.7714157104492 55.4819602966309 38.7580795288086 L 56.4819602966309 34.8380813598633 C 56.5219612121582 34.6380805969238 56.5419616699219 34.5247497558594 56.5419616699219 34.4980812072754 C 56.5419616699219 34.2180786132813 56.4219589233398 33.8780822753906 56.1819610595703 33.4780807495117 C 55.8886260986328 32.984748840332 55.4819602966309 32.7380828857422 54.9619598388672 32.7380828857422 Z M 54.9419593811035 32.2980804443359 C 55.7552947998047 32.2980804443359 56.3686256408691 32.7247467041016 56.7819595336914 33.5780792236328 C 56.8486251831055 33.1247482299805 57.0552940368652 32.8447494506836 57.4019622802734 32.7380828857422 C 57.4686279296875 32.7114143371582 57.5419616699219 32.6980819702148 57.6219596862793 32.6980819702148 C 57.9686279296875 32.6980819702148 58.1619606018066 32.8780822753906 58.201961517334 33.2380828857422 C 58.2019577026367 33.3180809020996 58.1552925109863 33.5447463989258 58.0619583129883 33.9180793762207 L 57.3419609069824 36.7180786132813 C 57.141960144043 37.5580825805664 56.9952926635742 38.1580810546875 56.9019622802734 38.5180816650391 C 56.7286262512207 39.2114143371582 56.641960144043 39.7047462463379 56.641960144043 39.9980812072754 C 56.641960144043 40.6114120483398 56.8419609069824 40.9180793762207 57.2419586181641 40.9180793762207 C 57.7486267089844 40.9180793762207 58.17529296875 40.3847465515137 58.5219612121582 39.3180809020996 C 58.5886268615723 39.0914154052734 58.6686248779297 38.7980804443359 58.7619590759277 38.4380798339844 C 58.8686256408691 38.2114143371582 58.9619598388672 38.0914154052734 59.0419616699219 38.0780792236328 C 59.2019577026367 38.0780792236328 59.2819595336914 38.1447486877441 59.2819595336914 38.2780799865723 C 59.2819595336914 38.4780807495117 59.1619606018066 38.9447479248047 58.9219589233398 39.6780815124512 C 58.8419570922852 39.9047470092773 58.7619590759277 40.0980796813965 58.6819610595703 40.2580795288086 C 58.3086242675781 40.9914131164551 57.8152923583984 41.358081817627 57.201961517334 41.358081817627 C 56.4552917480469 41.358081817627 55.9152946472168 41.0380821228027 55.581958770752 40.398078918457 C 55.4886245727539 40.2380790710449 55.4219589233398 40.0580825805664 55.3819618225098 39.858081817627 C 54.5419616699219 40.858081817627 53.67529296875 41.358081817627 52.7819595336914 41.358081817627 C 51.7819595336914 41.358081817627 51.0419616699219 40.9047470092773 50.5619621276855 39.9980812072754 C 50.268627166748 39.4647483825684 50.1219596862793 38.8514137268066 50.1219596862793 38.1580810546875 C 50.1219596862793 36.7180824279785 50.6219596862793 35.3847465515137 51.6219596862793 34.1580810546875 C 52.5552940368652 33.0380783081055 53.5686264038086 32.424747467041 54.6619606018066 32.3180809020996 C 54.7552947998047 32.3047485351563 54.8486251831055 32.2980804443359 54.9419593811035 32.2980804443359 Z " fill = "black" />
<path d="M 69.1937637329102 27.0380821228027 C 69.887092590332 27.0380821228027 70.3937606811523 27.2647476196289 70.7137603759766 27.7180805206299 C 70.8604278564453 27.9180812835693 70.9337615966797 28.1514148712158 70.9337615966797 28.4180812835693 C 70.9337615966797 28.9514141082764 70.7070922851563 29.3180809020996 70.2537612915039 29.5180816650391 C 70.1204223632813 29.5847473144531 69.9804229736328 29.6180801391602 69.8337631225586 29.6180801391602 C 69.4470901489258 29.6180801391602 69.2070922851563 29.4514141082764 69.1137619018555 29.1180801391602 C 69.1004257202148 29.0514144897461 69.0937576293945 28.984748840332 69.0937576293945 28.9180812835693 C 69.0937576293945 28.5047473907471 69.2804260253906 28.1980819702148 69.6537628173828 27.9980812072754 C 69.8004302978516 27.9047470092773 69.973762512207 27.8514137268066 70.1737594604492 27.8380813598633 C 69.9204254150391 27.5980815887451 69.5937576293945 27.4780807495117 69.1937637329102 27.4780807495117 C 68.7804260253906 27.4780807495117 68.4670944213867 27.7047481536865 68.2537612915039 28.1580810546875 C 68.1604309082031 28.344747543335 68.0004272460938 29.0380821228027 67.7737579345703 30.2380809783936 L 67.353759765625 32.5180816650391 L 69.0137634277344 32.5180816650391 C 69.3470916748047 32.5180816650391 69.5270919799805 32.5914154052734 69.5537567138672 32.7380828857422 C 69.5537567138672 32.9780807495117 69.4470977783203 33.1114120483398 69.2337646484375 33.1380805969238 L 69.2137603759766 33.1380805969238 L 68.9537582397461 33.1380805969238 L 67.233757019043 33.1380805969238 L 66.0337600708008 39.4780807495117 C 65.9137573242188 40.3047485351563 65.6737594604492 41.2514152526855 65.3137588500977 42.3180809020996 C 65.1804275512695 42.7047462463379 65.0470962524414 43.0314140319824 64.9137573242188 43.2980804443359 C 64.4470977783203 44.2847480773926 63.8670921325684 44.898078918457 63.1737594604492 45.1380805969238 C 63.0004272460938 45.2047462463379 62.8270950317383 45.2380790710449 62.6537590026855 45.2380790710449 C 61.9870948791504 45.2380790710449 61.4937591552734 45.0114135742188 61.1737594604492 44.5580787658691 C 61.0270919799805 44.358081817627 60.9537620544434 44.1247482299805 60.9537620544434 43.858081817627 C 60.9537620544434 43.3247451782227 61.1804275512695 42.958080291748 61.6337623596191 42.7580795288086 C 61.7670936584473 42.6914138793945 61.9070930480957 42.6580810546875 62.0537605285645 42.6580810546875 C 62.4404258728027 42.6580810546875 62.6804275512695 42.8247451782227 62.7737617492676 43.1580810546875 C 62.7870941162109 43.2247467041016 62.7937622070313 43.2914123535156 62.7937622070313 43.358081817627 C 62.7937622070313 43.8114128112793 62.5937614440918 44.1314125061035 62.1937599182129 44.3180809020996 C 62.0470924377441 44.3847465515137 61.880428314209 44.424747467041 61.6937599182129 44.4380798339844 C 61.947093963623 44.6780815124512 62.2670936584473 44.7980804443359 62.6537590026855 44.7980804443359 C 63.2404289245605 44.7980804443359 63.7004280090332 44.1447486877441 64.0337600708008 42.8380813598633 C 64.1004257202148 42.5314140319824 64.1804275512695 42.1314125061035 64.2737579345703 41.6380805969238 L 64.3937606811523 41.0380821228027 L 65.8937606811523 33.1380805969238 L 64.5737609863281 33.1380805969238 C 64.2404251098633 33.1380805969238 64.0604248046875 33.0847473144531 64.0337600708008 32.9780807495117 L 64.0137634277344 32.9780807495117 L 64.0137634277344 32.898078918457 C 64.0137634277344 32.6714134216309 64.1270904541016 32.5447463989258 64.353759765625 32.5180816650391 L 64.6137619018555 32.5180816650391 L 65.9937591552734 32.5180816650391 C 66.3137588500977 30.8514137268066 66.5337600708008 29.8047485351563 66.6537628173828 29.3780822753906 C 67.0537567138672 28.0447483062744 67.7604293823242 27.2780818939209 68.7737579345703 27.0780811309814 C 68.9204254150391 27.0514144897461 69.0604248046875 27.0380821228027 69.1937637329102 27.0380821228027 Z " fill = "black" />
<path d="M 75.7054748535156 32.2980804443359 C 76.7588119506836 32.2980804443359 77.4854736328125 32.6247482299805 77.8854751586914 33.2780799865723 C 78.0188140869141 33.5047492980957 78.0854797363281 33.7514152526855 78.0854797363281 34.0180816650391 C 78.0854797363281 34.6180801391602 77.8588104248047 34.9780807495117 77.4054794311523 35.0980796813965 C 77.3254776000977 35.1247482299805 77.245475769043 35.1380805969238 77.1654815673828 35.1380805969238 C 76.7921447753906 35.0847473144531 76.5854797363281 34.891414642334 76.5454788208008 34.5580825805664 C 76.5454788208008 34.1980819702148 76.7254791259766 33.9314155578613 77.0854797363281 33.7580795288086 C 77.2188110351563 33.6914138793945 77.3588104248047 33.6580810546875 77.5054779052734 33.6580810546875 C 77.2254791259766 33.0714149475098 76.6254806518555 32.7647476196289 75.7054748535156 32.7380828857422 C 74.6254806518555 32.7380828857422 73.9188079833984 33.1447486877441 73.5854797363281 33.958080291748 C 73.5054779052734 34.1580810546875 73.4654769897461 34.3514137268066 73.4654769897461 34.5380821228027 C 73.4654769897461 35.0580825805664 73.7854766845703 35.4114151000977 74.4254760742188 35.5980796813965 L 74.4454803466797 35.6180801391602 C 74.5388107299805 35.6447486877441 74.7188110351563 35.6847457885742 74.985481262207 35.7380790710449 C 75.812141418457 35.9114151000977 76.365478515625 36.0980796813965 76.6454772949219 36.2980804443359 C 76.7654800415039 36.3780822753906 76.8788146972656 36.4714126586914 76.985481262207 36.5780792236328 C 77.398811340332 36.9914131164551 77.6054763793945 37.4780807495117 77.6054763793945 38.0380821228027 C 77.6054763793945 38.7314147949219 77.3454742431641 39.391414642334 76.8254776000977 40.0180816650391 C 76.0788116455078 40.9114151000977 74.9988098144531 41.358081817627 73.5854797363281 41.358081817627 C 72.3454742431641 41.358081817627 71.485481262207 41.0114135742188 71.0054779052734 40.3180809020996 C 70.8188095092773 40.0514144897461 70.7254791259766 39.7514152526855 70.7254791259766 39.4180793762207 C 70.7254791259766 38.7647476196289 70.9788131713867 38.3447456359863 71.485481262207 38.1580810546875 C 71.6054763793945 38.1180801391602 71.7254791259766 38.0980796813965 71.8454742431641 38.0980796813965 C 72.2854766845703 38.1647491455078 72.5321426391602 38.398078918457 72.5854797363281 38.7980804443359 C 72.5854797363281 39.2114143371582 72.4054794311523 39.5180816650391 72.0454788208008 39.7180824279785 C 71.832145690918 39.8514137268066 71.5921478271484 39.898078918457 71.3254776000977 39.858081817627 C 71.6321411132813 40.5647468566895 72.3921432495117 40.9180793762207 73.6054763793945 40.9180793762207 C 74.9788131713867 40.9180793762207 75.8788146972656 40.4180793762207 76.3054809570313 39.4180793762207 C 76.4121475219727 39.1647491455078 76.4654769897461 38.9314155578613 76.4654769897461 38.7180824279785 C 76.4654769897461 38.0780792236328 76.0721435546875 37.6380805969238 75.2854766845703 37.398078918457 L 75.2654800415039 37.398078918457 C 75.0654754638672 37.3447494506836 74.7721405029297 37.2780799865723 74.3854751586914 37.1980819702148 C 73.1854782104492 36.9447479248047 72.5121459960938 36.4114151000977 72.365478515625 35.5980796813965 C 72.3388137817383 35.4780807495117 72.3254776000977 35.3514137268066 72.3254776000977 35.2180786132813 C 72.3254776000977 34.5514144897461 72.5788116455078 33.9314155578613 73.0854797363281 33.358081817627 C 73.7121429443359 32.6514129638672 74.5854797363281 32.2980804443359 75.7054748535156 32.2980804443359 Z " fill = "black" />
<path d="M 88.360481262207 27.0380821228027 C 89.0538101196289 27.0380821228027 89.5604782104492 27.2647476196289 89.8804779052734 27.7180805206299 C 90.0271453857422 27.9180812835693 90.1004791259766 28.1514148712158 90.1004791259766 28.4180812835693 C 90.1004791259766 28.9514141082764 89.8738098144531 29.3180809020996 89.4204788208008 29.5180816650391 C 89.2871398925781 29.5847473144531 89.1471405029297 29.6180801391602 89.0004806518555 29.6180801391602 C 88.6138076782227 29.6180801391602 88.3738098144531 29.4514141082764 88.2804794311523 29.1180801391602 C 88.2671432495117 29.0514144897461 88.2604751586914 28.984748840332 88.2604751586914 28.9180812835693 C 88.2604751586914 28.5047473907471 88.4471435546875 28.1980819702148 88.8204803466797 27.9980812072754 C 88.9671478271484 27.9047470092773 89.1404800415039 27.8514137268066 89.3404769897461 27.8380813598633 C 89.0871429443359 27.5980815887451 88.7604751586914 27.4780807495117 88.360481262207 27.4780807495117 C 87.9471435546875 27.4780807495117 87.6338119506836 27.7047481536865 87.4204788208008 28.1580810546875 C 87.3271484375 28.344747543335 87.1671447753906 29.0380821228027 86.9404754638672 30.2380809783936 L 86.5204772949219 32.5180816650391 L 88.1804809570313 32.5180816650391 C 88.5138092041016 32.5180816650391 88.6938095092773 32.5914154052734 88.7204742431641 32.7380828857422 C 88.7204742431641 32.9780807495117 88.6138153076172 33.1114120483398 88.4004821777344 33.1380805969238 L 88.3804779052734 33.1380805969238 L 88.120475769043 33.1380805969238 L 86.4004745483398 33.1380805969238 L 85.2004776000977 39.4780807495117 C 85.0804748535156 40.3047485351563 84.8404769897461 41.2514152526855 84.4804763793945 42.3180809020996 C 84.3471450805664 42.7047462463379 84.2138137817383 43.0314140319824 84.0804748535156 43.2980804443359 C 83.6138153076172 44.2847480773926 83.0338134765625 44.898078918457 82.3404769897461 45.1380805969238 C 82.1671447753906 45.2047462463379 81.9938125610352 45.2380790710449 81.8204803466797 45.2380790710449 C 81.15380859375 45.2380790710449 80.6604766845703 45.0114135742188 80.3404769897461 44.5580787658691 C 80.1938095092773 44.358081817627 80.120475769043 44.1247482299805 80.120475769043 43.858081817627 C 80.120475769043 43.3247451782227 80.3471450805664 42.958080291748 80.8004760742188 42.7580795288086 C 80.9338150024414 42.6914138793945 81.0738143920898 42.6580810546875 81.2204742431641 42.6580810546875 C 81.6071472167969 42.6580810546875 81.8471450805664 42.8247451782227 81.9404754638672 43.1580810546875 C 81.9538116455078 43.2247467041016 81.9604797363281 43.2914123535156 81.9604797363281 43.358081817627 C 81.9604797363281 43.8114128112793 81.7604751586914 44.1314125061035 81.360481262207 44.3180809020996 C 81.2138137817383 44.3847465515137 81.0471420288086 44.424747467041 80.860481262207 44.4380798339844 C 81.1138153076172 44.6780815124512 81.4338150024414 44.7980804443359 81.8204803466797 44.7980804443359 C 82.4071426391602 44.7980804443359 82.8671417236328 44.1447486877441 83.2004776000977 42.8380813598633 C 83.2671432495117 42.5314140319824 83.3471450805664 42.1314125061035 83.4404754638672 41.6380805969238 L 83.5604782104492 41.0380821228027 L 85.0604782104492 33.1380805969238 L 83.740478515625 33.1380805969238 C 83.4071426391602 33.1380805969238 83.2271423339844 33.0847473144531 83.2004776000977 32.9780807495117 L 83.1804809570313 32.9780807495117 L 83.1804809570313 32.898078918457 C 83.1804809570313 32.6714134216309 83.2938079833984 32.5447463989258 83.5204772949219 32.5180816650391 L 83.7804794311523 32.5180816650391 L 85.1604766845703 32.5180816650391 C 85.4804763793945 30.8514137268066 85.7004776000977 29.8047485351563 85.8204803466797 29.3780822753906 C 86.2204742431641 28.0447483062744 86.9271469116211 27.2780818939209 87.9404754638672 27.0780811309814 C 88.0871429443359 27.0514144897461 88.2271423339844 27.0380821228027 88.360481262207 27.0380821228027 Z " fill = "black" />
<path d="M 94.4922027587891 32.7380828857422 C 93.7988662719727 32.7380828857422 93.1388702392578 33.1914138793945 92.51220703125 34.0980796813965 C 92.392204284668 34.2714157104492 92.2788696289063 34.458080291748 92.1722030639648 34.6580810546875 C 91.7855377197266 35.4314155578613 91.458869934082 36.5314140319824 91.1921997070313 37.958080291748 C 91.1122055053711 38.4114151000977 91.0722045898438 38.7714157104492 91.0722045898438 39.0380821228027 C 91.0722045898438 39.9447479248047 91.3255386352539 40.5314140319824 91.8322067260742 40.7980804443359 C 91.9788665771484 40.8780822753906 92.1522064208984 40.9180793762207 92.3522033691406 40.9180793762207 C 93.0988693237305 40.9180793762207 93.8522033691406 40.4447479248047 94.6122055053711 39.4980812072754 C 94.7988662719727 39.2847480773926 94.925537109375 39.0647468566895 94.9922027587891 38.8380813598633 L 94.9922027587891 38.8180809020996 C 95.0055389404297 38.7914123535156 95.0121994018555 38.7714157104492 95.01220703125 38.7580795288086 L 96.01220703125 34.8380813598633 C 96.0522003173828 34.6380805969238 96.0722045898438 34.5247497558594 96.0722045898438 34.4980812072754 C 96.0722045898438 34.2180786132813 95.9522018432617 33.8780822753906 95.7122039794922 33.4780807495117 C 95.4188690185547 32.984748840332 95.01220703125 32.7380828857422 94.4922027587891 32.7380828857422 Z M 94.4722061157227 32.2980804443359 C 95.2855377197266 32.2980804443359 95.8988723754883 32.7247467041016 96.3122024536133 33.5780792236328 C 96.3788681030273 33.1247482299805 96.5855331420898 32.8447494506836 96.9322052001953 32.7380828857422 C 96.9988708496094 32.7114143371582 97.0722045898438 32.6980819702148 97.1522064208984 32.6980819702148 C 97.4988708496094 32.6980819702148 97.6921997070313 32.8780822753906 97.7322006225586 33.2380828857422 C 97.7322006225586 33.3180809020996 97.6855392456055 33.5447463989258 97.5922012329102 33.9180793762207 L 96.872200012207 36.7180786132813 C 96.6722030639648 37.5580825805664 96.5255355834961 38.1580810546875 96.4322052001953 38.5180816650391 C 96.2588729858398 39.2114143371582 96.1722030639648 39.7047462463379 96.1722030639648 39.9980812072754 C 96.1722030639648 40.6114120483398 96.372200012207 40.9180793762207 96.7722015380859 40.9180793762207 C 97.2788696289063 40.9180793762207 97.7055358886719 40.3847465515137 98.0522003173828 39.3180809020996 C 98.1188659667969 39.0914154052734 98.1988677978516 38.7980804443359 98.2922058105469 38.4380798339844 C 98.3988647460938 38.2114143371582 98.4922027587891 38.0914154052734 98.5722045898438 38.0780792236328 C 98.7322006225586 38.0780792236328 98.8122024536133 38.1447486877441 98.8122024536133 38.2780799865723 C 98.8122024536133 38.4780807495117 98.6921997070313 38.9447479248047 98.4522018432617 39.6780815124512 C 98.372200012207 39.9047470092773 98.2922058105469 40.0980796813965 98.2122039794922 40.2580795288086 C 97.8388671875 40.9914131164551 97.3455352783203 41.358081817627 96.7322006225586 41.358081817627 C 95.9855346679688 41.358081817627 95.4455337524414 41.0380821228027 95.1122055053711 40.398078918457 C 95.0188674926758 40.2380790710449 94.9522018432617 40.0580825805664 94.9122009277344 39.858081817627 C 94.0722045898438 40.858081817627 93.2055358886719 41.358081817627 92.3122024536133 41.358081817627 C 91.3122024536133 41.358081817627 90.5722045898438 40.9047470092773 90.0922012329102 39.9980812072754 C 89.7988662719727 39.4647483825684 89.6522064208984 38.8514137268066 89.6522064208984 38.1580810546875 C 89.6522064208984 36.7180824279785 90.1522064208984 35.3847465515137 91.1522064208984 34.1580810546875 C 92.0855331420898 33.0380783081055 93.0988693237305 32.424747467041 94.1921997070313 32.3180809020996 C 94.2855377197266 32.3047485351563 94.3788681030273 32.2980804443359 94.4722061157227 32.2980804443359 Z " fill = "black" />

</svg>

