<?xml version="1.0" encoding="UTF-8" ?>
<svg xmlns="http://www.w3.org/2000/svg" version="1.1" >
<path d="M 9.30000019073486 -0.211099624633789 C 9.993332862854 -0.211098670959473 10.5 0.0155677795410156 10.8199996948242 0.468899756669998 C 10.9666662216187 0.668900489807129 11.039999961853 0.902234077453613 11.039999961853 1.16890048980713 C 11.039999961853 1.70223331451416 10.8133335113525 2.0689001083374 10.3599996566772 2.26889991760254 C 10.2266654968262 2.33556652069092 10.0866661071777 2.36890029907227 9.9399995803833 2.36890029907227 C 9.55333232879639 2.36890029907227 9.31333255767822 2.20223331451416 9.22000026702881 1.86890041828156 C 9.20666599273682 1.80223369598389 9.19999885559082 1.73556804656982 9.19999980926514 1.66890037059784 C 9.19999885559082 1.25556659698486 9.3866662979126 0.94890022277832 9.76000022888184 0.748900532722473 C 9.90666580200195 0.655567169189453 10.0799999237061 0.60223388671875 10.2799997329712 0.588900566101074 C 10.0266666412354 0.34890079498291 9.69999980926514 0.228900909423828 9.30000019073486 0.228900045156479 C 8.8866662979126 0.228900909423828 8.57333278656006 0.455567359924316 8.35999965667725 0.908900260925293 C 8.26666641235352 1.09556674957275 8.10666656494141 1.78890037536621 7.87999963760376 2.98890018463135 L 7.46000003814697 5.26889991760254 L 9.11999988555908 5.26889991760254 C 9.45333290100098 5.26889991760254 9.63333320617676 5.34223365783691 9.65999984741211 5.48890018463135 C 9.65999984741211 5.72889995574951 9.5533332824707 5.86223316192627 9.34000015258789 5.88889980316162 L 9.31999969482422 5.88889980316162 L 9.05999946594238 5.88889980316162 L 7.33999967575073 5.88889980316162 L 6.1399998664856 12.2288999557495 C 6.01999950408936 13.0555667877197 5.77999973297119 14.002233505249 5.42000007629395 15.0689001083374 C 5.28666639328003 15.45556640625 5.15333271026611 15.7822332382202 5.01999998092651 16.048900604248 C 4.5533332824707 17.0355663299561 3.97333288192749 17.6488990783691 3.27999997138977 17.8889007568359 C 3.10666656494141 17.95556640625 2.93333315849304 17.988899230957 2.75999999046326 17.988899230957 C 2.09333324432373 17.988899230957 1.59999990463257 17.7622337341309 1.27999997138977 17.3088989257813 C 1.13333320617676 17.1089000701904 1.05999994277954 16.8755664825439 1.06000006198883 16.6089000701904 C 1.05999994277954 16.0755653381348 1.28666663169861 15.7088994979858 1.73999989032745 15.5088996887207 C 1.8733332157135 15.4422330856323 2.0133330821991 15.408899307251 2.15999984741211 15.408899307251 C 2.54666662216187 15.408899307251 2.78666663169861 15.5755662918091 2.87999987602234 15.908899307251 C 2.89333319664001 15.9755668640137 2.89999985694885 16.0422325134277 2.89999985694885 16.1089000701904 C 2.89999985694885 16.5622329711914 2.69999980926514 16.8822326660156 2.29999995231628 17.0688991546631 C 2.15333318710327 17.1355667114258 1.98666656017303 17.1755657196045 1.79999995231628 17.1888999938965 C 2.0533332824707 17.4288997650146 2.3733332157135 17.548900604248 2.75999999046326 17.548900604248 C 3.34666657447815 17.548900604248 3.80666637420654 16.8955669403076 4.1399998664856 15.5888996124268 C 4.20666646957397 15.2822332382202 4.28666639328003 14.8822326660156 4.38000011444092 14.3888998031616 L 4.5 13.7888994216919 L 6 5.88889980316162 L 4.67999982833862 5.88889980316162 C 4.34666633605957 5.88889980316162 4.16666650772095 5.83556652069092 4.1399998664856 5.72889995574951 L 4.11999988555908 5.72889995574951 L 4.11999988555908 5.64890003204346 C 4.11999988555908 5.42223358154297 4.23333311080933 5.29556655883789 4.46000003814697 5.26889991760254 L 4.71999979019165 5.26889991760254 L 6.09999990463257 5.26889991760254 C 6.41999959945679 3.60223293304443 6.63999938964844 2.55556678771973 6.75999975204468 2.1289005279541 C 7.15999984741211 0.795567512512207 7.86666631698608 0.0289011001586914 8.88000011444092 -0.171099632978439 C 9.02666664123535 -0.197765350341797 9.16666603088379 -0.211098670959473 9.30000019073486 -0.211099624633789 Z " fill = "black" />
<rect x="0" y="22.01907" width="9.79172" height="0.79998" />
<path d="M 9.30000019073486 27.0380821228027 C 9.993332862854 27.0380821228027 10.5 27.2647476196289 10.8199996948242 27.7180805206299 C 10.9666662216187 27.9180812835693 11.039999961853 28.1514148712158 11.039999961853 28.4180812835693 C 11.039999961853 28.9514141082764 10.8133335113525 29.3180809020996 10.3599996566772 29.5180816650391 C 10.2266654968262 29.5847473144531 10.0866661071777 29.6180801391602 9.9399995803833 29.6180801391602 C 9.55333232879639 29.6180801391602 9.31333255767822 29.4514141082764 9.22000026702881 29.1180801391602 C 9.20666599273682 29.0514144897461 9.19999885559082 28.984748840332 9.19999980926514 28.9180812835693 C 9.19999885559082 28.5047473907471 9.3866662979126 28.1980819702148 9.76000022888184 27.9980812072754 C 9.90666580200195 27.9047470092773 10.0799999237061 27.8514137268066 10.2799997329712 27.8380813598633 C 10.0266666412354 27.5980815887451 9.69999980926514 27.4780807495117 9.30000019073486 27.4780807495117 C 8.8866662979126 27.4780807495117 8.57333278656006 27.7047481536865 8.35999965667725 28.1580810546875 C 8.26666641235352 28.344747543335 8.10666656494141 29.0380821228027 7.87999963760376 30.2380809783936 L 7.46000003814697 32.5180816650391 L 9.11999988555908 32.5180816650391 C 9.45333290100098 32.5180816650391 9.63333320617676 32.5914154052734 9.65999984741211 32.7380828857422 C 9.65999984741211 32.9780807495117 9.5533332824707 33.1114120483398 9.34000015258789 33.1380805969238 L 9.31999969482422 33.1380805969238 L 9.05999946594238 33.1380805969238 L 7.33999967575073 33.1380805969238 L 6.1399998664856 39.4780807495117 C 6.01999950408936 40.3047485351563 5.77999973297119 41.2514152526855 5.42000007629395 42.3180809020996 C 5.28666639328003 42.7047462463379 5.15333271026611 43.0314140319824 5.01999998092651 43.2980804443359 C 4.5533332824707 44.2847480773926 3.97333288192749 44.898078918457 3.27999997138977 45.1380805969238 C 3.10666656494141 45.2047462463379 2.93333315849304 45.2380790710449 2.75999999046326 45.2380790710449 C 2.09333324432373 45.2380790710449 1.59999990463257 45.0114135742188 1.27999997138977 44.5580787658691 C 1.13333320617676 44.358081817627 1.05999994277954 44.1247482299805 1.05999994277954 43.858081817627 C 1.05999994277954 43.3247451782227 1.28666663169861 42.958080291748 1.74000012874603 42.7580795288086 C 1.8733332157135 42.6914138793945 2.0133330821991 42.6580810546875 2.15999984741211 42.6580810546875 C 2.54666662216187 42.6580810546875 2.78666663169861 42.8247451782227 2.87999987602234 43.1580810546875 C 2.89333319664001 43.2247467041016 2.89999985694885 43.2914123535156 2.89999985694885 43.358081817627 C 2.89999985694885 43.8114128112793 2.69999980926514 44.1314125061035 2.29999995231628 44.3180809020996 C 2.15333318710327 44.3847465515137 1.98666656017303 44.424747467041 1.79999983310699 44.4380798339844 C 2.0533332824707 44.6780815124512 2.3733332157135 44.7980804443359 2.75999999046326 44.7980804443359 C 3.34666657447815 44.7980804443359 3.80666637420654 44.1447486877441 4.1399998664856 42.8380813598633 C 4.20666646957397 42.5314140319824 4.28666639328003 42.1314125061035 4.38000011444092 41.6380805969238 L 4.5 41.0380821228027 L 6 33.1380805969238 L 4.67999982833862 33.1380805969238 C 4.34666633605957 33.1380805969238 4.16666650772095 33.0847473144531 4.1399998664856 32.9780807495117 L 4.11999988555908 32.9780807495117 L 4.11999988555908 32.898078918457 C 4.11999988555908 32.6714134216309 4.23333311080933 32.5447463989258 4.46000003814697 32.5180816650391 L 4.71999979019165 32.5180816650391 L 6.09999990463257 32.5180816650391 C 6.41999959945679 30.8514137268066 6.63999938964844 29.8047485351563 6.75999975204468 29.3780822753906 C 7.15999984741211 28.0447483062744 7.86666631698608 27.2780818939209 8.88000011444092 27.0780811309814 C 9.02666664123535 27.0514144897461 9.16666603088379 27.0380821228027 9.30000019073486 27.0380821228027 Z " fill = "black" />

</svg>

