<?xml version="1.0" encoding="UTF-8" ?>
<svg xmlns="http://www.w3.org/2000/svg" version="1.1" >
<path d="M 15.9122505187988 -0.211099624633789 C 16.605583190918 -0.211098670959473 17.1122493743896 0.0155677795410156 17.4322490692139 0.468899756669998 C 17.5789165496826 0.668900489807129 17.652250289917 0.902234077453613 17.652250289917 1.16890048980713 C 17.652250289917 1.70223331451416 17.4255828857422 2.0689001083374 16.9722499847412 2.26889991760254 C 16.8389148712158 2.33556652069092 16.6989154815674 2.36890029907227 16.5522499084473 2.36890029907227 C 16.1655826568604 2.36890029907227 15.9255828857422 2.20223331451416 15.8322505950928 1.86890041828156 C 15.8189163208008 1.80223369598389 15.8122482299805 1.73556804656982 15.8122501373291 1.66890037059784 C 15.8122482299805 1.25556659698486 15.9989166259766 0.94890022277832 16.3722496032715 0.748900532722473 C 16.5189151763916 0.655567169189453 16.6922492980957 0.60223388671875 16.8922500610352 0.588900566101074 C 16.638916015625 0.34890079498291 16.3122501373291 0.228900909423828 15.9122505187988 0.228900045156479 C 15.4989166259766 0.228900909423828 15.185583114624 0.455567359924316 14.9722499847412 0.908900260925293 C 14.8789157867432 1.09556674957275 14.7189159393311 1.78890037536621 14.4922494888306 2.98890018463135 L 14.0722503662109 5.26889991760254 L 15.732250213623 5.26889991760254 C 16.0655822753906 5.26889991760254 16.2455825805664 5.34223365783691 16.2722492218018 5.48890018463135 C 16.2722492218018 5.72889995574951 16.1655826568604 5.86223316192627 15.9522495269775 5.88889980316162 L 15.9322490692139 5.88889980316162 L 15.672248840332 5.88889980316162 L 13.9522495269775 5.88889980316162 L 12.7522497177124 12.2288999557495 C 12.6322498321533 13.0555667877197 12.3922500610352 14.002233505249 12.0322494506836 15.0689001083374 C 11.8989162445068 15.45556640625 11.7655830383301 15.7822332382202 11.6322498321533 16.048900604248 C 11.1655826568604 17.0355663299561 10.5855827331543 17.6488990783691 9.89225006103516 17.8889007568359 C 9.71891593933105 17.95556640625 9.54558277130127 17.988899230957 9.37224960327148 17.988899230957 C 8.7055835723877 17.988899230957 8.21224975585938 17.7622337341309 7.89225006103516 17.3088989257813 C 7.74558305740356 17.1089000701904 7.67224979400635 16.8755664825439 7.67224979400635 16.6089000701904 C 7.67224979400635 16.0755653381348 7.89891624450684 15.7088994979858 8.35225009918213 15.5088996887207 C 8.48558330535889 15.4422330856323 8.62558269500732 15.408899307251 8.77224922180176 15.408899307251 C 9.15891647338867 15.408899307251 9.39891624450684 15.5755662918091 9.49224948883057 15.908899307251 C 9.50558280944824 15.9755668640137 9.51224994659424 16.0422325134277 9.51224994659424 16.1089000701904 C 9.51224994659424 16.5622329711914 9.3122501373291 16.8822326660156 8.91224956512451 17.0688991546631 C 8.76558303833008 17.1355667114258 8.59891605377197 17.1755657196045 8.41224956512451 17.1888999938965 C 8.66558265686035 17.4288997650146 8.98558330535889 17.548900604248 9.37224960327148 17.548900604248 C 9.95891666412354 17.548900604248 10.4189167022705 16.8955669403076 10.7522497177124 15.5888996124268 C 10.8189163208008 15.2822332382202 10.8989162445068 14.8822326660156 10.9922504425049 14.3888998031616 L 11.1122493743896 13.7888994216919 L 12.6122493743896 5.88889980316162 L 11.2922496795654 5.88889980316162 C 10.9589157104492 5.88889980316162 10.7789163589478 5.83556652069092 10.7522497177124 5.72889995574951 L 10.732250213623 5.72889995574951 L 10.732250213623 5.64890003204346 C 10.732250213623 5.42223358154297 10.8455829620361 5.29556655883789 11.0722503662109 5.26889991760254 L 11.3322496414185 5.26889991760254 L 12.7122497558594 5.26889991760254 C 13.0322494506836 3.60223293304443 13.2522487640381 2.55556678771973 13.3722496032715 2.1289005279541 C 13.7722492218018 0.795567512512207 14.4789161682129 0.0289011001586914 15.4922504425049 -0.171099632978439 C 15.638916015625 -0.197765350341797 15.7789154052734 -0.211098670959473 15.9122505187988 -0.211099624633789 Z " fill = "black" />
<path d="M 25.703971862793 -0.211099624633789 C 26.3973045349121 -0.211098670959473 26.9039707183838 0.0155677795410156 27.223970413208 0.468899756669998 C 27.3706359863281 0.668900489807129 27.4439697265625 0.902234077453613 27.4439697265625 1.16890048980713 C 27.4439697265625 1.70223331451416 27.2173042297363 2.0689001083374 26.7639694213867 2.26889991760254 C 26.63063621521 2.33556652069092 26.4906368255615 2.36890029907227 26.3439712524414 2.36890029907227 C 25.9573020935059 2.36890029907227 25.7173042297363 2.20223331451416 25.6239700317383 1.86890041828156 C 25.6106376647949 1.80223369598389 25.6039695739746 1.73556804656982 25.6039695739746 1.66890037059784 C 25.6039695739746 1.25556659698486 25.7906379699707 0.94890022277832 26.1639709472656 0.748900532722473 C 26.3106365203857 0.655567169189453 26.4839706420898 0.60223388671875 26.6839714050293 0.588900566101074 C 26.4306373596191 0.34890079498291 26.1039695739746 0.228900909423828 25.703971862793 0.228900045156479 C 25.2906379699707 0.228900909423828 24.9773025512695 0.455567359924316 24.7639694213867 0.908900260925293 C 24.6706371307373 1.09556674957275 24.5106372833252 1.78890037536621 24.2839698791504 2.98890018463135 L 23.8639717102051 5.26889991760254 L 25.5239715576172 5.26889991760254 C 25.8573036193848 5.26889991760254 26.0373039245605 5.34223365783691 26.0639705657959 5.48890018463135 C 26.0639705657959 5.72889995574951 25.9573040008545 5.86223316192627 25.7439708709717 5.88889980316162 L 25.723970413208 5.88889980316162 L 25.4639701843262 5.88889980316162 L 23.7439708709717 5.88889980316162 L 22.5439701080322 12.2288999557495 C 22.4239692687988 13.0555667877197 22.1839714050293 14.002233505249 21.8239707946777 15.0689001083374 C 21.690637588501 15.45556640625 21.5573043823242 15.7822332382202 21.4239711761475 16.048900604248 C 20.9573040008545 17.0355663299561 20.3773040771484 17.6488990783691 19.6839714050293 17.8889007568359 C 19.5106372833252 17.95556640625 19.3373031616211 17.988899230957 19.1639709472656 17.988899230957 C 18.4973030090332 17.988899230957 18.0039710998535 17.7622337341309 17.6839714050293 17.3088989257813 C 17.5373039245605 17.1089000701904 17.4639701843262 16.8755664825439 17.4639701843262 16.6089000701904 C 17.4639701843262 16.0755653381348 17.690637588501 15.7088994979858 18.143970489502 15.5088996887207 C 18.2773036956787 15.4422330856323 18.4173030853271 15.408899307251 18.5639705657959 15.408899307251 C 18.9506378173828 15.408899307251 19.190637588501 15.5755662918091 19.2839698791504 15.908899307251 C 19.2973041534424 15.9755668640137 19.3039703369141 16.0422325134277 19.3039703369141 16.1089000701904 C 19.3039703369141 16.5622329711914 19.1039695739746 16.8822326660156 18.7039699554443 17.0688991546631 C 18.5573043823242 17.1355667114258 18.3906364440918 17.1755657196045 18.2039699554443 17.1888999938965 C 18.4573040008545 17.4288997650146 18.7773036956787 17.548900604248 19.1639709472656 17.548900604248 C 19.7506370544434 17.548900604248 20.210636138916 16.8955669403076 20.5439701080322 15.5888996124268 C 20.6106376647949 15.2822332382202 20.690637588501 14.8822326660156 20.7839698791504 14.3888998031616 L 20.9039707183838 13.7888994216919 L 22.4039707183838 5.88889980316162 L 21.0839710235596 5.88889980316162 C 20.7506370544434 5.88889980316162 20.5706367492676 5.83556652069092 20.5439701080322 5.72889995574951 L 20.5239715576172 5.72889995574951 L 20.5239715576172 5.64890003204346 C 20.5239715576172 5.42223358154297 20.6373043060303 5.29556655883789 20.8639717102051 5.26889991760254 L 21.1239700317383 5.26889991760254 L 22.5039710998535 5.26889991760254 C 22.8239707946777 3.60223293304443 23.0439701080322 2.55556678771973 23.1639709472656 2.1289005279541 C 23.5639705657959 0.795567512512207 24.270637512207 0.0289011001586914 25.2839698791504 -0.171099632978439 C 25.4306373596191 -0.197765350341797 25.5706367492676 -0.211098670959473 25.703971862793 -0.211099624633789 Z " fill = "black" />
<path d="M 32.215690612793 5.04889965057373 C 33.2690238952637 5.04889965057373 33.9956893920898 5.37556743621826 34.3956909179688 6.02890014648438 C 34.5290222167969 6.25556707382202 34.5956878662109 6.50223350524902 34.5956878662109 6.76889991760254 C 34.5956878662109 7.36890029907227 34.3690223693848 7.72890043258667 33.9156913757324 7.84889984130859 C 33.8356895446777 7.87556648254395 33.7556915283203 7.88889980316162 33.6756896972656 7.88889980316162 C 33.3023567199707 7.83556699752808 33.0956878662109 7.64223384857178 33.0556907653809 7.30889987945557 C 33.0556907653809 6.94890022277832 33.2356910705566 6.68223333358765 33.5956878662109 6.50890016555786 C 33.7290229797363 6.44223356246948 33.8690223693848 6.40890026092529 34.0156898498535 6.40889978408813 C 33.7356910705566 5.82223415374756 33.1356887817383 5.5155668258667 32.215690612793 5.48890018463135 C 31.1356887817383 5.48890018463135 30.4290237426758 5.89556694030762 30.0956897735596 6.708899974823 C 30.0156898498535 6.90890026092529 29.9756889343262 7.10223388671875 29.9756908416748 7.28889989852905 C 29.9756889343262 7.80889987945557 30.2956886291504 8.16223335266113 30.9356899261475 8.34889984130859 L 30.9556903839111 8.36890029907227 C 31.0490226745605 8.39556694030762 31.2290229797363 8.43556594848633 31.4956893920898 8.48889923095703 C 32.3223571777344 8.66223335266113 32.8756904602051 8.84889984130859 33.155689239502 9.04890060424805 C 33.2756881713867 9.1289005279541 33.3890228271484 9.22223377227783 33.4956893920898 9.32889938354492 C 33.9090232849121 9.74223327636719 34.1156883239746 10.2288999557495 34.1156883239746 10.7889003753662 C 34.1156883239746 11.4822330474854 33.8556900024414 12.1422328948975 33.3356895446777 12.7688999176025 C 32.5890235900879 13.6622333526611 31.5090217590332 14.1089000701904 30.0956897735596 14.1089000701904 C 28.8556900024414 14.1089000701904 27.9956893920898 13.7622327804565 27.5156898498535 13.0689001083374 C 27.3290233612061 12.8022327423096 27.2356910705566 12.502233505249 27.2356910705566 12.1688995361328 C 27.2356910705566 11.5155668258667 27.4890232086182 11.0955667495728 27.9956893920898 10.908899307251 C 28.1156902313232 10.8689002990723 28.235689163208 10.8488998413086 28.3556900024414 10.8488998413086 C 28.795690536499 10.915566444397 29.0423564910889 11.1489000320435 29.0956897735596 11.5488996505737 C 29.0956897735596 11.962233543396 28.9156894683838 12.2688999176025 28.5556907653809 12.4688997268677 C 28.342357635498 12.6022329330444 28.1023559570313 12.6489000320435 27.8356895446777 12.6089000701904 C 28.1423568725586 13.3155660629272 28.9023571014404 13.6688995361328 30.1156902313232 13.6688995361328 C 31.4890232086182 13.6688995361328 32.3890228271484 13.1688995361328 32.8156890869141 12.1688995361328 C 32.9223556518555 11.915566444397 32.9756889343262 11.6822338104248 32.9756889343262 11.4688997268677 C 32.9756889343262 10.8289003372192 32.5823554992676 10.3888998031616 31.795690536499 10.1489000320435 L 31.7756900787354 10.1489000320435 C 31.5756893157959 10.0955667495728 31.282356262207 10.0289001464844 30.8956909179688 9.94890022277832 C 29.6956901550293 9.69556713104248 29.0223560333252 9.16223335266113 28.8756904602051 8.34889984130859 C 28.8490238189697 8.22889995574951 28.8356895446777 8.10223388671875 28.8356895446777 7.96889972686768 C 28.8356895446777 7.30223321914673 29.0890235900879 6.68223333358765 29.5956897735596 6.10890007019043 C 30.2223567962646 5.40223407745361 31.0956897735596 5.04889965057373 32.215690612793 5.04889965057373 Z " fill = "black" />
<path d="M 41.2106895446777 5.48890018463135 C 40.5173568725586 5.48890018463135 39.8573570251465 5.94223356246948 39.2306900024414 6.84889984130859 C 39.1106910705566 7.02223348617554 38.9973564147949 7.20890045166016 38.8906898498535 7.40889978408813 C 38.5040245056152 8.1822338104248 38.1773567199707 9.28223419189453 37.9106903076172 10.7089004516602 C 37.8306884765625 11.1622333526611 37.7906913757324 11.5222330093384 37.7906913757324 11.7889003753662 C 37.7906913757324 12.6955661773682 38.0440216064453 13.2822332382202 38.5506896972656 13.5488996505737 C 38.6973571777344 13.6288995742798 38.8706893920898 13.6688995361328 39.0706901550293 13.6688995361328 C 39.8173561096191 13.6688995361328 40.5706901550293 13.1955661773682 41.3306884765625 12.2488994598389 C 41.5173568725586 12.0355663299561 41.6440238952637 11.8155670166016 41.7106895446777 11.5888996124268 L 41.7106895446777 11.5689001083374 C 41.7240219116211 11.5422334671021 41.7306900024414 11.5222339630127 41.7306900024414 11.5088996887207 L 42.7306900024414 7.58890008926392 C 42.7706909179688 7.38890027999878 42.7906913757324 7.27556705474854 42.7906913757324 7.24889993667603 C 42.7906913757324 6.96889972686768 42.6706886291504 6.62890005111694 42.4306907653809 6.22889995574951 C 42.1373558044434 5.73556709289551 41.7306900024414 5.48890018463135 41.2106895446777 5.48890018463135 Z M 41.1906890869141 5.04889965057373 C 42.0040245056152 5.04889965057373 42.6173553466797 5.47556686401367 43.030689239502 6.32889986038208 C 43.097354888916 5.87556743621826 43.3040237426758 5.59556674957275 43.6506881713867 5.48890018463135 C 43.7173538208008 5.462233543396 43.7906875610352 5.44890022277832 43.8706893920898 5.44890022277832 C 44.217357635498 5.44890022277832 44.4106903076172 5.6289005279541 44.4506912231445 5.98890018463135 C 44.4506912231445 6.06890058517456 44.4040222167969 6.29556703567505 44.3106918334961 6.66890001296997 L 43.590690612793 9.46889972686768 C 43.3906898498535 10.3088998794556 43.2440223693848 10.9089002609253 43.1506881713867 11.2688999176025 C 42.9773559570313 11.962233543396 42.8906898498535 12.45556640625 42.8906898498535 12.7488994598389 C 42.8906898498535 13.3622331619263 43.090690612793 13.6688995361328 43.4906883239746 13.6688995361328 C 43.9973564147949 13.6688995361328 44.4240226745605 13.1355667114258 44.7706909179688 12.0689001083374 C 44.8373565673828 11.8422336578369 44.9173583984375 11.5488996505737 45.0106887817383 11.1888999938965 C 45.1173553466797 10.962233543396 45.2106895446777 10.8422336578369 45.2906875610352 10.8288993835449 C 45.4506912231445 10.8289003372192 45.530689239502 10.8955669403076 45.530689239502 11.0289001464844 C 45.530689239502 11.2288999557495 45.4106903076172 11.6955661773682 45.1706886291504 12.4288997650146 C 45.090690612793 12.6555662155151 45.0106887817383 12.8488998413086 44.9306907653809 13.0088996887207 C 44.5573577880859 13.7422332763672 44.064022064209 14.1089000701904 43.4506912231445 14.1089000701904 C 42.7040214538574 14.1089000701904 42.1640243530273 13.7888994216919 41.8306884765625 13.1489000320435 C 41.7373580932617 12.9889001846313 41.6706886291504 12.8088998794556 41.6306915283203 12.6089000701904 C 40.7906875610352 13.6089000701904 39.9240226745605 14.1089000701904 39.030689239502 14.1089000701904 C 38.030689239502 14.1089000701904 37.2906913757324 13.6555662155151 36.8106918334961 12.7488994598389 C 36.5173568725586 12.2155666351318 36.3706893920898 11.6022338867188 36.3706893920898 10.908899307251 C 36.3706893920898 9.46890068054199 36.8706893920898 8.13556671142578 37.8706893920898 6.90889978408813 C 38.8040237426758 5.78889942169189 39.8173561096191 5.17556667327881 40.9106903076172 5.0689001083374 C 41.0040245056152 5.05556678771973 41.0973587036133 5.04889965057373 41.1906890869141 5.04889965057373 Z " fill = "black" />
<path d="M 55.4424896240234 -0.211099624633789 C 56.1358222961426 -0.211098670959473 56.6424903869629 0.0155677795410156 56.9624900817871 0.468899756669998 C 57.1091575622559 0.668900489807129 57.1824913024902 0.902234077453613 57.1824913024902 1.16890048980713 C 57.1824913024902 1.70223331451416 56.9558258056641 2.0689001083374 56.5024909973145 2.26889991760254 C 56.3691558837891 2.33556652069092 56.2291564941406 2.36890029907227 56.0824890136719 2.36890029907227 C 55.6958236694336 2.36890029907227 55.4558219909668 2.20223331451416 55.362491607666 1.86890041828156 C 55.3491554260254 1.80223369598389 55.3424911499023 1.73556804656982 55.3424911499023 1.66890037059784 C 55.3424911499023 1.25556659698486 55.5291557312012 0.94890022277832 55.9024887084961 0.748900532722473 C 56.0491561889648 0.655567169189453 56.2224884033203 0.60223388671875 56.4224891662598 0.588900566101074 C 56.1691589355469 0.34890079498291 55.8424911499023 0.228900909423828 55.4424896240234 0.228900045156479 C 55.0291557312012 0.228900909423828 54.7158241271973 0.455567359924316 54.5024909973145 0.908900260925293 C 54.4091567993164 1.09556674957275 54.2491569519043 1.78890037536621 54.0224914550781 2.98890018463135 L 53.6024894714355 5.26889991760254 L 55.2624893188477 5.26889991760254 C 55.5958251953125 5.26889991760254 55.7758255004883 5.34223365783691 55.802490234375 5.48890018463135 C 55.802490234375 5.72889995574951 55.6958236694336 5.86223316192627 55.4824905395508 5.88889980316162 L 55.4624900817871 5.88889980316162 L 55.2024917602539 5.88889980316162 L 53.4824905395508 5.88889980316162 L 52.2824897766113 12.2288999557495 C 52.1624908447266 13.0555667877197 51.9224891662598 14.002233505249 51.5624923706055 15.0689001083374 C 51.4291572570801 15.45556640625 51.2958221435547 15.7822332382202 51.1624908447266 16.048900604248 C 50.6958236694336 17.0355663299561 50.1158218383789 17.6488990783691 49.4224891662598 17.8889007568359 C 49.2491569519043 17.95556640625 49.0758247375488 17.988899230957 48.9024887084961 17.988899230957 C 48.2358245849609 17.988899230957 47.742488861084 17.7622337341309 47.4224891662598 17.3088989257813 C 47.2758255004883 17.1089000701904 47.2024917602539 16.8755664825439 47.2024917602539 16.6089000701904 C 47.2024917602539 16.0755653381348 47.4291572570801 15.7088994979858 47.8824920654297 15.5088996887207 C 48.0158233642578 15.4422330856323 48.1558227539063 15.408899307251 48.302490234375 15.408899307251 C 48.6891555786133 15.408899307251 48.9291572570801 15.5755662918091 49.0224914550781 15.908899307251 C 49.0358238220215 15.9755668640137 49.0424919128418 16.0422325134277 49.0424919128418 16.1089000701904 C 49.0424919128418 16.5622329711914 48.8424911499023 16.8822326660156 48.4424896240234 17.0688991546631 C 48.2958221435547 17.1355667114258 48.1291580200195 17.1755657196045 47.9424896240234 17.1888999938965 C 48.1958236694336 17.4288997650146 48.5158233642578 17.548900604248 48.9024887084961 17.548900604248 C 49.4891586303711 17.548900604248 49.9491577148438 16.8955669403076 50.2824897766113 15.5888996124268 C 50.3491554260254 15.2822332382202 50.4291572570801 14.8822326660156 50.5224914550781 14.3888998031616 L 50.6424903869629 13.7888994216919 L 52.1424903869629 5.88889980316162 L 50.8224906921387 5.88889980316162 C 50.4891586303711 5.88889980316162 50.3091583251953 5.83556652069092 50.2824897766113 5.72889995574951 L 50.2624893188477 5.72889995574951 L 50.2624893188477 5.64890003204346 C 50.2624893188477 5.42223358154297 50.3758239746094 5.29556655883789 50.6024894714355 5.26889991760254 L 50.862491607666 5.26889991760254 L 52.242488861084 5.26889991760254 C 52.5624885559082 3.60223293304443 52.7824897766113 2.55556678771973 52.9024887084961 2.1289005279541 C 53.302490234375 0.795567512512207 54.0091552734375 0.0289011001586914 55.0224914550781 -0.171099632978439 C 55.1691589355469 -0.197765350341797 55.3091583251953 -0.211098670959473 55.4424896240234 -0.211099624633789 Z " fill = "black" />
<rect x="0" y="22.01907" width="62.54646" height="0.79998" />
<path d="M 4.33999967575073 27.5380821228027 L 4.61999988555908 27.5380821228027 L 14.4200000762939 27.5380821228027 C 14.7399997711182 27.5380821228027 14.9133319854736 27.5847473144531 14.9399995803833 27.6780815124512 L 14.960000038147 27.6780815124512 C 14.986665725708 27.7580814361572 14.986665725708 27.891414642334 14.960000038147 28.0780811309814 L 14.5599994659424 31.5380821228027 C 14.4666662216187 31.844747543335 14.3733329772949 32.0114135742188 14.2799997329712 32.0380821228027 C 14.1199998855591 32.0380821228027 14.039999961853 31.958080291748 14.039999961853 31.7980804443359 C 14.039999961853 31.7314147949219 14.0533332824707 31.6114158630371 14.0799999237061 31.4380798339844 C 14.1199989318848 31.0780811309814 14.1399984359741 30.7180824279785 14.1399993896484 30.358081817627 C 14.1399984359741 29.4647483825684 13.9133319854736 28.8714141845703 13.460000038147 28.5780811309814 L 13.4399995803833 28.5580806732178 C 13.0133323669434 28.2914142608643 12.2733316421509 28.1580810546875 11.2199993133545 28.1580810546875 L 8.57999992370605 28.1580810546875 C 8.08666610717773 28.1580810546875 7.79333257675171 28.2314147949219 7.69999980926514 28.3780822753906 L 7.67999982833862 28.3780822753906 L 7.67999982833862 28.3980808258057 C 7.63999938964844 28.4514141082764 7.60666608810425 28.5314140319824 7.57999992370605 28.6380805969238 L 7.57999992370605 28.6580810546875 L 7.55999994277954 28.6780815124512 C 7.54666614532471 28.7314147949219 7.52666616439819 28.8180809020996 7.5 28.9380798339844 L 6.21999979019165 34.0180816650391 L 8.03999996185303 34.0180816650391 C 9.01333332061768 34.0180816650391 9.66666603088379 33.8380813598633 10 33.4780807495117 L 10.0199995040894 33.458080291748 C 10.2466659545898 33.2047500610352 10.446665763855 32.7514152526855 10.6199998855591 32.0980796813965 C 10.6866655349731 31.844747543335 10.7866659164429 31.7047462463379 10.9200000762939 31.6780815124512 C 11.0666656494141 31.6780815124512 11.1466655731201 31.7514152526855 11.1599998474121 31.8980808258057 C 11.1599998474121 31.9647483825684 11.1399993896484 32.0714149475098 11.0999994277954 32.2180786132813 L 10 36.5580825805664 C 9.86666679382324 36.8247489929199 9.76666641235352 36.9647483825684 9.69999980926514 36.9780807495117 C 9.53999996185303 36.9780807495117 9.46000003814697 36.898078918457 9.46000003814697 36.7380790710449 C 9.46000003814697 36.6847457885742 9.47999954223633 36.6114120483398 9.51999950408936 36.5180816650391 C 9.61333274841309 36.1180801391602 9.65999984741211 35.7914123535156 9.65999984741211 35.5380821228027 C 9.65999984741211 35.1514129638672 9.51333332061768 34.8980827331543 9.22000026702881 34.7780799865723 C 8.96666622161865 34.6847457885742 8.55999946594238 34.6380805969238 8 34.6380805969238 L 6.05999994277954 34.6380805969238 L 4.81999969482422 39.6180801391602 C 4.76666641235352 39.8180809020996 4.73999977111816 39.9714126586914 4.73999977111816 40.0780792236328 C 4.73999977111816 40.2647476196289 4.82666635513306 40.3780822753906 5 40.4180793762207 C 5.09333324432373 40.4447479248047 5.21999979019165 40.4647483825684 5.38000011444092 40.4780807495117 C 5.71333312988281 40.5047454833984 6.05999946594238 40.5180816650391 6.42000007629395 40.5180816650391 C 6.75333309173584 40.5180816650391 6.94000005722046 40.5247459411621 6.98000001907349 40.5380821228027 L 7.07999992370605 40.6780815124512 C 7.09333324432373 40.7047462463379 7.09999990463257 40.7314147949219 7.09999990463257 40.7580795288086 C 7.09999990463257 41.0114135742188 6.96000003814697 41.1380805969238 6.67999982833862 41.1380805969238 L 3.72000002861023 41.0780792236328 L 3.69999980926514 41.0780792236328 L 1.07999992370605 41.1380805969238 L 1.06000006198883 41.1380805969238 C 0.859999895095825 41.1380805969238 0.759999930858612 41.0580787658691 0.759999990463257 40.898078918457 C 0.759999930858612 40.6714134216309 0.866666555404663 40.5447463989258 1.07999992370605 40.5180816650391 L 1.3199999332428 40.5180816650391 C 2.18666648864746 40.5180816650391 2.70666646957397 40.424747467041 2.87999987602234 40.2380790710449 C 2.95999979972839 40.1447486877441 3.03999996185303 39.958080291748 3.11999988555908 39.6780815124512 C 3.1199996471405 39.6647491455078 3.12666630744934 39.6314125061035 3.1399998664856 39.5780792236328 L 5.77999973297119 28.9980812072754 C 5.84666633605957 28.7580814361572 5.87999963760376 28.5980796813965 5.87999963760376 28.5180816650391 C 5.87999963760376 28.2914142608643 5.57333278656006 28.1714134216309 4.96000003814697 28.1580810546875 L 4.94000005722046 28.1580810546875 L 4.57999992370605 28.1580810546875 C 4.23333311080933 28.1580810546875 4.04666662216187 28.0847473144531 4.01999998092651 27.9380798339844 C 4.01999998092651 27.6980819702148 4.12666654586792 27.5647487640381 4.33999967575073 27.5380821228027 Z " fill = "black" />
<path d="M 18.881139755249 32.2980804443359 C 19.9344730377197 32.2980804443359 20.6611404418945 32.6247482299805 21.0611400604248 33.2780799865723 C 21.1944732666016 33.5047492980957 21.2611389160156 33.7514152526855 21.2611389160156 34.0180816650391 C 21.2611389160156 34.6180801391602 21.0344734191895 34.9780807495117 20.5811405181885 35.0980796813965 C 20.5011405944824 35.1247482299805 20.4211387634277 35.1380805969238 20.3411407470703 35.1380805969238 C 19.9678077697754 35.0847473144531 19.7611389160156 34.891414642334 19.7211399078369 34.5580825805664 C 19.7211399078369 34.1980819702148 19.9011402130127 33.9314155578613 20.2611389160156 33.7580795288086 C 20.394474029541 33.6914138793945 20.5344734191895 33.6580810546875 20.6811408996582 33.6580810546875 C 20.4011402130127 33.0714149475098 19.801139831543 32.7647476196289 18.881139755249 32.7380828857422 C 17.801139831543 32.7380828857422 17.0944728851318 33.1447486877441 16.7611408233643 33.958080291748 C 16.6811408996582 34.1580810546875 16.6411399841309 34.3514137268066 16.6411399841309 34.5380821228027 C 16.6411399841309 35.0580825805664 16.9611396789551 35.4114151000977 17.6011390686035 35.5980796813965 L 17.6211395263672 35.6180801391602 C 17.7144737243652 35.6447486877441 17.894474029541 35.6847457885742 18.1611404418945 35.7380790710449 C 18.9878063201904 35.9114151000977 19.5411396026611 36.0980796813965 19.8211402893066 36.2980804443359 C 19.9411392211914 36.3780822753906 20.0544738769531 36.4714126586914 20.1611404418945 36.5780792236328 C 20.5744724273682 36.9914131164551 20.7811393737793 37.4780807495117 20.7811393737793 38.0380821228027 C 20.7811393737793 38.7314147949219 20.5211391448975 39.391414642334 20.0011405944824 40.0180816650391 C 19.2544727325439 40.9114151000977 18.1744728088379 41.358081817627 16.7611408233643 41.358081817627 C 15.5211400985718 41.358081817627 14.6611404418945 41.0114135742188 14.1811399459839 40.3180809020996 C 13.9944734573364 40.0514144897461 13.9011402130127 39.7514152526855 13.9011402130127 39.4180793762207 C 13.9011402130127 38.7647476196289 14.1544733047485 38.3447456359863 14.6611404418945 38.1580810546875 C 14.7811403274536 38.1180801391602 14.9011402130127 38.0980796813965 15.0211400985718 38.0980796813965 C 15.4611396789551 38.1647491455078 15.7078065872192 38.398078918457 15.7611398696899 38.7980804443359 C 15.7611398696899 39.2114143371582 15.5811405181885 39.5180816650391 15.2211399078369 39.7180824279785 C 15.0078067779541 39.8514137268066 14.7678070068359 39.898078918457 14.5011405944824 39.858081817627 C 14.807806968689 40.5647468566895 15.5678062438965 40.9180793762207 16.7811393737793 40.9180793762207 C 18.1544723510742 40.9180793762207 19.0544738769531 40.4180793762207 19.4811401367188 39.4180793762207 C 19.5878067016602 39.1647491455078 19.6411399841309 38.9314155578613 19.6411399841309 38.7180824279785 C 19.6411399841309 38.0780792236328 19.2478065490723 37.6380805969238 18.4611396789551 37.398078918457 L 18.4411392211914 37.398078918457 C 18.2411403656006 37.3447494506836 17.9478073120117 37.2780799865723 17.5611400604248 37.1980819702148 C 16.3611392974854 36.9447479248047 15.6878070831299 36.4114151000977 15.5411396026611 35.5980796813965 C 15.5144729614258 35.4780807495117 15.5011405944824 35.3514137268066 15.5011405944824 35.2180786132813 C 15.5011405944824 34.5514144897461 15.7544727325439 33.9314155578613 16.2611408233643 33.358081817627 C 16.8878059387207 32.6514129638672 17.7611389160156 32.2980804443359 18.881139755249 32.2980804443359 Z " fill = "black" />
<path d="M 27.8761386871338 32.7380828857422 C 27.1828060150146 32.7380828857422 26.5228061676025 33.1914138793945 25.8961391448975 34.0980796813965 C 25.7761383056641 34.2714157104492 25.662805557251 34.458080291748 25.5561389923096 34.6580810546875 C 25.1694717407227 35.4314155578613 24.8428058624268 36.5314140319824 24.5761394500732 37.958080291748 C 24.4961395263672 38.4114151000977 24.4561386108398 38.7714157104492 24.4561386108398 39.0380821228027 C 24.4561386108398 39.9447479248047 24.70947265625 40.5314140319824 25.2161388397217 40.7980804443359 C 25.3628063201904 40.8780822753906 25.5361385345459 40.9180793762207 25.7361392974854 40.9180793762207 C 26.4828052520752 40.9180793762207 27.2361392974854 40.4447479248047 27.9961395263672 39.4980812072754 C 28.1828060150146 39.2847480773926 28.3094711303711 39.0647468566895 28.3761386871338 38.8380813598633 L 28.3761386871338 38.8180809020996 C 28.3894729614258 38.7914123535156 28.3961391448975 38.7714157104492 28.3961391448975 38.7580795288086 L 29.3961391448975 34.8380813598633 C 29.4361381530762 34.6380805969238 29.4561386108398 34.5247497558594 29.4561386108398 34.4980812072754 C 29.4561386108398 34.2180786132813 29.3361396789551 33.8780822753906 29.0961380004883 33.4780807495117 C 28.802806854248 32.984748840332 28.3961391448975 32.7380828857422 27.8761386871338 32.7380828857422 Z M 27.8561401367188 32.2980804443359 C 28.6694717407227 32.2980804443359 29.2828063964844 32.7247467041016 29.6961402893066 33.5780792236328 C 29.7628059387207 33.1247482299805 29.9694709777832 32.8447494506836 30.3161392211914 32.7380828857422 C 30.3828048706055 32.7114143371582 30.4561386108398 32.6980819702148 30.5361404418945 32.6980819702148 C 30.8828048706055 32.6980819702148 31.0761394500732 32.8780822753906 31.116138458252 33.2380828857422 C 31.116138458252 33.3180809020996 31.0694732666016 33.5447463989258 30.9761390686035 33.9180793762207 L 30.2561378479004 36.7180786132813 C 30.0561389923096 37.5580825805664 29.9094715118408 38.1580810546875 29.8161392211914 38.5180816650391 C 29.6428050994873 39.2114143371582 29.5561389923096 39.7047462463379 29.5561389923096 39.9980812072754 C 29.5561389923096 40.6114120483398 29.7561378479004 40.9180793762207 30.1561393737793 40.9180793762207 C 30.662805557251 40.9180793762207 31.0894718170166 40.3847465515137 31.4361381530762 39.3180809020996 C 31.5028057098389 39.0914154052734 31.5828056335449 38.7980804443359 31.676139831543 38.4380798339844 C 31.7828044891357 38.2114143371582 31.8761386871338 38.0914154052734 31.9561386108398 38.0780792236328 C 32.116138458252 38.0780792236328 32.1961402893066 38.1447486877441 32.1961402893066 38.2780799865723 C 32.1961402893066 38.4780807495117 32.0761413574219 38.9447479248047 31.8361396789551 39.6780815124512 C 31.7561378479004 39.9047470092773 31.6761379241943 40.0980796813965 31.5961380004883 40.2580795288086 C 31.2228050231934 40.9914131164551 30.7294731140137 41.358081817627 30.116138458252 41.358081817627 C 29.3694725036621 41.358081817627 28.8294715881348 41.0380821228027 28.4961395263672 40.398078918457 C 28.4028053283691 40.2380790710449 28.3361396789551 40.0580825805664 28.2961387634277 39.858081817627 C 27.4561386108398 40.858081817627 26.5894718170166 41.358081817627 25.6961402893066 41.358081817627 C 24.6961402893066 41.358081817627 23.9561386108398 40.9047470092773 23.4761390686035 39.9980812072754 C 23.1828060150146 39.4647483825684 23.0361385345459 38.8514137268066 23.0361385345459 38.1580810546875 C 23.0361385345459 36.7180824279785 23.5361385345459 35.3847465515137 24.5361385345459 34.1580810546875 C 25.4694728851318 33.0380783081055 26.4828052520752 32.424747467041 27.5761394500732 32.3180809020996 C 27.6694717407227 32.3047485351563 27.7628059387207 32.2980804443359 27.8561401367188 32.2980804443359 Z " fill = "black" />
<path d="M 42.1079406738281 27.0380821228027 C 42.8012733459473 27.0380821228027 43.3079414367676 27.2647476196289 43.6279411315918 27.7180805206299 C 43.7746086120605 27.9180812835693 43.8479423522949 28.1514148712158 43.8479423522949 28.4180812835693 C 43.8479423522949 28.9514141082764 43.6212768554688 29.3180809020996 43.1679420471191 29.5180816650391 C 43.0346069335938 29.5847473144531 42.8946075439453 29.6180801391602 42.7479400634766 29.6180801391602 C 42.3612747192383 29.6180801391602 42.1212730407715 29.4514141082764 42.0279426574707 29.1180801391602 C 42.0146064758301 29.0514144897461 42.007942199707 28.984748840332 42.007942199707 28.9180812835693 C 42.007942199707 28.5047473907471 42.1946067810059 28.1980819702148 42.5679397583008 27.9980812072754 C 42.7146072387695 27.9047470092773 42.887939453125 27.8514137268066 43.0879402160645 27.8380813598633 C 42.8346099853516 27.5980815887451 42.507942199707 27.4780807495117 42.1079406738281 27.4780807495117 C 41.6946067810059 27.4780807495117 41.381275177002 27.7047481536865 41.1679420471191 28.1580810546875 C 41.0746078491211 28.344747543335 40.914608001709 29.0380821228027 40.6879425048828 30.2380809783936 L 40.2679405212402 32.5180816650391 L 41.9279403686523 32.5180816650391 C 42.2612762451172 32.5180816650391 42.441276550293 32.5914154052734 42.4679412841797 32.7380828857422 C 42.4679412841797 32.9780807495117 42.3612747192383 33.1114120483398 42.1479415893555 33.1380805969238 L 42.1279411315918 33.1380805969238 L 41.8679428100586 33.1380805969238 L 40.1479415893555 33.1380805969238 L 38.947940826416 39.4780807495117 C 38.8279418945313 40.3047485351563 38.5879402160645 41.2514152526855 38.2279434204102 42.3180809020996 C 38.0946083068848 42.7047462463379 37.9612731933594 43.0314140319824 37.8279418945313 43.2980804443359 C 37.3612747192383 44.2847480773926 36.7812728881836 44.898078918457 36.0879402160645 45.1380805969238 C 35.914608001709 45.2047462463379 35.7412757873535 45.2380790710449 35.5679397583008 45.2380790710449 C 34.9012756347656 45.2380790710449 34.4079399108887 45.0114135742188 34.0879402160645 44.5580787658691 C 33.941276550293 44.358081817627 33.8679428100586 44.1247482299805 33.8679428100586 43.858081817627 C 33.8679428100586 43.3247451782227 34.0946083068848 42.958080291748 34.5479431152344 42.7580795288086 C 34.6812744140625 42.6914138793945 34.8212738037109 42.6580810546875 34.9679412841797 42.6580810546875 C 35.354606628418 42.6580810546875 35.5946083068848 42.8247451782227 35.6879425048828 43.1580810546875 C 35.7012748718262 43.2247467041016 35.7079429626465 43.2914123535156 35.7079429626465 43.358081817627 C 35.7079429626465 43.8114128112793 35.507942199707 44.1314125061035 35.1079406738281 44.3180809020996 C 34.9612731933594 44.3847465515137 34.7946090698242 44.424747467041 34.6079406738281 44.4380798339844 C 34.8612747192383 44.6780815124512 35.1812744140625 44.7980804443359 35.5679397583008 44.7980804443359 C 36.1546096801758 44.7980804443359 36.6146087646484 44.1447486877441 36.947940826416 42.8380813598633 C 37.0146064758301 42.5314140319824 37.0946083068848 42.1314125061035 37.1879425048828 41.6380805969238 L 37.3079414367676 41.0380821228027 L 38.8079414367676 33.1380805969238 L 37.4879417419434 33.1380805969238 C 37.1546096801758 33.1380805969238 36.974609375 33.0847473144531 36.947940826416 32.9780807495117 L 36.9279403686523 32.9780807495117 L 36.9279403686523 32.898078918457 C 36.9279403686523 32.6714134216309 37.0412750244141 32.5447463989258 37.2679405212402 32.5180816650391 L 37.5279426574707 32.5180816650391 L 38.9079399108887 32.5180816650391 C 39.2279396057129 30.8514137268066 39.447940826416 29.8047485351563 39.5679397583008 29.3780822753906 C 39.9679412841797 28.0447483062744 40.6746063232422 27.2780818939209 41.6879425048828 27.0780811309814 C 41.8346099853516 27.0514144897461 41.974609375 27.0380821228027 42.1079406738281 27.0380821228027 Z " fill = "black" />
<path d="M 48.6196594238281 32.2980804443359 C 49.6729927062988 32.2980804443359 50.399658203125 32.6247482299805 50.7996597290039 33.2780799865723 C 50.932991027832 33.5047492980957 50.9996566772461 33.7514152526855 50.9996566772461 34.0180816650391 C 50.9996566772461 34.6180801391602 50.7729911804199 34.9780807495117 50.3196601867676 35.0980796813965 C 50.2396583557129 35.1247482299805 50.1596603393555 35.1380805969238 50.0796585083008 35.1380805969238 C 49.7063255310059 35.0847473144531 49.4996566772461 34.891414642334 49.459659576416 34.5580825805664 C 49.459659576416 34.1980819702148 49.6396598815918 33.9314155578613 49.9996566772461 33.7580795288086 C 50.1329917907715 33.6914138793945 50.2729911804199 33.6580810546875 50.4196586608887 33.6580810546875 C 50.1396598815918 33.0714149475098 49.5396575927734 32.7647476196289 48.6196594238281 32.7380828857422 C 47.5396575927734 32.7380828857422 46.8329925537109 33.1447486877441 46.4996604919434 33.958080291748 C 46.4196586608887 34.1580810546875 46.3796577453613 34.3514137268066 46.3796577453613 34.5380821228027 C 46.3796577453613 35.0580825805664 46.6996574401855 35.4114151000977 47.3396606445313 35.5980796813965 L 47.3596572875977 35.6180801391602 C 47.4529914855957 35.6447486877441 47.6329917907715 35.6847457885742 47.899658203125 35.7380790710449 C 48.7263259887695 35.9114151000977 49.2796592712402 36.0980796813965 49.5596580505371 36.2980804443359 C 49.6796569824219 36.3780822753906 49.7929916381836 36.4714126586914 49.899658203125 36.5780792236328 C 50.3129920959473 36.9914131164551 50.5196571350098 37.4780807495117 50.5196571350098 38.0380821228027 C 50.5196571350098 38.7314147949219 50.2596588134766 39.391414642334 49.7396583557129 40.0180816650391 C 48.992992401123 40.9114151000977 47.9129905700684 41.358081817627 46.4996604919434 41.358081817627 C 45.2596588134766 41.358081817627 44.399658203125 41.0114135742188 43.9196586608887 40.3180809020996 C 43.7329940795898 40.0514144897461 43.6396598815918 39.7514152526855 43.6396598815918 39.4180793762207 C 43.6396598815918 38.7647476196289 43.892993927002 38.3447456359863 44.399658203125 38.1580810546875 C 44.5196571350098 38.1180801391602 44.6396598815918 38.0980796813965 44.7596588134766 38.0980796813965 C 45.1996574401855 38.1647491455078 45.4463272094727 38.398078918457 45.4996604919434 38.7980804443359 C 45.4996604919434 39.2114143371582 45.3196601867676 39.5180816650391 44.959659576416 39.7180824279785 C 44.7463264465332 39.8514137268066 44.5063247680664 39.898078918457 44.2396583557129 39.858081817627 C 44.5463256835938 40.5647468566895 45.306324005127 40.9180793762207 46.5196571350098 40.9180793762207 C 47.8929901123047 40.9180793762207 48.7929916381836 40.4180793762207 49.2196578979492 39.4180793762207 C 49.3263244628906 39.1647491455078 49.3796577453613 38.9314155578613 49.3796577453613 38.7180824279785 C 49.3796577453613 38.0780792236328 48.9863243103027 37.6380805969238 48.1996574401855 37.398078918457 L 48.1796569824219 37.398078918457 C 47.9796600341797 37.3447494506836 47.6863250732422 37.2780799865723 47.2996597290039 37.1980819702148 C 46.0996589660645 36.9447479248047 45.426326751709 36.4114151000977 45.2796592712402 35.5980796813965 C 45.2529907226563 35.4780807495117 45.2396583557129 35.3514137268066 45.2396583557129 35.2180786132813 C 45.2396583557129 34.5514144897461 45.492992401123 33.9314155578613 45.9996604919434 33.358081817627 C 46.6263236999512 32.6514129638672 47.4996566772461 32.2980804443359 48.6196594238281 32.2980804443359 Z " fill = "black" />
<path d="M 57.6146583557129 32.7380828857422 C 56.9213256835938 32.7380828857422 56.2613258361816 33.1914138793945 55.6346588134766 34.0980796813965 C 55.5146598815918 34.2714157104492 55.4013252258301 34.458080291748 55.2946586608887 34.6580810546875 C 54.9079933166504 35.4314155578613 54.5813255310059 36.5314140319824 54.3146591186523 37.958080291748 C 54.2346572875977 38.4114151000977 54.1946601867676 38.7714157104492 54.1946601867676 39.0380821228027 C 54.1946601867676 39.9447479248047 54.4479904174805 40.5314140319824 54.9546585083008 40.7980804443359 C 55.1013259887695 40.8780822753906 55.274658203125 40.9180793762207 55.4746589660645 40.9180793762207 C 56.2213249206543 40.9180793762207 56.9746589660645 40.4447479248047 57.7346572875977 39.4980812072754 C 57.9213256835938 39.2847480773926 58.0479927062988 39.0647468566895 58.1146583557129 38.8380813598633 L 58.1146583557129 38.8180809020996 C 58.1279907226563 38.7914123535156 58.1346588134766 38.7714157104492 58.1346588134766 38.7580795288086 L 59.1346588134766 34.8380813598633 C 59.1746597290039 34.6380805969238 59.1946601867676 34.5247497558594 59.1946601867676 34.4980812072754 C 59.1946601867676 34.2180786132813 59.0746574401855 33.8780822753906 58.834659576416 33.4780807495117 C 58.5413246154785 32.984748840332 58.1346588134766 32.7380828857422 57.6146583557129 32.7380828857422 Z M 57.5946578979492 32.2980804443359 C 58.4079933166504 32.2980804443359 59.0213241577148 32.7247467041016 59.4346580505371 33.5780792236328 C 59.5013236999512 33.1247482299805 59.7079925537109 32.8447494506836 60.0546569824219 32.7380828857422 C 60.1213226318359 32.7114143371582 60.1946563720703 32.6980819702148 60.274658203125 32.6980819702148 C 60.6213264465332 32.6980819702148 60.8146591186523 32.8780822753906 60.8546600341797 33.2380828857422 C 60.8546600341797 33.3180809020996 60.807991027832 33.5447463989258 60.7146606445313 33.9180793762207 L 59.9946594238281 36.7180786132813 C 59.7946586608887 37.5580825805664 59.6479911804199 38.1580810546875 59.5546569824219 38.5180816650391 C 59.3813247680664 39.2114143371582 59.2946586608887 39.7047462463379 59.2946586608887 39.9980812072754 C 59.2946586608887 40.6114120483398 59.4946594238281 40.9180793762207 59.8946571350098 40.9180793762207 C 60.4013252258301 40.9180793762207 60.8279914855957 40.3847465515137 61.1746597290039 39.3180809020996 C 61.241325378418 39.0914154052734 61.3213272094727 38.7980804443359 61.4146575927734 38.4380798339844 C 61.5213241577148 38.2114143371582 61.6146583557129 38.0914154052734 61.6946563720703 38.0780792236328 C 61.8546600341797 38.0780792236328 61.9346580505371 38.1447486877441 61.9346580505371 38.2780799865723 C 61.9346580505371 38.4780807495117 61.8146591186523 38.9447479248047 61.5746574401855 39.6780815124512 C 61.4946594238281 39.9047470092773 61.4146575927734 40.0980796813965 61.334659576416 40.2580795288086 C 60.9613265991211 40.9914131164551 60.4679908752441 41.358081817627 59.8546600341797 41.358081817627 C 59.1079902648926 41.358081817627 58.5679931640625 41.0380821228027 58.2346572875977 40.398078918457 C 58.1413269042969 40.2380790710449 58.0746574401855 40.0580825805664 58.0346603393555 39.858081817627 C 57.1946563720703 40.858081817627 56.3279914855957 41.358081817627 55.4346580505371 41.358081817627 C 54.4346580505371 41.358081817627 53.6946601867676 40.9047470092773 53.2146606445313 39.9980812072754 C 52.9213256835938 39.4647483825684 52.774658203125 38.8514137268066 52.774658203125 38.1580810546875 C 52.774658203125 36.7180824279785 53.274658203125 35.3847465515137 54.274658203125 34.1580810546875 C 55.2079925537109 33.0380783081055 56.2213249206543 32.424747467041 57.3146591186523 32.3180809020996 C 57.4079933166504 32.3047485351563 57.5013275146484 32.2980804443359 57.5946578979492 32.2980804443359 Z " fill = "black" />

</svg>

