<?xml version="1.0" encoding="UTF-8" ?>
<svg xmlns="http://www.w3.org/2000/svg" version="1.1" >
<path d="M 2.67999982833862 18.5790596008301 C 3.39999961853027 18.5790596008301 3.93333292007446 18.8790588378906 4.27999973297119 19.4790592193604 C 4.41333293914795 19.7323932647705 4.493332862854 20.012393951416 4.51999998092651 20.3190593719482 C 5.37333297729492 19.1590595245361 6.41333293914795 18.5790596008301 7.6399998664856 18.5790596008301 C 8.31999969482422 18.5790596008301 8.86666679382324 18.7523937225342 9.27999973297119 19.0990600585938 C 9.65333366394043 19.419059753418 9.86666679382324 19.8923950195313 9.92000007629395 20.5190601348877 C 10.8266658782959 19.2257270812988 11.9133329391479 18.5790596008301 13.1799993515015 18.5790596008301 C 14.3666658401489 18.5790596008301 15.0999994277954 19.0390605926514 15.3800001144409 19.9590606689453 L 15.3800001144409 19.9790592193604 C 15.446665763855 20.2057266235352 15.479998588562 20.452392578125 15.4799995422363 20.7190589904785 C 15.479998588562 21.4257278442383 15.0733318328857 22.8923931121826 14.2599992752075 25.1190605163574 C 14.019998550415 25.7057266235352 13.899998664856 26.1790599822998 13.8999996185303 26.5390605926514 C 13.899998664856 26.9790592193604 14.0599994659424 27.1990604400635 14.3800001144409 27.1990604400635 C 15.2066669464111 27.1990604400635 15.8599996566772 26.465726852417 16.3400001525879 24.999059677124 L 16.4200000762939 24.7190589904785 C 16.4866676330566 24.5057258605957 16.5533332824707 24.3923931121826 16.6199989318848 24.3790588378906 L 16.6199989318848 24.3590602874756 L 16.7199993133545 24.3590602874756 C 16.8799991607666 24.3590602874756 16.9599990844727 24.4257259368896 16.9599990844727 24.5590591430664 C 16.9599990844727 24.7857265472412 16.8199996948242 25.2057266235352 16.5399990081787 25.8190593719482 C 15.9666652679443 27.0323925018311 15.2333316802979 27.6390590667725 14.3400001525879 27.6390590667725 C 13.6599998474121 27.6390590667725 13.1733322143555 27.3523921966553 12.8800001144409 26.7790603637695 C 12.7600002288818 26.5390605926514 12.6999998092651 26.2790603637695 12.6999998092651 25.999059677124 C 12.6999998092651 25.7323932647705 12.7866668701172 25.3657264709473 12.960000038147 24.8990592956543 C 13.7866668701172 22.7123928070068 14.1999998092651 21.2190589904785 14.1999998092651 20.419059753418 C 14.1999998092651 19.4857273101807 13.8400001525879 19.0190601348877 13.1199998855591 19.0190601348877 C 11.9466667175293 19.0190601348877 10.9733333587646 19.6523933410645 10.1999998092651 20.919059753418 C 9.98666667938232 21.2523937225342 9.85999965667725 21.5057258605957 9.81999969482422 21.6790599822998 C 9.77999973297119 21.8523941040039 9.38000011444092 23.4590606689453 8.61999988555908 26.499059677124 C 8.47333335876465 27.0723934173584 8.30666637420654 27.419059753418 8.11999988555908 27.5390605926514 L 8.09999942779541 27.5590591430664 L 8.07999992370605 27.5590591430664 C 7.98666667938232 27.6123924255371 7.86666631698608 27.6390590667725 7.71999979019165 27.6390590667725 C 7.3866662979126 27.5723934173584 7.1933331489563 27.3923931121826 7.1399998664856 27.0990600585938 L 7.39999961853027 25.919059753418 L 7.79999971389771 24.3990592956543 L 8.35999965667725 22.0790596008301 C 8.55999946594238 21.3323936462402 8.65999984741211 20.7790603637695 8.65999984741211 20.419059753418 C 8.65999984741211 19.4857273101807 8.29999923706055 19.0190601348877 7.57999992370605 19.0190601348877 C 6.37999963760376 19.0190601348877 5.37333297729492 19.6857261657715 4.55999994277954 21.0190601348877 C 4.46666622161865 21.1657276153564 4.3866662979126 21.3123931884766 4.31999969482422 21.4590606689453 L 4.05999994277954 22.4590606689453 C 3.993332862854 22.7657260894775 3.87999963760376 23.2123928070068 3.72000002861023 23.7990608215332 L 3.27999997138977 25.5990600585938 C 3.0533332824707 26.5190601348877 2.9266664981842 27.012393951416 2.89999985694885 27.0790596008301 C 2.77999997138977 27.4257259368896 2.53333330154419 27.6123924255371 2.15999984741211 27.6390590667725 C 1.82666659355164 27.5723934173584 1.63333320617676 27.3923931121826 1.57999992370605 27.0990600585938 C 1.57999980449677 27.1257266998291 1.6399998664856 26.8390598297119 1.76000010967255 26.2390594482422 L 2.92000007629395 21.6190605163574 C 3.13333320617676 20.7657260894775 3.23999977111816 20.2057266235352 3.24000000953674 19.9390602111816 C 3.23999977111816 19.3257274627686 3.03333330154419 19.0190601348877 2.61999988555908 19.0190601348877 C 2.07333326339722 19.0190601348877 1.62666654586792 19.6523933410645 1.27999985218048 20.919059753418 C 1.24000000953674 21.0657272338867 1.20000004768372 21.2257270812988 1.1599999666214 21.3990592956543 C 1.01333332061768 21.6923942565918 0.899999976158142 21.8457260131836 0.819999933242798 21.8590602874756 C 0.659999966621399 21.8590602874756 0.579999923706055 21.7923927307129 0.579999983310699 21.6590595245361 C 0.579999923706055 21.4457263946533 0.706666588783264 20.9923934936523 0.959999918937683 20.2990608215332 C 1.03999996185303 20.0723934173584 1.11999988555908 19.8790607452393 1.19999992847443 19.7190589904785 C 1.51999986171722 19.0657272338867 1.91999983787537 18.6923942565918 2.39999985694885 18.5990600585938 C 2.49333310127258 18.5857276916504 2.58666658401489 18.5790596008301 2.67999982833862 18.5790596008301 Z " fill = "black" />
<path d="M 24.9158515930176 23.9590606689453 L 36.8558502197266 23.9590606689453 C 37.2825164794922 23.9590606689453 37.5091857910156 24.0923938751221 37.5358505249023 24.3590602874756 C 37.5358505249023 24.6257266998291 37.3158493041992 24.7590599060059 36.8758506774902 24.7590599060059 L 24.8958530426025 24.7590599060059 C 24.4691848754883 24.7590599060059 24.2491855621338 24.6257266998291 24.2358531951904 24.3590602874756 C 24.2358512878418 24.0923938751221 24.4625186920166 23.9590606689453 24.9158515930176 23.9590606689453 Z M 24.8958530426025 20.0790596008301 L 36.8758506774902 20.0790596008301 C 37.3025207519531 20.0790596008301 37.522518157959 20.2123928070068 37.5358505249023 20.4790592193604 C 37.5358505249023 20.7457275390625 37.3091850280762 20.8790588378906 36.8558502197266 20.8790588378906 L 24.9158515930176 20.8790588378906 C 24.489185333252 20.8790588378906 24.2625198364258 20.7457275390625 24.2358531951904 20.4790592193604 C 24.2358512878418 20.2123928070068 24.4558525085449 20.0790596008301 24.8958530426025 20.0790596008301 Z " fill = "black" />
<path d="M 53.9170837402344 -0.211099624633789 C 54.6104164123535 -0.211098670959473 55.1170845031738 0.0155677795410156 55.437084197998 0.468899756669998 C 55.5837516784668 0.668900489807129 55.6570854187012 0.902234077453613 55.6570854187012 1.16890048980713 C 55.6570854187012 1.70223331451416 55.430419921875 2.0689001083374 54.9770851135254 2.26889991760254 C 54.84375 2.33556652069092 54.7037506103516 2.36890029907227 54.5570831298828 2.36890029907227 C 54.1704177856445 2.36890029907227 53.9304161071777 2.20223331451416 53.837085723877 1.86890041828156 C 53.8237495422363 1.80223369598389 53.8170852661133 1.73556804656982 53.8170852661133 1.66890037059784 C 53.8170852661133 1.25556659698486 54.0037498474121 0.94890022277832 54.377082824707 0.748900532722473 C 54.5237503051758 0.655567169189453 54.6970825195313 0.60223388671875 54.8970832824707 0.588900566101074 C 54.6437530517578 0.34890079498291 54.3170852661133 0.228900909423828 53.9170837402344 0.228900045156479 C 53.5037498474121 0.228900909423828 53.1904182434082 0.455567359924316 52.9770851135254 0.908900260925293 C 52.8837509155273 1.09556674957275 52.7237510681152 1.78890037536621 52.4970855712891 2.98890018463135 L 52.0770835876465 5.26889991760254 L 53.7370834350586 5.26889991760254 C 54.0704193115234 5.26889991760254 54.2504196166992 5.34223365783691 54.2770843505859 5.48890018463135 C 54.2770843505859 5.72889995574951 54.1704177856445 5.86223316192627 53.9570846557617 5.88889980316162 L 53.937084197998 5.88889980316162 L 53.6770858764648 5.88889980316162 L 51.9570846557617 5.88889980316162 L 50.7570838928223 12.2288999557495 C 50.6370849609375 13.0555667877197 50.3970832824707 14.002233505249 50.0370864868164 15.0689001083374 C 49.903751373291 15.45556640625 49.7704162597656 15.7822332382202 49.6370849609375 16.048900604248 C 49.1704177856445 17.0355663299561 48.5904159545898 17.6488990783691 47.8970832824707 17.8889007568359 C 47.7237510681152 17.95556640625 47.5504188537598 17.988899230957 47.377082824707 17.988899230957 C 46.7104187011719 17.988899230957 46.2170829772949 17.7622337341309 45.8970832824707 17.3088989257813 C 45.7504196166992 17.1089000701904 45.6770858764648 16.8755664825439 45.6770858764648 16.6089000701904 C 45.6770858764648 16.0755653381348 45.903751373291 15.7088994979858 46.3570861816406 15.5088996887207 C 46.4904174804688 15.4422330856323 46.6304168701172 15.408899307251 46.7770843505859 15.408899307251 C 47.1637496948242 15.408899307251 47.403751373291 15.5755662918091 47.4970855712891 15.908899307251 C 47.5104179382324 15.9755668640137 47.5170860290527 16.0422325134277 47.5170860290527 16.1089000701904 C 47.5170860290527 16.5622329711914 47.3170852661133 16.8822326660156 46.9170837402344 17.0688991546631 C 46.7704162597656 17.1355667114258 46.6037521362305 17.1755657196045 46.4170837402344 17.1888999938965 C 46.6704177856445 17.4288997650146 46.9904174804688 17.548900604248 47.377082824707 17.548900604248 C 47.963752746582 17.548900604248 48.4237518310547 16.8955669403076 48.7570838928223 15.5888996124268 C 48.8237495422363 15.2822332382202 48.903751373291 14.8822326660156 48.9970855712891 14.3888998031616 L 49.1170845031738 13.7888994216919 L 50.6170845031738 5.88889980316162 L 49.2970848083496 5.88889980316162 C 48.963752746582 5.88889980316162 48.7837524414063 5.83556652069092 48.7570838928223 5.72889995574951 L 48.7370834350586 5.72889995574951 L 48.7370834350586 5.64890003204346 C 48.7370834350586 5.42223358154297 48.8504180908203 5.29556655883789 49.0770835876465 5.26889991760254 L 49.337085723877 5.26889991760254 L 50.7170829772949 5.26889991760254 C 51.0370826721191 3.60223293304443 51.2570838928223 2.55556678771973 51.377082824707 2.1289005279541 C 51.7770843505859 0.795567512512207 52.4837493896484 0.0289011001586914 53.4970855712891 -0.171099632978439 C 53.6437530517578 -0.197765350341797 53.7837524414063 -0.211098670959473 53.9170837402344 -0.211099624633789 Z " fill = "black" />
<rect x="44.2270444444444" y="22.01907" width="10.5718" height="0.79998" />
<path d="M 49.8670425415039 32.7380828857422 C 49.1737098693848 32.7380828857422 48.5137100219727 33.1914138793945 47.8870429992676 34.0980796813965 C 47.7670440673828 34.2714157104492 47.6537094116211 34.458080291748 47.5470428466797 34.6580810546875 C 47.1603775024414 35.4314155578613 46.8337097167969 36.5314140319824 46.5670433044434 37.958080291748 C 46.4870414733887 38.4114151000977 46.4470443725586 38.7714157104492 46.4470443725586 39.0380821228027 C 46.4470443725586 39.9447479248047 46.7003784179688 40.5314140319824 47.2070426940918 40.7980804443359 C 47.3537101745605 40.8780822753906 47.527042388916 40.9180793762207 47.7270431518555 40.9180793762207 C 48.4737091064453 40.9180793762207 49.2270431518555 40.4447479248047 49.9870414733887 39.4980812072754 C 50.1737098693848 39.2847480773926 50.3003768920898 39.0647468566895 50.3670425415039 38.8380813598633 L 50.3670425415039 38.8180809020996 C 50.3803749084473 38.7914123535156 50.3870429992676 38.7714157104492 50.3870429992676 38.7580795288086 L 51.3870429992676 34.8380813598633 C 51.4270439147949 34.6380805969238 51.4470443725586 34.5247497558594 51.4470443725586 34.4980812072754 C 51.4470443725586 34.2180786132813 51.3270416259766 33.8780822753906 51.087043762207 33.4780807495117 C 50.7937088012695 32.984748840332 50.3870429992676 32.7380828857422 49.8670425415039 32.7380828857422 Z M 49.8470420837402 32.2980804443359 C 50.6603775024414 32.2980804443359 51.2737083435059 32.7247467041016 51.6870422363281 33.5780792236328 C 51.7537078857422 33.1247482299805 51.960376739502 32.8447494506836 52.3070449829102 32.7380828857422 C 52.3737106323242 32.7114143371582 52.4470443725586 32.6980819702148 52.527042388916 32.6980819702148 C 52.8737106323242 32.6980819702148 53.0670433044434 32.8780822753906 53.1070442199707 33.2380828857422 C 53.1070404052734 33.3180809020996 53.060375213623 33.5447463989258 52.967041015625 33.9180793762207 L 52.2470436096191 36.7180786132813 C 52.0470428466797 37.5580825805664 51.9003753662109 38.1580810546875 51.8070449829102 38.5180816650391 C 51.6337089538574 39.2114143371582 51.5470428466797 39.7047462463379 51.5470428466797 39.9980812072754 C 51.5470428466797 40.6114120483398 51.7470436096191 40.9180793762207 52.1470413208008 40.9180793762207 C 52.6537094116211 40.9180793762207 53.0803756713867 40.3847465515137 53.4270439147949 39.3180809020996 C 53.493709564209 39.0914154052734 53.5737075805664 38.7980804443359 53.6670417785645 38.4380798339844 C 53.7737083435059 38.2114143371582 53.8670425415039 38.0914154052734 53.9470443725586 38.0780792236328 C 54.1070404052734 38.0780792236328 54.1870422363281 38.1447486877441 54.1870422363281 38.2780799865723 C 54.1870422363281 38.4780807495117 54.0670433044434 38.9447479248047 53.8270416259766 39.6780815124512 C 53.7470397949219 39.9047470092773 53.6670417785645 40.0980796813965 53.587043762207 40.2580795288086 C 53.2137069702148 40.9914131164551 52.7203750610352 41.358081817627 52.1070442199707 41.358081817627 C 51.3603744506836 41.358081817627 50.8203773498535 41.0380821228027 50.4870414733887 40.398078918457 C 50.3937072753906 40.2380790710449 50.3270416259766 40.0580825805664 50.2870445251465 39.858081817627 C 49.4470443725586 40.858081817627 48.5803756713867 41.358081817627 47.6870422363281 41.358081817627 C 46.6870422363281 41.358081817627 45.9470443725586 40.9047470092773 45.4670448303223 39.9980812072754 C 45.1737098693848 39.4647483825684 45.027042388916 38.8514137268066 45.027042388916 38.1580810546875 C 45.027042388916 36.7180824279785 45.527042388916 35.3847465515137 46.527042388916 34.1580810546875 C 47.460376739502 33.0380783081055 48.4737091064453 32.424747467041 49.5670433044434 32.3180809020996 C 49.6603775024414 32.3047485351563 49.7537078857422 32.2980804443359 49.8470420837402 32.2980804443359 Z " fill = "black" />

</svg>

